<?xml version="1.0" encoding="utf-8"?>
<!-- Generator: Adobe Illustrator 16.0.0, SVG Export Plug-In . SVG Version: 6.00 Build 0)  -->
<!DOCTYPE svg PUBLIC "-//W3C//DTD SVG 1.1//EN" "http://www.w3.org/Graphics/SVG/1.1/DTD/svg11.dtd">
<svg version="1.1" id="Layer_1" xmlns="http://www.w3.org/2000/svg" xmlns:xlink="http://www.w3.org/1999/xlink" x="0px" y="0px"
	 width="1400px" height="980px" viewBox="0 0 1400 980" enable-background="new 0 0 1400 980" xml:space="preserve">
<g>
	<path fill="#CDEAEB" stroke="#E8ACCE" stroke-miterlimit="10" d="M257.114,635.707c0,21.815,17.685,39.5,39.5,39.5H494.28
		c21.815,0,39.5-17.685,39.5-39.5l0,0c0-21.815-17.685-39.5-39.5-39.5H296.614C274.798,596.207,257.114,613.892,257.114,635.707
		L257.114,635.707z"/>
	<path opacity="0.7" fill="#CDEAEB" stroke="#E8ACCE" stroke-miterlimit="10" d="M337.089,655.707c-21.815,0-39.5-17.685-39.5-39.5
		c0-7.3,1.988-14.133,5.441-20h-6.417c-21.815,0-39.5,17.685-39.5,39.5s17.685,39.5,39.5,39.5H494.28
		c14.515,0,27.193-7.834,34.059-19.5H337.089z"/>
	<path fill="#CDEAEB" stroke="#E8ACCE" stroke-miterlimit="10" d="M1151.78,613.707c0,33.966-27.534,61.5-61.5,61.5H523.947
		c-33.965,0-61.5-27.534-61.5-61.5l0,0c0-33.966,27.535-61.5,61.5-61.5h566.333C1124.246,552.207,1151.78,579.741,1151.78,613.707
		L1151.78,613.707z"/>
	<path opacity="0.8" fill="#CDEAEB" stroke="#E8ACCE" stroke-miterlimit="10" d="M1128.782,565.765
		c1.174,4.746,1.808,9.705,1.808,14.814c0,33.966-27.534,61.5-61.5,61.5H502.757c-14.578,0-27.962-5.082-38.501-13.558
		c6.631,26.808,30.835,46.686,59.692,46.686h566.333c33.966,0,61.5-27.534,61.5-61.5
		C1151.78,594.319,1142.8,577.037,1128.782,565.765z"/>
	<path fill="#DEF1F0" stroke="#E8ACCE" stroke-miterlimit="10" d="M812.78,574.207c0,12.15-9.85,22-22,22h-482
		c-12.15,0-22-9.85-22-22l0,0c0-12.15,9.85-22,22-22h482C802.931,552.207,812.78,562.057,812.78,574.207L812.78,574.207z"/>
	<path opacity="0.7" fill="#DEF1F0" stroke="#E8ACCE" stroke-miterlimit="10" d="M332.841,581.589c-12.15,0-22-9.85-22-22
		c0-2.59,0.451-5.074,1.273-7.382h-3.334c-12.15,0-22,9.85-22,22s9.85,22,22,22h482c9.561,0,17.692-6.1,20.727-14.618H332.841z"/>
	<path fill="#FFFFFF" d="M752.122,585.556c0,2.164-1.755,3.919-3.919,3.919h-42.128c-2.164,0-3.919-1.755-3.919-3.919l0,0
		c0-2.164,1.755-3.919,3.919-3.919h42.128C750.367,581.637,752.122,583.392,752.122,585.556L752.122,585.556z"/>
	<path fill="#FFFFFF" d="M785.923,583.596c0,1.083-0.877,1.96-1.959,1.96h-6.369c-1.082,0-1.959-0.877-1.959-1.96l0,0
		c0-1.082,0.877-1.959,1.959-1.959h6.369C785.046,581.637,785.923,582.514,785.923,583.596L785.923,583.596z"/>
	<path fill="#FFFFFF" d="M353.376,569.35c0,2.683-2.175,4.857-4.858,4.857h-31.433c-2.683,0-4.858-2.175-4.858-4.857l0,0
		c0-2.684,2.175-4.858,4.858-4.858h31.433C351.201,564.491,353.376,566.666,353.376,569.35L353.376,569.35z"/>
	<path fill="#FFFFFF" d="M366.112,575.717c0,0.835-0.676,1.511-1.51,1.511h-5.307c-0.834,0-1.51-0.676-1.51-1.511l0,0
		c0-0.834,0.676-1.51,1.51-1.51h5.307C365.436,574.207,366.112,574.883,366.112,575.717L366.112,575.717z"/>
	<path fill="#DEF1F0" stroke="#E8ACCE" stroke-miterlimit="10" d="M1055.78,635.707c0,21.815-17.685,39.5-39.5,39.5h-590
		c-21.815,0-39.5-17.685-39.5-39.5l0,0c0-21.815,17.685-39.5,39.5-39.5h590C1038.096,596.207,1055.78,613.892,1055.78,635.707
		L1055.78,635.707z"/>
	<path opacity="0.7" fill="#DEF1F0" stroke="#E8ACCE" stroke-miterlimit="10" d="M465.594,651.857c-21.815,0-39.5-17.685-39.5-39.5
		c0-5.756,1.241-11.219,3.455-16.15h-3.269c-21.815,0-39.5,17.685-39.5,39.5s17.685,39.5,39.5,39.5h590
		c16.06,0,29.87-9.589,36.046-23.35H465.594z"/>
	<path fill="#FFFFFF" d="M498.926,654.781c0,4.051-3.283,7.334-7.333,7.334h-68.666c-4.05,0-7.333-3.283-7.333-7.334l0,0
		c0-4.05,3.283-7.333,7.333-7.333h68.666C495.643,647.448,498.926,650.731,498.926,654.781L498.926,654.781z"/>
	<path fill="#A4D7BA" stroke="#8AA9D8" stroke-miterlimit="10" d="M475.499,619.154c0,0,2.167-184.43,73.858-255.847
		c0,0-63.354,106.91-52.627,255.847C496.729,619.154,485.515,623.188,475.499,619.154z"/>
	<path fill="none" stroke="#89CB99" stroke-width="4" stroke-linecap="round" stroke-miterlimit="10" d="M437.991,406.401
		c0,0,37.508,99.121,37.508,209.022"/>
	<path fill="none" stroke="#89CB99" stroke-width="4" stroke-linecap="round" stroke-miterlimit="10" d="M422.246,458.359
		c0,0,48.732,80.859,52.213,162.587"/>
	<g>
		<path fill="#E58C91" d="M456.567,441.865c1.259,4.859-1.66,9.818-6.519,11.077l0,0c-4.859,1.259-9.818-1.66-11.077-6.519
			l-19.963-77.054c-1.259-4.859,1.659-9.818,6.519-11.078l0,0c4.859-1.259,9.818,1.66,11.077,6.519L456.567,441.865z"/>
		<path opacity="0.6" fill="#E58C91" d="M453.243,442.474c-4.859,1.259-9.818-1.66-11.077-6.519l-19.738-76.186
			c-2.906,2.137-4.379,5.895-3.419,9.6l19.963,77.054c1.259,4.859,6.218,7.777,11.077,6.519c4.859-1.259,7.777-6.218,6.519-11.077
			l-0.225-0.869C455.437,441.662,454.397,442.174,453.243,442.474z"/>
		<path fill="#E58C91" d="M427.819,360.679c0.225,0.867-0.295,1.751-1.162,1.976l0,0c-0.867,0.225-1.751-0.296-1.976-1.163
			l-2.052-7.921c-0.225-0.867,0.296-1.751,1.163-1.976l0,0c0.866-0.225,1.751,0.296,1.976,1.163L427.819,360.679z"/>
		<g opacity="0.4">
			<path opacity="0.6" fill="#E58C91" d="M432.62,368.574c0.119,0.46-0.157,0.931-0.618,1.05l0,0
				c-0.46,0.119-0.93-0.158-1.049-0.618l-0.799-3.083c-0.119-0.46,0.157-0.93,0.617-1.05l0,0c0.46-0.119,0.931,0.158,1.05,0.618
				L432.62,368.574z"/>
			<path opacity="0.6" fill="#E58C91" d="M433.546,386.566c0.107,0.414-0.142,0.837-0.556,0.944l0,0
				c-0.415,0.107-0.837-0.141-0.944-0.555l-0.777-3c-0.107-0.415,0.142-0.837,0.556-0.944l0,0c0.414-0.107,0.837,0.141,0.944,0.556
				L433.546,386.566z"/>
			<path opacity="0.6" fill="#E58C91" d="M441.144,395.981c0.095,0.368-0.125,0.744-0.494,0.839l0,0
				c-0.368,0.095-0.744-0.126-0.839-0.494l-0.604-2.334c-0.095-0.368,0.126-0.744,0.494-0.839l0,0
				c0.369-0.096,0.744,0.126,0.84,0.494L441.144,395.981z"/>
			<path opacity="0.6" fill="#E58C91" d="M440.22,408.547c0.112,0.433-0.148,0.875-0.581,0.987l0,0
				c-0.433,0.112-0.875-0.148-0.987-0.581l-0.661-2.552c-0.112-0.433,0.147-0.875,0.581-0.987l0,0
				c0.433-0.112,0.875,0.148,0.987,0.581L440.22,408.547z"/>
			<path opacity="0.6" fill="#E58C91" d="M444.884,415.912c0.119,0.46-0.157,0.93-0.617,1.049l0,0
				c-0.46,0.119-0.93-0.157-1.049-0.618l-0.259-1c-0.119-0.46,0.157-0.93,0.618-1.049l0,0c0.459-0.119,0.929,0.157,1.048,0.618
				L444.884,415.912z"/>
			<path opacity="0.6" fill="#E58C91" d="M446.245,429.744c0.102,0.392-0.133,0.791-0.525,0.893l0,0
				c-0.392,0.102-0.791-0.134-0.893-0.525l-0.69-2.666c-0.102-0.391,0.133-0.791,0.525-0.892l0,0
				c0.391-0.102,0.791,0.134,0.892,0.525L446.245,429.744z"/>
			<path opacity="0.6" fill="#E58C91" d="M452.037,435.625c0.09,0.345-0.118,0.698-0.463,0.787l0,0
				c-0.345,0.089-0.698-0.118-0.787-0.463l-0.108-0.416c-0.089-0.345,0.118-0.698,0.463-0.787l0,0
				c0.346-0.09,0.698,0.118,0.788,0.463L452.037,435.625z"/>
			<path opacity="0.6" fill="#E58C91" d="M426.474,362.358c0.105,0.406-0.139,0.82-0.545,0.925l0,0
				c-0.405,0.105-0.82-0.139-0.925-0.544l-0.132-0.513c-0.105-0.405,0.139-0.82,0.544-0.925l0,0c0.406-0.105,0.82,0.139,0.925,0.544
				L426.474,362.358z"/>
		</g>
	</g>
	<g>
		<path fill="#E58C91" d="M434.485,466.976c1.869,4.118,0.046,8.971-4.071,10.841l0,0c-4.118,1.87-8.972,0.046-10.841-4.071
			l-29.646-65.303c-1.87-4.119-0.047-8.972,4.071-10.842l0,0c4.117-1.869,8.971-0.046,10.841,4.071L434.485,466.976z"/>
		<path opacity="0.6" fill="#E58C91" d="M431.628,468.03c-1.672,0.759-3.465,0.909-5.13,0.544c-2.437-0.534-4.6-2.169-5.71-4.616
			l-29.313-64.566c-2.249,2.346-2.975,5.91-1.549,9.05l29.646,65.303c1.869,4.118,6.723,5.941,10.841,4.071
			c4.118-1.87,5.94-6.723,4.071-10.841l-0.334-0.737C433.45,466.97,432.607,467.586,431.628,468.03z"/>
		<path fill="#E58C91" d="M396.402,399.365c0.333,0.734,0.009,1.6-0.725,1.934l0,0c-0.735,0.333-1.601,0.008-1.935-0.727
			l-3.047-6.713c-0.333-0.735-0.008-1.6,0.726-1.934l0,0c0.734-0.333,1.601-0.008,1.934,0.727L396.402,399.365z"/>
		<g opacity="0.4">
			<path opacity="0.6" fill="#E58C91" d="M401.886,405.629c0.176,0.39,0.003,0.851-0.386,1.028l0,0
				c-0.391,0.176-0.851,0.004-1.027-0.386l-1.186-2.613c-0.178-0.391-0.005-0.85,0.385-1.027l0,0
				c0.39-0.178,0.851-0.004,1.028,0.386L401.886,405.629z"/>
			<path opacity="0.6" fill="#E58C91" d="M405.492,421.456c0.16,0.351,0.004,0.765-0.347,0.924l0,0
				c-0.352,0.16-0.765,0.004-0.924-0.346l-1.154-2.543c-0.16-0.352-0.004-0.765,0.347-0.925l0,0
				c0.351-0.159,0.765-0.004,0.924,0.348L405.492,421.456z"/>
			<path opacity="0.6" fill="#E58C91" d="M413.692,428.636c0.142,0.312,0.004,0.68-0.308,0.822l0,0
				c-0.313,0.142-0.68,0.004-0.822-0.308l-0.898-1.978c-0.142-0.312-0.003-0.68,0.308-0.821l0,0c0.313-0.143,0.68-0.004,0.822,0.308
				L413.692,428.636z"/>
			<path opacity="0.6" fill="#E58C91" d="M414.818,439.933c0.167,0.367,0.004,0.799-0.363,0.966l0,0
				c-0.367,0.167-0.799,0.004-0.965-0.362l-0.982-2.162c-0.167-0.368-0.005-0.801,0.362-0.967l0,0
				c0.366-0.167,0.8-0.004,0.966,0.363L414.818,439.933z"/>
			<path opacity="0.6" fill="#E58C91" d="M420.099,445.748c0.177,0.39,0.005,0.85-0.385,1.027l0,0
				c-0.39,0.177-0.85,0.004-1.027-0.385l-0.385-0.848c-0.177-0.39-0.004-0.85,0.386-1.027l0,0c0.389-0.177,0.849-0.004,1.026,0.386
				L420.099,445.748z"/>
			<path opacity="0.6" fill="#E58C91" d="M423.447,457.814c0.15,0.332,0.003,0.723-0.328,0.874l0,0
				c-0.333,0.15-0.723,0.004-0.874-0.329l-1.026-2.259c-0.151-0.331-0.004-0.722,0.328-0.873l0,0
				c0.332-0.151,0.722-0.004,0.873,0.328L423.447,457.814z"/>
			<path opacity="0.6" fill="#E58C91" d="M429.499,462.138c0.133,0.292,0.003,0.638-0.29,0.771l0,0
				c-0.292,0.132-0.638,0.002-0.771-0.29l-0.16-0.353c-0.133-0.293-0.003-0.638,0.289-0.77l0,0c0.293-0.133,0.638-0.004,0.771,0.289
				L429.499,462.138z"/>
			<path opacity="0.6" fill="#E58C91" d="M395.468,401.063c0.156,0.343,0.004,0.749-0.34,0.905l0,0
				c-0.344,0.156-0.749,0.004-0.905-0.339l-0.196-0.435c-0.157-0.343-0.004-0.749,0.339-0.905l0,0
				c0.344-0.156,0.75-0.003,0.905,0.34L395.468,401.063z"/>
		</g>
	</g>
	<path fill="#BCE1CC" stroke="#8AA9D8" stroke-miterlimit="10" d="M477.665,616.987c0,1.197-0.97,2.167-2.167,2.167l0,0
		c-1.197,0-2.167-0.97-2.167-2.167V404.838c0-1.197,0.97-2.167,2.167-2.167l0,0c1.196,0,2.167,0.97,2.167,2.167V616.987z"/>
	<g>
		<path fill="#E58C91" d="M484.871,422.885c0.036,5.019-4.004,9.117-9.023,9.153l0,0c-5.02,0.036-9.117-4.004-9.153-9.023
			l-0.57-79.596c-0.036-5.02,4.003-9.117,9.023-9.153l0,0c5.019-0.036,9.117,4.004,9.153,9.023L484.871,422.885z"/>
		<path opacity="0.6" fill="#E58C91" d="M481.499,422.665c-5.02,0.036-9.117-4.004-9.153-9.023l-0.563-78.699
			c-3.34,1.363-5.685,4.649-5.658,8.476l0.57,79.596c0.036,5.019,4.133,9.059,9.153,9.023c5.019-0.036,9.059-4.134,9.023-9.153
			l-0.006-0.898C483.825,422.412,482.691,422.656,481.499,422.665z"/>
		<path fill="#E58C91" d="M476.79,337.139c0.006,0.896-0.714,1.626-1.609,1.633l0,0c-0.895,0.006-1.626-0.714-1.632-1.609
			l-0.059-8.182c-0.006-0.896,0.714-1.626,1.609-1.633l0,0c0.895-0.007,1.626,0.714,1.632,1.609L476.79,337.139z"/>
		<g opacity="0.4">
			<path opacity="0.6" fill="#E58C91" d="M479.521,345.967c0.003,0.476-0.379,0.864-0.855,0.867l0,0
				c-0.476,0.003-0.864-0.379-0.867-0.854l-0.023-3.185c-0.003-0.476,0.379-0.864,0.855-0.868l0,0
				c0.476-0.003,0.864,0.38,0.867,0.855L479.521,345.967z"/>
			<path opacity="0.6" fill="#E58C91" d="M476.031,363.642c0.003,0.428-0.341,0.777-0.769,0.78l0,0
				c-0.428,0.003-0.777-0.341-0.78-0.769l-0.022-3.099c-0.003-0.428,0.342-0.777,0.77-0.78l0,0c0.428-0.003,0.777,0.341,0.78,0.769
				L476.031,363.642z"/>
			<path opacity="0.6" fill="#E58C91" d="M481.103,374.625c0.002,0.38-0.303,0.69-0.684,0.693l0,0
				c-0.38,0.003-0.691-0.303-0.693-0.683l-0.017-2.412c-0.002-0.38,0.304-0.69,0.684-0.693l0,0c0.38-0.003,0.691,0.303,0.694,0.683
				L481.103,374.625z"/>
			<path opacity="0.6" fill="#E58C91" d="M477.143,386.586c0.003,0.447-0.357,0.812-0.804,0.815l0,0
				c-0.448,0.003-0.813-0.356-0.816-0.803l-0.019-2.636c-0.003-0.447,0.356-0.813,0.804-0.816l0,0
				c0.447-0.003,0.813,0.357,0.816,0.804L477.143,386.586z"/>
			<path opacity="0.6" fill="#E58C91" d="M479.87,394.867c0.003,0.476-0.379,0.864-0.854,0.867l0,0
				c-0.476,0.003-0.864-0.379-0.867-0.855l-0.008-1.033c-0.003-0.476,0.379-0.864,0.855-0.867l0,0
				c0.475-0.003,0.863,0.379,0.866,0.854L479.87,394.867z"/>
			<path opacity="0.6" fill="#E58C91" d="M477.816,408.612c0.003,0.405-0.322,0.735-0.727,0.738l0,0
				c-0.404,0.003-0.734-0.323-0.737-0.727l-0.02-2.754c-0.003-0.404,0.322-0.734,0.727-0.737l0,0
				c0.404-0.003,0.734,0.323,0.737,0.727L477.816,408.612z"/>
			<path opacity="0.6" fill="#E58C91" d="M482,415.729c0.003,0.357-0.284,0.648-0.642,0.65l0,0c-0.356,0.003-0.648-0.284-0.65-0.641
				l-0.003-0.43c-0.002-0.357,0.285-0.648,0.641-0.65l0,0c0.357-0.003,0.648,0.284,0.651,0.642L482,415.729z"/>
			<path opacity="0.6" fill="#E58C91" d="M475.076,338.44c0.003,0.419-0.334,0.761-0.754,0.764l0,0
				c-0.418,0.003-0.761-0.334-0.764-0.753l-0.003-0.529c-0.004-0.419,0.334-0.761,0.753-0.764l0,0
				c0.419-0.003,0.762,0.334,0.765,0.753L475.076,338.44z"/>
		</g>
	</g>
	<path fill="none" stroke="#89CB99" stroke-width="4" stroke-linecap="round" stroke-miterlimit="10" d="M539.165,448.825
		c0,0-60.75,64.515-62.375,159.182"/>
	<g>
		<path fill="#E58C91" d="M540.771,459.427c-3.789,3.292-9.529,2.888-12.821-0.901l0,0c-3.292-3.791-2.888-9.531,0.902-12.822
			l60.094-52.196c3.79-3.292,9.529-2.889,12.821,0.901l0,0c3.292,3.79,2.888,9.53-0.902,12.822L540.771,459.427z"/>
		<path opacity="0.6" fill="#E58C91" d="M538.745,456.722c-3.292-3.79-2.887-9.529,0.902-12.821l59.417-51.609
			c-3.208-1.65-7.229-1.294-10.118,1.216l-60.094,52.196c-3.79,3.292-4.194,9.032-0.902,12.822
			c3.292,3.789,9.032,4.192,12.821,0.901l0.678-0.588C540.45,458.325,539.528,457.623,538.745,456.722z"/>
		<path fill="#E58C91" d="M600.652,397.525c-0.676,0.587-1.7,0.516-2.286-0.161l0,0c-0.588-0.676-0.515-1.7,0.16-2.286l6.178-5.367
			c0.676-0.587,1.699-0.515,2.287,0.161l0,0c0.587,0.676,0.516,1.7-0.161,2.288L600.652,397.525z"/>
		<g opacity="0.4">
			<path opacity="0.6" fill="#E58C91" d="M595.722,405.34c-0.359,0.312-0.904,0.273-1.215-0.085l0,0
				c-0.312-0.359-0.273-0.903,0.085-1.214l2.405-2.088c0.358-0.312,0.902-0.274,1.214,0.084l0,0
				c0.312,0.359,0.273,0.904-0.085,1.215L595.722,405.34z"/>
			<path opacity="0.6" fill="#E58C91" d="M580.025,414.183c-0.323,0.281-0.812,0.247-1.093-0.077l0,0
				c-0.28-0.324-0.246-0.813,0.077-1.093l2.34-2.033c0.323-0.281,0.813-0.246,1.093,0.078l0,0c0.28,0.323,0.247,0.812-0.077,1.092
				L580.025,414.183z"/>
			<path opacity="0.6" fill="#E58C91" d="M574.98,425.179c-0.287,0.249-0.722,0.219-0.971-0.068l0,0
				c-0.25-0.288-0.219-0.722,0.068-0.971l1.821-1.582c0.286-0.249,0.721-0.218,0.97,0.069l0,0c0.25,0.287,0.219,0.722-0.068,0.972
				L574.98,425.179z"/>
			<path opacity="0.6" fill="#E58C91" d="M563.319,429.95c-0.338,0.293-0.85,0.257-1.143-0.081l0,0
				c-0.293-0.338-0.258-0.849,0.08-1.142l1.99-1.729c0.337-0.293,0.849-0.258,1.142,0.08l0,0c0.293,0.337,0.257,0.849-0.081,1.143
				L563.319,429.95z"/>
			<path opacity="0.6" fill="#E58C91" d="M558.803,437.407c-0.359,0.312-0.903,0.274-1.215-0.084l0,0
				c-0.312-0.359-0.273-0.903,0.086-1.215l0.78-0.678c0.359-0.312,0.903-0.273,1.215,0.086l0,0c0.311,0.358,0.273,0.902-0.086,1.213
				L558.803,437.407z"/>
			<path opacity="0.6" fill="#E58C91" d="M547.025,444.787c-0.306,0.265-0.768,0.233-1.033-0.072l0,0
				c-0.266-0.306-0.232-0.769,0.073-1.034l2.08-1.806c0.305-0.265,0.767-0.233,1.033,0.073l0,0c0.265,0.305,0.232,0.768-0.073,1.033
				L547.025,444.787z"/>
			<path opacity="0.6" fill="#E58C91" d="M544.34,452.592c-0.269,0.234-0.677,0.206-0.911-0.064l0,0
				c-0.233-0.269-0.206-0.677,0.064-0.911l0.325-0.282c0.27-0.234,0.678-0.205,0.911,0.064l0,0c0.235,0.27,0.206,0.677-0.064,0.912
				L544.34,452.592z"/>
			<path opacity="0.6" fill="#E58C91" d="M598.549,397.068c-0.316,0.275-0.796,0.242-1.071-0.076l0,0
				c-0.274-0.316-0.241-0.795,0.075-1.07l0.4-0.347c0.316-0.274,0.796-0.241,1.071,0.075l0,0c0.275,0.316,0.241,0.796-0.076,1.071
				L598.549,397.068z"/>
		</g>
	</g>
	<path fill="#BCE1CC" stroke="#8AA9D8" stroke-miterlimit="10" d="M475.076,517.992c0,0,4.089-96.749,56.422-126.708
		C531.499,391.284,479.191,489.717,475.076,517.992z"/>
	<path fill="#BCE1CC" stroke="#8AA9D8" stroke-miterlimit="10" d="M473.332,561.659c0,0-22.166-85.708-78.833-107.021
		c0,0,62.333,68.05,78.833,141.369C473.332,596.007,478.687,578.168,473.332,561.659z"/>
	<path fill="#D8EDE1" stroke="#8AA9D8" stroke-miterlimit="10" d="M452.058,620.946c0,0-36.781-116.359-93.448-137.672
		c0,0,61.583,64.856,78.083,138.174C436.693,621.448,450.658,625.174,452.058,620.946z"/>
	<path fill="#BCE1CC" stroke="#8AA9D8" stroke-miterlimit="10" d="M480.406,565.185c0,0,11.759-76.193,86.759-100.859
		C567.165,464.325,502.146,522.544,480.406,565.185z"/>
	<path fill="#A4D7BA" stroke="#8AA9D8" stroke-miterlimit="10" d="M479.006,620.946c0,0-26.692-128.339-127.841-175.98
		c0,0,79.586,49.969,105.58,174.188C456.745,619.154,461.282,622.738,479.006,620.946z"/>
	<path fill="#BCE1CC" stroke="#8AA9D8" stroke-miterlimit="10" d="M467.102,621.347c-19.512-37.016-50.943-78.647-99.635-101.581
		c0,0,48.197,30.271,81.827,102.239C455.626,623.728,462.372,622.646,467.102,621.347z"/>
	<path fill="#BCE1CC" stroke="#8AA9D8" stroke-miterlimit="10" d="M485.932,621.448c0,0,22.125-111.342,133.799-146.706
		c0,0-87.943,43.606-113.07,144.412C506.66,619.154,501.918,625.909,485.932,621.448z"/>
	<path fill="#D8EDE1" stroke="#8AA9D8" stroke-miterlimit="10" d="M508.784,619.154
		C508.785,619.154,508.785,619.154,508.784,619.154c16.793-38.576,42.259-86.501,42.259-86.501
		c-31.35,17.946-45.384,59.855-51.601,90.582C501.923,622.856,505.106,621.775,508.784,619.154z"/>
	<path fill="#D8EDE1" stroke="#8AA9D8" stroke-miterlimit="10" d="M552.831,620.499c0,5.427-4.399,9.826-9.826,9.826H418.817
		c-5.426,0-9.826-4.399-9.826-9.826l0,0c0-5.427,4.399-9.826,9.826-9.826h124.188C548.432,610.673,552.831,615.072,552.831,620.499
		L552.831,620.499z"/>
	<path fill="#D8EDE1" stroke="#8AA9D8" stroke-miterlimit="10" d="M594.296,619.454c0,2.088-1.693,3.781-3.781,3.781H568.64
		c-2.088,0-3.781-1.693-3.781-3.781l0,0c0-2.088,1.693-3.781,3.781-3.781h21.875C592.603,615.673,594.296,617.366,594.296,619.454
		L594.296,619.454z"/>
	<path fill="#FFFFFF" d="M584.447,621.207c0,1.288-1.044,2.333-2.333,2.333h-12.667c-1.289,0-2.333-1.045-2.333-2.333l0,0
		c0-1.289,1.044-2.334,2.333-2.334h12.667C583.403,618.873,584.447,619.918,584.447,621.207L584.447,621.207z"/>
	<path fill="#DEF1F0" stroke="#E8ACCE" stroke-miterlimit="10" d="M1055.78,574.207c0,12.15-11.715,22-26.166,22H871.946
		c-14.451,0-26.166-9.85-26.166-22l0,0c0-12.15,11.715-22,26.166-22h157.668C1044.065,552.207,1055.78,562.057,1055.78,574.207
		L1055.78,574.207z"/>
	<path fill="#DEF1F0" stroke="#E8ACCE" stroke-miterlimit="10" d="M1047.854,579.144H890.187c-14.451,0-26.166-9.85-26.166-22
		c0-1.373,0.157-2.715,0.443-4.019c-10.804,2.707-18.684,11.118-18.684,21.082c0,12.15,11.715,22,26.166,22h157.668
		c12.817,0,23.476-7.751,25.723-17.981C1052.966,578.82,1050.455,579.144,1047.854,579.144z"/>
	<path fill="#CDEAEB" stroke="#E8ACCE" stroke-miterlimit="10" d="M366.112,524.541c0,5.154-4.179,9.333-9.333,9.333h-47.665
		c-5.155,0-9.333-4.179-9.333-9.333l0,0c0-5.155,4.179-9.334,9.333-9.334h47.665C361.934,515.207,366.112,519.386,366.112,524.541
		L366.112,524.541z"/>
	<path fill="#CDEAEB" stroke="#E8ACCE" stroke-miterlimit="10" d="M707.78,698.541c0,8.1-6.566,14.666-14.667,14.666h-192
		c-8.1,0-14.667-6.566-14.667-14.666l0,0c0-8.101,6.566-14.667,14.667-14.667h192C701.214,683.874,707.78,690.44,707.78,698.541
		L707.78,698.541z"/>
	<polygon fill="#CDEAEB" stroke="#E8ACCE" stroke-miterlimit="10" points="657.114,675.207 657.114,675.207 655.114,675.207 
		655.114,675.207 655.114,675.207 655.114,675.207 657.114,675.207 657.114,675.207 	"/>
	<path fill="#CDEAEB" stroke="#E8ACCE" stroke-miterlimit="10" d="M1004.446,697.873c0,4.418-3.582,8-8,8h-32c-4.418,0-8-3.582-8-8
		l0,0c0-4.418,3.582-8,8-8h32C1000.864,689.873,1004.446,693.455,1004.446,697.873L1004.446,697.873z"/>
	<path fill="#CDEAEB" stroke="#E8ACCE" stroke-miterlimit="10" d="M1052.446,528.207c0,5.338-4.328,9.666-9.666,9.666h-52.668
		c-5.338,0-9.666-4.328-9.666-9.666l0,0c0-5.339,4.328-9.667,9.666-9.667h52.668C1048.118,518.54,1052.446,522.868,1052.446,528.207
		L1052.446,528.207z"/>
	<path fill="#CDEAEB" stroke="#E8ACCE" stroke-miterlimit="10" d="M386.78,703.207c0,2.945-2.388,5.333-5.333,5.333H353.78
		c-2.946,0-5.333-2.388-5.333-5.333l0,0c0-2.946,2.388-5.334,5.333-5.334h27.667C384.393,697.873,386.78,700.261,386.78,703.207
		L386.78,703.207z"/>
	<path fill="#FFFFFF" d="M319.779,625.957c0,5.385-4.365,9.75-9.75,9.75h-19.833c-5.385,0-9.75-4.365-9.75-9.75l0,0
		c0-5.385,4.365-9.75,9.75-9.75h19.833C315.414,616.207,319.779,620.572,319.779,625.957L319.779,625.957z"/>
	<path fill="#FFFFFF" d="M289.779,653.54c0,1.288-1.044,2.333-2.333,2.333h-4.667c-1.289,0-2.333-1.045-2.333-2.333l0,0
		c0-1.288,1.044-2.333,2.333-2.333h4.667C288.735,651.207,289.779,652.252,289.779,653.54L289.779,653.54z"/>
	<path fill="#FFFFFF" d="M1127.112,593.068c0,5.23-4.24,9.472-9.472,9.472h-25.057c-5.231,0-9.472-4.241-9.472-9.472l0,0
		c0-5.231,4.24-9.473,9.472-9.473h25.057C1122.872,583.596,1127.112,587.837,1127.112,593.068L1127.112,593.068z"/>
	<path fill="#FFFFFF" d="M1135.112,610.123c0,1.979-1.604,3.584-3.584,3.584h-0.832c-1.979,0-3.584-1.604-3.584-3.584l0,0
		c0-1.979,1.604-3.583,3.584-3.583h0.832C1133.508,606.54,1135.112,608.145,1135.112,610.123L1135.112,610.123z"/>
	<g>
		<path fill="#D8EDE1" stroke="#8AA9D8" stroke-miterlimit="10" d="M894.712,496.018c0,0-25.172-103.97,22.026-142.297
			C916.738,353.721,893.477,439.827,894.712,496.018z"/>
		<path fill="none" stroke="#89CB99" stroke-width="4" stroke-linecap="round" stroke-miterlimit="10" d="M944.615,363.57
			c0,0-47.807,95.446-46.571,205.779"/>
		<path fill="none" stroke="#89CB99" stroke-width="4" stroke-linecap="round" stroke-miterlimit="10" d="M858.6,366.593
			c0,0,36.632,92.422,46.679,202.755"/>
		<path fill="none" stroke="#89CB99" stroke-width="4" stroke-linecap="round" stroke-miterlimit="10" d="M866.467,438.047
			c0,0,34.662,56.148,35.28,131.302"/>
		<path fill="none" stroke="#89CB99" stroke-width="4" stroke-linecap="round" stroke-miterlimit="10" d="M969.021,443.046
			c0,0-57.125,44.071-63.742,113.197"/>
		<path fill="none" stroke="#89CB99" stroke-width="4" stroke-linecap="round" stroke-miterlimit="10" d="M913.713,393.888
			c0,0-15.668,104.011-5.176,175.461"/>
		<g>
			<path fill="#E58C91" d="M875.786,438.342c2.106,4.142,0.455,9.207-3.688,11.313l0,0c-4.143,2.106-9.207,0.455-11.313-3.688
				l-33.395-65.69c-2.105-4.143-0.455-9.207,3.688-11.314l0,0c4.143-2.105,9.207-0.455,11.313,3.688L875.786,438.342z"/>
			<path opacity="0.6" fill="#E58C91" d="M872.901,439.554c-4.143,2.106-9.207,0.455-11.313-3.688l-33.019-64.95
				c-2.202,2.511-2.785,6.202-1.18,9.36l33.395,65.69c2.106,4.143,7.171,5.793,11.313,3.688s5.794-7.171,3.688-11.313l-0.377-0.741
				C874.725,438.382,873.886,439.053,872.901,439.554z"/>
			<path fill="#E58C91" d="M833.627,370.664c0.375,0.739,0.081,1.643-0.657,2.018l0,0c-0.739,0.375-1.643,0.082-2.019-0.658
				l-3.434-6.753c-0.375-0.739-0.081-1.642,0.658-2.018l0,0c0.738-0.375,1.642-0.081,2.018,0.659L833.627,370.664z"/>
			<g opacity="0.4">
				<path opacity="0.6" fill="#E58C91" d="M839.54,376.846c0.198,0.393,0.042,0.873-0.351,1.072l0,0
					c-0.392,0.2-0.873,0.042-1.072-0.349l-1.336-2.628c-0.199-0.393-0.043-0.873,0.349-1.072l0,0
					c0.394-0.199,0.874-0.043,1.073,0.35L839.54,376.846z"/>
				<path opacity="0.6" fill="#E58C91" d="M843.96,392.929c0.18,0.353,0.038,0.785-0.315,0.964l0,0
					c-0.353,0.18-0.784,0.039-0.964-0.314l-1.3-2.558c-0.181-0.354-0.04-0.785,0.313-0.964l0,0c0.353-0.18,0.785-0.04,0.966,0.314
					L843.96,392.929z"/>
				<path opacity="0.6" fill="#E58C91" d="M852.704,399.928c0.158,0.313,0.034,0.697-0.28,0.857l0,0
					c-0.314,0.159-0.697,0.034-0.857-0.279l-1.011-1.99c-0.159-0.313-0.035-0.697,0.279-0.856l0,0
					c0.314-0.16,0.696-0.035,0.856,0.279L852.704,399.928z"/>
				<path opacity="0.6" fill="#E58C91" d="M854.371,411.473c0.187,0.369,0.04,0.821-0.33,1.008l0,0
					c-0.368,0.188-0.819,0.041-1.007-0.328l-1.105-2.176c-0.188-0.369-0.042-0.821,0.328-1.008l0,0
					c0.368-0.188,0.821-0.041,1.008,0.329L854.371,411.473z"/>
				<path opacity="0.6" fill="#E58C91" d="M860.055,417.203c0.199,0.393,0.044,0.872-0.35,1.072l0,0
					c-0.391,0.199-0.871,0.043-1.07-0.35l-0.434-0.852c-0.2-0.393-0.043-0.873,0.349-1.072l0,0c0.393-0.199,0.872-0.043,1.071,0.35
					L860.055,417.203z"/>
				<path opacity="0.6" fill="#E58C91" d="M864.04,429.438c0.17,0.333,0.036,0.742-0.297,0.912l0,0
					c-0.334,0.17-0.742,0.036-0.911-0.298l-1.156-2.272c-0.17-0.333-0.037-0.741,0.297-0.911l0,0
					c0.334-0.17,0.742-0.037,0.912,0.297L864.04,429.438z"/>
				<path opacity="0.6" fill="#E58C91" d="M870.447,433.602c0.15,0.294,0.033,0.654-0.262,0.804l0,0
					c-0.294,0.149-0.653,0.032-0.804-0.262l-0.18-0.355c-0.15-0.294-0.033-0.654,0.262-0.804l0,0
					c0.294-0.15,0.653-0.033,0.804,0.262L870.447,433.602z"/>
				<path opacity="0.6" fill="#E58C91" d="M832.744,372.451c0.177,0.346,0.038,0.769-0.308,0.944l0,0
					c-0.346,0.176-0.77,0.039-0.945-0.308l-0.222-0.437c-0.176-0.345-0.037-0.769,0.308-0.944l0,0
					c0.347-0.176,0.769-0.038,0.945,0.308L832.744,372.451z"/>
			</g>
		</g>
		<g>
			<path fill="#E58C91" d="M971.71,450.162c-2.985,2.935-7.786,2.893-10.721-0.094l0,0c-2.935-2.985-2.892-7.785,0.094-10.719
				l47.356-46.538c2.986-2.937,7.786-2.894,10.721,0.092l0,0c2.935,2.985,2.893,7.786-0.094,10.721L971.71,450.162z"/>
			<path opacity="0.6" fill="#E58C91" d="M969.885,448.013c-1.19-1.212-1.892-2.724-2.104-4.288
				c-0.311-2.288,0.423-4.689,2.197-6.431l46.822-46.014c-2.755-1.21-6.084-0.708-8.361,1.531l-47.356,46.538
				c-2.985,2.934-3.028,7.734-0.094,10.719c2.935,2.987,7.735,3.029,10.721,0.094l0.534-0.525
				C971.387,449.26,970.583,448.723,969.885,448.013z"/>
			<path fill="#E58C91" d="M1018.391,395.554c-0.532,0.524-1.389,0.517-1.911-0.015l0,0c-0.524-0.534-0.517-1.39,0.017-1.914
				l4.868-4.784c0.532-0.524,1.389-0.515,1.912,0.018l0,0c0.523,0.533,0.517,1.388-0.018,1.912L1018.391,395.554z"/>
			<g opacity="0.4">
				<path opacity="0.6" fill="#E58C91" d="M1014.688,402.314c-0.284,0.277-0.738,0.273-1.017-0.009l0,0
					c-0.277-0.283-0.274-0.738,0.01-1.016l1.895-1.862c0.282-0.278,0.737-0.275,1.016,0.008l0,0c0.278,0.283,0.273,0.738-0.01,1.016
					L1014.688,402.314z"/>
				<path opacity="0.6" fill="#E58C91" d="M1002.072,410.48c-0.255,0.251-0.663,0.247-0.913-0.008l0,0
					c-0.25-0.255-0.247-0.663,0.007-0.914l1.844-1.812c0.254-0.251,0.664-0.247,0.915,0.008l0,0c0.25,0.254,0.247,0.664-0.009,0.914
					L1002.072,410.48z"/>
				<path opacity="0.6" fill="#E58C91" d="M998.438,419.895c-0.228,0.222-0.591,0.219-0.814-0.008l0,0
					c-0.222-0.227-0.219-0.589,0.008-0.812l1.435-1.409c0.227-0.224,0.591-0.22,0.812,0.006l0,0c0.224,0.227,0.219,0.59-0.006,0.813
					L998.438,419.895z"/>
				<path opacity="0.6" fill="#E58C91" d="M988.973,424.464c-0.268,0.261-0.694,0.257-0.956-0.009l0,0
					c-0.263-0.266-0.258-0.693,0.008-0.954l1.568-1.542c0.267-0.261,0.695-0.258,0.955,0.008l0,0
					c0.263,0.265,0.258,0.694-0.008,0.956L988.973,424.464z"/>
				<path opacity="0.6" fill="#E58C91" d="M985.595,430.904c-0.284,0.278-0.738,0.274-1.016-0.008l0,0
					c-0.278-0.283-0.274-0.738,0.008-1.015l0.615-0.605c0.284-0.278,0.737-0.274,1.016,0.009l0,0
					c0.278,0.282,0.273,0.737-0.01,1.016L985.595,430.904z"/>
				<path opacity="0.6" fill="#E58C91" d="M976.167,437.651c-0.241,0.236-0.628,0.233-0.864-0.006l0,0
					c-0.235-0.242-0.232-0.628,0.009-0.865l1.638-1.61c0.24-0.236,0.627-0.233,0.863,0.008l0,0c0.237,0.241,0.232,0.627-0.007,0.863
					L976.167,437.651z"/>
				<path opacity="0.6" fill="#E58C91" d="M974.332,444.289c-0.212,0.208-0.554,0.205-0.763-0.007l0,0
					c-0.208-0.211-0.205-0.553,0.007-0.761l0.255-0.252c0.213-0.208,0.555-0.206,0.763,0.007l0,0
					c0.209,0.212,0.206,0.553-0.007,0.763L974.332,444.289z"/>
				<path opacity="0.6" fill="#E58C91" d="M1016.617,395.282c-0.249,0.246-0.65,0.241-0.896-0.009l0,0
					c-0.245-0.25-0.241-0.65,0.007-0.895l0.316-0.309c0.247-0.246,0.649-0.241,0.894,0.007l0,0c0.246,0.25,0.242,0.651-0.007,0.896
					L1016.617,395.282z"/>
			</g>
		</g>
		<g>
			<path fill="#E58C91" d="M871.897,372.152c1.137,4.505-1.596,9.08-6.101,10.215l0,0c-4.507,1.137-9.08-1.595-10.217-6.101
				l-18.016-71.455c-1.138-4.506,1.595-9.08,6.102-10.216l0,0c4.505-1.136,9.079,1.596,10.215,6.101L871.897,372.152z"/>
			<path opacity="0.6" fill="#E58C91" d="M868.816,372.695c-4.506,1.136-9.08-1.596-10.217-6.102l-17.813-70.649
				c-2.703,1.96-4.09,5.431-3.223,8.867l18.016,71.455c1.137,4.506,5.71,7.238,10.217,6.101c4.505-1.135,7.237-5.709,6.101-10.215
				l-0.204-0.806C870.853,371.956,869.887,372.424,868.816,372.695z"/>
			<path fill="#E58C91" d="M845.772,296.818c0.202,0.804-0.284,1.62-1.088,1.822l0,0c-0.803,0.202-1.618-0.285-1.821-1.088
				l-1.852-7.345c-0.203-0.804,0.284-1.62,1.088-1.822l0,0c0.803-0.203,1.619,0.284,1.821,1.088L845.772,296.818z"/>
			<g opacity="0.4">
				<path opacity="0.6" fill="#E58C91" d="M850.17,304.156c0.107,0.427-0.15,0.861-0.578,0.968l0,0
					c-0.427,0.107-0.86-0.151-0.968-0.578l-0.722-2.859c-0.106-0.427,0.151-0.86,0.578-0.968l0,0
					c0.428-0.107,0.86,0.151,0.968,0.579L850.17,304.156z"/>
				<path opacity="0.6" fill="#E58C91" d="M850.918,320.818c0.098,0.384-0.136,0.774-0.521,0.871l0,0
					c-0.384,0.097-0.773-0.136-0.87-0.521l-0.701-2.782c-0.098-0.385,0.136-0.774,0.521-0.871l0,0
					c0.383-0.097,0.772,0.136,0.87,0.521L850.918,320.818z"/>
				<path opacity="0.6" fill="#E58C91" d="M857.895,329.58c0.087,0.341-0.12,0.688-0.462,0.774l0,0
					c-0.341,0.086-0.688-0.121-0.773-0.462l-0.547-2.165c-0.085-0.341,0.122-0.688,0.462-0.773l0,0
					c0.343-0.086,0.689,0.121,0.775,0.461L857.895,329.58z"/>
				<path opacity="0.6" fill="#E58C91" d="M856.965,341.208c0.1,0.401-0.143,0.809-0.544,0.91l0,0
					c-0.401,0.102-0.81-0.142-0.911-0.543l-0.595-2.367c-0.103-0.401,0.14-0.81,0.542-0.911l0,0c0.401-0.101,0.809,0.143,0.91,0.544
					L856.965,341.208z"/>
				<path opacity="0.6" fill="#E58C91" d="M861.238,348.055c0.108,0.427-0.151,0.86-0.577,0.967l0,0
					c-0.427,0.108-0.86-0.151-0.968-0.578l-0.234-0.927c-0.107-0.427,0.15-0.86,0.578-0.968l0,0
					c0.427-0.107,0.859,0.151,0.967,0.578L861.238,348.055z"/>
				<path opacity="0.6" fill="#E58C91" d="M862.414,360.867c0.092,0.364-0.128,0.732-0.491,0.823l0,0
					c-0.363,0.092-0.731-0.128-0.823-0.491l-0.623-2.472c-0.091-0.363,0.129-0.731,0.491-0.823l0,0
					c0.363-0.092,0.731,0.128,0.823,0.491L862.414,360.867z"/>
				<path opacity="0.6" fill="#E58C91" d="M867.741,366.347c0.081,0.32-0.113,0.646-0.434,0.726l0,0
					c-0.319,0.081-0.646-0.113-0.727-0.434l-0.097-0.386c-0.081-0.32,0.113-0.645,0.434-0.726l0,0
					c0.321-0.081,0.646,0.114,0.727,0.434L867.741,366.347z"/>
				<path opacity="0.6" fill="#E58C91" d="M844.518,298.365c0.095,0.376-0.134,0.758-0.511,0.853l0,0
					c-0.375,0.095-0.758-0.133-0.853-0.509l-0.118-0.475c-0.096-0.376,0.133-0.758,0.509-0.853l0,0
					c0.377-0.095,0.759,0.133,0.854,0.51L844.518,298.365z"/>
			</g>
		</g>
		<g>
			<path fill="#E58C91" d="M922.077,390.397c-0.392,4.63-4.464,8.066-9.093,7.674l0,0c-4.631-0.392-8.066-4.463-7.676-9.094
				l6.217-73.428c0.391-4.631,4.463-8.066,9.095-7.674l0,0c4.63,0.392,8.065,4.463,7.673,9.093L922.077,390.397z"/>
			<path opacity="0.6" fill="#E58C91" d="M918.987,389.908c-4.631-0.392-8.066-4.463-7.675-9.093l6.146-72.601
				c-3.193,0.974-5.634,3.804-5.933,7.335l-6.217,73.428c-0.391,4.631,3.045,8.702,7.676,9.094c4.629,0.393,8.701-3.043,9.093-7.674
				l0.069-0.828C921.152,389.873,920.088,390.001,918.987,389.908z"/>
			<path fill="#E58C91" d="M921.889,310.663c-0.071,0.826-0.796,1.439-1.622,1.369l0,0c-0.825-0.07-1.438-0.796-1.368-1.622
				l0.64-7.548c0.069-0.827,0.795-1.439,1.621-1.369l0,0c0.825,0.069,1.438,0.795,1.368,1.622L921.889,310.663z"/>
			<g opacity="0.4">
				<path opacity="0.6" fill="#E58C91" d="M923.658,319.032c-0.037,0.439-0.423,0.764-0.862,0.728l0,0
					c-0.438-0.037-0.763-0.423-0.726-0.862l0.247-2.938c0.038-0.438,0.424-0.764,0.862-0.727l0,0
					c0.439,0.037,0.764,0.423,0.727,0.862L923.658,319.032z"/>
				<path opacity="0.6" fill="#E58C91" d="M918.943,335.031c-0.032,0.395-0.38,0.688-0.774,0.654l0,0
					c-0.396-0.033-0.688-0.38-0.654-0.775l0.242-2.859c0.033-0.396,0.381-0.688,0.775-0.655l0,0c0.395,0.033,0.688,0.38,0.653,0.775
					L918.943,335.031z"/>
				<path opacity="0.6" fill="#E58C91" d="M922.689,345.586c-0.029,0.351-0.337,0.611-0.689,0.581l0,0
					c-0.35-0.029-0.61-0.337-0.581-0.688l0.188-2.225c0.03-0.35,0.34-0.611,0.688-0.581l0,0c0.352,0.03,0.612,0.338,0.582,0.688
					L922.689,345.586z"/>
				<path opacity="0.6" fill="#E58C91" d="M918.026,356.279c-0.035,0.412-0.397,0.718-0.811,0.683l0,0
					c-0.412-0.035-0.719-0.397-0.686-0.81l0.208-2.431c0.035-0.413,0.396-0.72,0.81-0.685l0,0c0.413,0.035,0.718,0.398,0.685,0.811
					L918.026,356.279z"/>
				<path opacity="0.6" fill="#E58C91" d="M919.84,364.144c-0.037,0.438-0.423,0.764-0.861,0.727l0,0
					c-0.438-0.037-0.765-0.422-0.727-0.861l0.08-0.953c0.037-0.439,0.423-0.764,0.862-0.727l0,0
					c0.438,0.037,0.763,0.422,0.725,0.861L919.84,364.144z"/>
				<path opacity="0.6" fill="#E58C91" d="M916.782,376.642c-0.032,0.374-0.36,0.65-0.732,0.618l0,0
					c-0.373-0.031-0.649-0.359-0.618-0.732l0.215-2.541c0.031-0.373,0.359-0.65,0.732-0.619l0,0
					c0.373,0.032,0.649,0.359,0.618,0.732L916.782,376.642z"/>
				<path opacity="0.6" fill="#E58C91" d="M920.036,383.556c-0.027,0.33-0.316,0.574-0.646,0.545l0,0
					c-0.328-0.027-0.573-0.317-0.546-0.646l0.034-0.396c0.027-0.329,0.317-0.573,0.647-0.545l0,0
					c0.329,0.028,0.572,0.317,0.545,0.646L920.036,383.556z"/>
				<path opacity="0.6" fill="#E58C91" d="M920.198,311.717c-0.033,0.386-0.373,0.673-0.76,0.64l0,0
					c-0.387-0.033-0.674-0.373-0.642-0.759l0.043-0.488c0.031-0.386,0.372-0.673,0.76-0.641l0,0
					c0.387,0.033,0.673,0.373,0.641,0.759L920.198,311.717z"/>
			</g>
		</g>
		<g>
			<path fill="#E58C91" d="M944.203,378.303c-2.145,4.123-7.226,5.725-11.347,3.581l0,0c-4.124-2.145-5.727-7.226-3.581-11.349
				l34.018-65.37c2.144-4.123,7.224-5.725,11.347-3.58l0,0c4.123,2.145,5.726,7.225,3.58,11.348L944.203,378.303z"/>
			<path opacity="0.6" fill="#E58C91" d="M941.54,376.662c-4.122-2.145-5.724-7.226-3.579-11.348l33.632-64.633
				c-3.322-0.332-6.665,1.341-8.3,4.484l-34.018,65.37c-2.146,4.123-0.543,9.204,3.581,11.349c4.121,2.144,9.202,0.542,11.347-3.581
				l0.384-0.737C943.553,377.463,942.52,377.171,941.54,376.662z"/>
			<path fill="#E58C91" d="M974.738,304.647c-0.383,0.735-1.288,1.021-2.022,0.638l0,0c-0.736-0.382-1.021-1.288-0.64-2.023
				l3.497-6.721c0.383-0.735,1.289-1.021,2.023-0.638l0,0c0.735,0.382,1.021,1.288,0.639,2.024L974.738,304.647z"/>
			<g opacity="0.4">
				<path opacity="0.6" fill="#E58C91" d="M973.147,313.053c-0.203,0.39-0.685,0.542-1.074,0.339l0,0
					c-0.391-0.204-0.543-0.685-0.341-1.075l1.363-2.615c0.202-0.391,0.684-0.543,1.074-0.34l0,0c0.391,0.204,0.542,0.686,0.34,1.076
					L973.147,313.053z"/>
				<path opacity="0.6" fill="#E58C91" d="M962.636,326.001c-0.184,0.352-0.615,0.488-0.967,0.306l0,0
					c-0.353-0.184-0.488-0.616-0.306-0.967l1.324-2.546c0.184-0.352,0.616-0.488,0.968-0.305l0,0
					c0.352,0.183,0.487,0.615,0.306,0.967L962.636,326.001z"/>
				<path opacity="0.6" fill="#E58C91" d="M962.027,337.186c-0.162,0.312-0.547,0.434-0.859,0.271l0,0
					c-0.313-0.163-0.435-0.547-0.271-0.859l1.03-1.981c0.162-0.312,0.547-0.433,0.859-0.27l0,0c0.313,0.162,0.433,0.547,0.272,0.86
					L962.027,337.186z"/>
				<path opacity="0.6" fill="#E58C91" d="M953.605,345.256c-0.191,0.368-0.645,0.51-1.012,0.319l0,0
					c-0.367-0.192-0.51-0.644-0.318-1.011l1.127-2.165c0.19-0.368,0.644-0.511,1.011-0.319l0,0c0.367,0.191,0.51,0.644,0.318,1.011
					L953.605,345.256z"/>
				<path opacity="0.6" fill="#E58C91" d="M952.25,353.212c-0.204,0.391-0.685,0.543-1.074,0.341l0,0
					c-0.391-0.204-0.543-0.685-0.339-1.075l0.44-0.849c0.204-0.391,0.685-0.542,1.076-0.338l0,0
					c0.389,0.202,0.541,0.684,0.337,1.073L952.25,353.212z"/>
				<path opacity="0.6" fill="#E58C91" d="M944.615,363.57c-0.174,0.332-0.582,0.461-0.915,0.289l0,0
					c-0.332-0.172-0.461-0.583-0.287-0.915l1.176-2.262c0.173-0.332,0.582-0.461,0.914-0.288l0,0
					c0.333,0.173,0.462,0.583,0.289,0.914L944.615,363.57z"/>
				<path opacity="0.6" fill="#E58C91" d="M944.954,371.205c-0.151,0.293-0.513,0.407-0.806,0.254l0,0
					c-0.292-0.152-0.408-0.513-0.254-0.807l0.183-0.353c0.153-0.293,0.514-0.407,0.807-0.254l0,0
					c0.294,0.152,0.408,0.513,0.255,0.807L944.954,371.205z"/>
				<path opacity="0.6" fill="#E58C91" d="M972.771,304.968c-0.179,0.345-0.603,0.479-0.948,0.299l0,0
					c-0.343-0.179-0.477-0.603-0.298-0.947l0.227-0.435c0.178-0.343,0.603-0.478,0.948-0.299l0,0
					c0.344,0.179,0.478,0.604,0.299,0.948L972.771,304.968z"/>
			</g>
		</g>
		<path fill="#D8EDE1" stroke="#8AA9D8" stroke-miterlimit="10" d="M904.919,530.299c0,0-11.71-98.447,68.159-123.444
			C973.078,406.855,916.391,460.739,904.919,530.299z"/>
		<path fill="#D8EDE1" stroke="#8AA9D8" stroke-miterlimit="10" d="M900.857,550.187c0,0-11.354-85.159-74.382-108.994
			C826.476,441.193,863.768,487.015,900.857,550.187z"/>
		<path fill="#D8EDE1" stroke="#8AA9D8" stroke-miterlimit="10" d="M904.316,563.652c0,0,1.82-79.45,98.226-94.372
			C1002.542,469.28,928.686,508.446,904.316,563.652z"/>
		<path fill="#BCE1CC" stroke="#8AA9D8" stroke-miterlimit="10" d="M900.857,575.718c0,0-50.021-110.66-45.966-191.76
			c0,0,41.294,163.119,54.425,191.76H900.857z"/>
		<path fill="#BCE1CC" stroke="#8AA9D8" stroke-miterlimit="10" d="M881.939,571.358c0,0-13.492-70.656-71.492-102.078
			c0,0,64.82,17.797,90.41,106.438C900.857,575.718,889.432,578.858,881.939,571.358z"/>
		<path fill="#BCE1CC" stroke="#8AA9D8" stroke-miterlimit="10" d="M909.316,566.858c0,0-7.018-75.893,75.057-155.196
			c0,0-49.406,67.177-64.916,157.687C919.457,569.349,911.029,571.377,909.316,566.858z"/>
		<path fill="#D8EDE1" stroke="#8AA9D8" stroke-miterlimit="10" d="M905.278,575.718c0,0,4.358-60.962,94.764-81.911
			c0,0-63.063,24.749-79.329,80.4C920.713,574.207,917.609,578.077,905.278,575.718z"/>
		<path fill="#A4D7BA" stroke="#8AA9D8" stroke-miterlimit="10" d="M864.114,574.207c0,0-13.667-94.181-48.667-129.765
			c0,0,50.5,28.765,59.5,129.765C874.947,574.207,873.781,575.556,864.114,574.207z"/>
		<path fill="#A4D7BA" stroke="#8AA9D8" stroke-miterlimit="10" d="M933.947,574.207c0,0,26.5-96.838,75-120.343
			c0,0-52.834,54.192-58.167,120.343C950.78,574.207,941.947,576.556,933.947,574.207z"/>
	</g>
	<g>
		<path fill="#D8EDE1" stroke="#8AA9D8" stroke-miterlimit="10" d="M724.549,579.341c0,0-23.127-95.518,20.235-130.729
			C744.784,448.611,723.412,527.72,724.549,579.341z"/>
		<g>
			<path fill="#89CB99" d="M727.61,648.55c-1.006,0-1.824-0.809-1.837-1.816c-1.127-100.646,42.54-189.015,42.98-189.896
				c0.454-0.906,1.557-1.273,2.464-0.819c0.907,0.455,1.273,1.558,0.818,2.464c-0.436,0.873-43.707,88.481-42.59,188.21
				c0.011,1.015-0.802,1.845-1.815,1.857C727.624,648.55,727.617,648.55,727.61,648.55z"/>
		</g>
		<g>
			<path fill="#89CB99" d="M734.253,648.55c-0.938,0-1.739-0.717-1.826-1.67c-9.099-99.92-42.427-184.918-42.764-185.766
				c-0.372-0.943,0.088-2.01,1.03-2.383c0.941-0.373,2.01,0.086,2.385,1.03c0.337,0.852,33.858,86.318,43.006,186.787
				c0.092,1.009-0.652,1.902-1.663,1.995C734.365,648.547,734.31,648.55,734.253,648.55z"/>
		</g>
		<g>
			<path fill="#89CB99" d="M731.013,648.55c-1.009,0-1.829-0.812-1.837-1.821c-0.559-67.748-31.823-119.169-32.14-119.68
				c-0.532-0.864-0.265-1.994,0.599-2.528c0.863-0.529,1.995-0.265,2.526,0.598c0.322,0.521,32.121,52.818,32.688,121.579
				c0.008,1.015-0.807,1.844-1.82,1.853C731.021,648.55,731.017,648.55,731.013,648.55z"/>
		</g>
		<g>
			<path fill="#89CB99" d="M734.258,636.509c-0.059,0-0.118-0.002-0.178-0.008c-1.009-0.098-1.75-0.994-1.652-2.003
				c6.085-63.563,58.736-104.865,59.269-105.275c0.799-0.619,1.954-0.472,2.575,0.332c0.619,0.803,0.471,1.955-0.332,2.575
				c-0.519,0.401-51.926,40.772-57.856,102.718C735.993,635.798,735.192,636.509,734.258,636.509z"/>
		</g>
		<g>
			<path fill="#89CB99" d="M737.248,648.55c-0.896,0-1.681-0.656-1.815-1.569c-9.568-65.159,4.612-160.782,4.757-161.741
				c0.152-1.003,1.08-1.696,2.09-1.542c1.003,0.15,1.692,1.086,1.542,2.089c-0.144,0.953-14.244,96.045-4.754,160.661
				c0.146,1.002-0.548,1.935-1.551,2.083C737.427,648.544,737.336,648.55,737.248,648.55z"/>
		</g>
		<g>
			<path fill="#E58C91" d="M707.161,526.354c1.935,3.805,0.418,8.458-3.389,10.394l0,0c-3.806,1.935-8.458,0.418-10.394-3.388
				l-30.68-60.351c-1.934-3.807-0.418-8.459,3.388-10.395l0,0c3.806-1.934,8.459-0.418,10.394,3.388L707.161,526.354z"/>
			<path opacity="0.6" fill="#E58C91" d="M704.511,527.468c-3.806,1.935-8.459,0.418-10.394-3.388l-30.334-59.67
				c-2.024,2.306-2.559,5.697-1.084,8.6l30.68,60.351c1.936,3.806,6.588,5.322,10.394,3.388c3.807-1.936,5.323-6.589,3.389-10.394
				l-0.348-0.681C706.186,526.391,705.415,527.009,704.511,527.468z"/>
			<path fill="#E58C91" d="M668.428,464.177c0.345,0.68,0.074,1.509-0.604,1.854l0,0c-0.679,0.346-1.508,0.075-1.854-0.604
				l-3.155-6.204c-0.344-0.679-0.074-1.509,0.605-1.854l0,0c0.677-0.345,1.508-0.075,1.853,0.605L668.428,464.177z"/>
			<g opacity="0.4">
				<path opacity="0.6" fill="#E58C91" d="M673.86,469.857c0.183,0.36,0.039,0.802-0.322,0.984l0,0
					c-0.359,0.184-0.802,0.039-0.985-0.321l-1.227-2.415c-0.183-0.36-0.04-0.801,0.32-0.985l0,0
					c0.362-0.183,0.803-0.039,0.986,0.322L673.86,469.857z"/>
				<path opacity="0.6" fill="#E58C91" d="M677.922,484.632c0.165,0.325,0.035,0.722-0.29,0.886l0,0
					c-0.324,0.166-0.721,0.036-0.885-0.289l-1.195-2.35c-0.166-0.324-0.036-0.721,0.288-0.885l0,0
					c0.324-0.166,0.722-0.037,0.888,0.288L677.922,484.632z"/>
				<path opacity="0.6" fill="#E58C91" d="M685.954,491.063c0.146,0.287,0.032,0.64-0.257,0.788l0,0
					c-0.288,0.146-0.64,0.031-0.787-0.258l-0.929-1.829c-0.146-0.288-0.032-0.641,0.257-0.787l0,0
					c0.289-0.147,0.639-0.031,0.787,0.256L685.954,491.063z"/>
				<path opacity="0.6" fill="#E58C91" d="M687.487,501.67c0.171,0.339,0.035,0.754-0.304,0.926l0,0
					c-0.339,0.172-0.753,0.037-0.926-0.301l-1.016-1.999c-0.173-0.34-0.039-0.755,0.302-0.927l0,0
					c0.337-0.172,0.753-0.037,0.925,0.301L687.487,501.67z"/>
				<path opacity="0.6" fill="#E58C91" d="M692.708,506.935c0.183,0.36,0.041,0.8-0.321,0.984l0,0
					c-0.358,0.184-0.8,0.04-0.984-0.321l-0.397-0.783c-0.184-0.361-0.04-0.803,0.32-0.984l0,0c0.361-0.184,0.802-0.039,0.983,0.32
					L692.708,506.935z"/>
				<path opacity="0.6" fill="#E58C91" d="M696.369,518.175c0.156,0.306,0.032,0.682-0.272,0.837l0,0
					c-0.307,0.156-0.682,0.033-0.837-0.273l-1.063-2.088c-0.156-0.306-0.034-0.681,0.273-0.836l0,0
					c0.306-0.157,0.682-0.034,0.838,0.272L696.369,518.175z"/>
				<path opacity="0.6" fill="#E58C91" d="M702.256,522c0.138,0.27,0.03,0.601-0.24,0.738l0,0c-0.271,0.137-0.602,0.029-0.738-0.24
					l-0.166-0.327c-0.139-0.271-0.03-0.601,0.24-0.738l0,0c0.271-0.138,0.601-0.03,0.74,0.241L702.256,522z"/>
				<path opacity="0.6" fill="#E58C91" d="M667.617,465.819c0.162,0.317,0.035,0.707-0.283,0.868l0,0
					c-0.318,0.161-0.707,0.035-0.869-0.283l-0.203-0.401c-0.162-0.317-0.034-0.707,0.282-0.868l0,0
					c0.318-0.162,0.706-0.035,0.868,0.283L667.617,465.819z"/>
			</g>
		</g>
		<g>
			<path fill="#E58C91" d="M795.288,537.214c-2.742,2.696-7.154,2.658-9.849-0.087l0,0c-2.697-2.742-2.658-7.152,0.086-9.848
				l43.508-42.756c2.742-2.698,7.151-2.658,9.849,0.084l0,0c2.696,2.744,2.658,7.154-0.086,9.85L795.288,537.214z"/>
			<path opacity="0.6" fill="#E58C91" d="M793.61,535.239c-1.094-1.114-1.737-2.502-1.931-3.938
				c-0.286-2.102,0.388-4.309,2.018-5.909l43.018-42.274c-2.532-1.111-5.591-0.65-7.682,1.406l-43.508,42.756
				c-2.744,2.695-2.783,7.105-0.086,9.848c2.694,2.745,7.106,2.783,9.849,0.087l0.49-0.482
				C794.991,536.386,794.252,535.892,793.61,535.239z"/>
			<path fill="#E58C91" d="M838.175,487.044c-0.49,0.481-1.276,0.475-1.755-0.014l0,0c-0.482-0.49-0.476-1.277,0.014-1.759
				l4.474-4.395c0.488-0.481,1.275-0.474,1.756,0.016l0,0c0.48,0.49,0.475,1.276-0.016,1.757L838.175,487.044z"/>
			<g opacity="0.4">
				<path opacity="0.6" fill="#E58C91" d="M834.772,493.254c-0.261,0.256-0.679,0.252-0.935-0.008l0,0
					c-0.254-0.26-0.252-0.678,0.01-0.934l1.74-1.71c0.259-0.256,0.678-0.252,0.934,0.008l0,0c0.255,0.26,0.25,0.678-0.009,0.934
					L834.772,493.254z"/>
				<path opacity="0.6" fill="#E58C91" d="M823.182,500.758c-0.233,0.23-0.607,0.227-0.839-0.008l0,0
					c-0.229-0.234-0.226-0.608,0.008-0.84l1.693-1.664c0.233-0.231,0.61-0.227,0.841,0.008l0,0c0.229,0.233,0.227,0.609-0.009,0.84
					L823.182,500.758z"/>
				<path opacity="0.6" fill="#E58C91" d="M819.844,509.406c-0.209,0.205-0.543,0.201-0.749-0.008l0,0
					c-0.204-0.208-0.2-0.541,0.008-0.744l1.316-1.295c0.21-0.205,0.543-0.202,0.747,0.005l0,0c0.205,0.209,0.201,0.542-0.006,0.747
					L819.844,509.406z"/>
				<path opacity="0.6" fill="#E58C91" d="M811.148,513.604c-0.247,0.24-0.639,0.236-0.879-0.009l0,0
					c-0.241-0.244-0.237-0.637,0.007-0.875l1.44-1.418c0.245-0.24,0.64-0.236,0.878,0.008l0,0c0.241,0.244,0.237,0.639-0.007,0.879
					L811.148,513.604z"/>
				<path opacity="0.6" fill="#E58C91" d="M808.044,519.521c-0.261,0.256-0.678,0.251-0.933-0.008l0,0
					c-0.256-0.26-0.253-0.678,0.007-0.933l0.565-0.557c0.26-0.255,0.678-0.251,0.933,0.01l0,0c0.257,0.259,0.252,0.676-0.009,0.932
					L808.044,519.521z"/>
				<path opacity="0.6" fill="#E58C91" d="M799.383,525.72c-0.222,0.217-0.577,0.215-0.794-0.006l0,0
					c-0.217-0.222-0.215-0.577,0.008-0.794l1.505-1.479c0.221-0.218,0.575-0.215,0.793,0.006l0,0
					c0.218,0.223,0.213,0.576-0.006,0.794L799.383,525.72z"/>
				<path opacity="0.6" fill="#E58C91" d="M797.697,531.816c-0.194,0.192-0.509,0.189-0.701-0.005l0,0
					c-0.191-0.194-0.188-0.509,0.006-0.699l0.234-0.231c0.197-0.192,0.51-0.188,0.701,0.005l0,0
					c0.192,0.195,0.189,0.509-0.006,0.702L797.697,531.816z"/>
				<path opacity="0.6" fill="#E58C91" d="M836.545,486.794c-0.229,0.226-0.598,0.221-0.822-0.008l0,0
					c-0.225-0.229-0.222-0.596,0.005-0.822l0.292-0.283c0.227-0.227,0.597-0.221,0.82,0.005l0,0c0.226,0.23,0.223,0.599-0.006,0.824
					L836.545,486.794z"/>
			</g>
		</g>
		<g>
			<path fill="#E58C91" d="M703.588,465.544c1.044,4.14-1.466,8.342-5.604,9.385l0,0c-4.141,1.044-8.344-1.465-9.388-5.605
				l-16.551-65.647c-1.045-4.14,1.465-8.342,5.605-9.385l0,0c4.139-1.044,8.342,1.465,9.385,5.604L703.588,465.544z"/>
			<path opacity="0.6" fill="#E58C91" d="M700.757,466.043c-4.14,1.043-8.342-1.466-9.386-5.605l-16.365-64.907
				c-2.483,1.801-3.757,4.99-2.96,8.146l16.551,65.647c1.044,4.14,5.247,6.65,9.388,5.605c4.138-1.043,6.647-5.245,5.604-9.385
				l-0.188-0.74C702.628,465.364,701.741,465.794,700.757,466.043z"/>
			<path fill="#E58C91" d="M679.587,396.333c0.185,0.739-0.261,1.488-1,1.674l0,0c-0.738,0.186-1.487-0.262-1.674-1l-1.701-6.748
				c-0.187-0.739,0.262-1.489,1-1.674l0,0c0.737-0.187,1.487,0.261,1.673,0.999L679.587,396.333z"/>
			<g opacity="0.4">
				<path opacity="0.6" fill="#E58C91" d="M683.627,403.075c0.098,0.393-0.139,0.791-0.531,0.89l0,0
					c-0.393,0.099-0.791-0.139-0.89-0.531l-0.663-2.627c-0.098-0.392,0.139-0.791,0.531-0.889l0,0
					c0.393-0.099,0.79,0.139,0.89,0.531L683.627,403.075z"/>
				<path opacity="0.6" fill="#E58C91" d="M684.314,418.383c0.089,0.353-0.125,0.711-0.479,0.8l0,0
					c-0.353,0.089-0.711-0.125-0.8-0.478l-0.644-2.556c-0.089-0.354,0.125-0.711,0.479-0.8l0,0c0.352-0.089,0.71,0.125,0.799,0.478
					L684.314,418.383z"/>
				<path opacity="0.6" fill="#E58C91" d="M690.724,426.433c0.08,0.313-0.11,0.632-0.425,0.711l0,0
					c-0.313,0.079-0.633-0.111-0.711-0.424l-0.501-1.989c-0.079-0.313,0.111-0.633,0.423-0.711l0,0
					c0.315-0.08,0.634,0.11,0.714,0.424L690.724,426.433z"/>
				<path opacity="0.6" fill="#E58C91" d="M689.869,437.116c0.093,0.369-0.13,0.743-0.5,0.835l0,0
					c-0.367,0.093-0.743-0.13-0.837-0.499l-0.546-2.174c-0.095-0.369,0.128-0.745,0.498-0.837l0,0
					c0.368-0.092,0.743,0.131,0.836,0.5L689.869,437.116z"/>
				<path opacity="0.6" fill="#E58C91" d="M693.795,443.406c0.1,0.393-0.139,0.791-0.529,0.888l0,0c-0.393,0.1-0.79-0.138-0.89-0.53
					l-0.215-0.852c-0.1-0.392,0.139-0.791,0.53-0.889l0,0c0.392-0.099,0.79,0.139,0.889,0.531L693.795,443.406z"/>
				<path opacity="0.6" fill="#E58C91" d="M694.876,455.177c0.085,0.334-0.117,0.672-0.452,0.756l0,0
					c-0.334,0.084-0.672-0.118-0.756-0.451l-0.572-2.271c-0.084-0.334,0.118-0.672,0.45-0.756l0,0
					c0.335-0.084,0.673,0.118,0.757,0.451L694.876,455.177z"/>
				<path opacity="0.6" fill="#E58C91" d="M699.77,460.211c0.074,0.294-0.104,0.593-0.398,0.667l0,0
					c-0.294,0.074-0.592-0.104-0.668-0.398l-0.089-0.355c-0.073-0.293,0.104-0.592,0.398-0.667l0,0
					c0.296-0.074,0.594,0.105,0.668,0.399L699.77,460.211z"/>
				<path opacity="0.6" fill="#E58C91" d="M678.433,397.754c0.088,0.345-0.123,0.696-0.469,0.783l0,0
					c-0.344,0.087-0.696-0.122-0.783-0.468l-0.109-0.437c-0.088-0.345,0.122-0.696,0.467-0.783l0,0
					c0.347-0.088,0.698,0.123,0.785,0.468L678.433,397.754z"/>
			</g>
		</g>
		<g>
			<path fill="#E58C91" d="M749.689,482.307c-0.359,4.254-4.102,7.411-8.354,7.049l0,0c-4.255-0.358-7.412-4.1-7.052-8.354
				l5.711-67.459c0.358-4.255,4.1-7.411,8.355-7.051l0,0c4.253,0.36,7.409,4.1,7.05,8.354L749.689,482.307z"/>
			<path opacity="0.6" fill="#E58C91" d="M746.851,481.857c-4.255-0.36-7.411-4.101-7.051-8.354l5.646-66.7
				c-2.935,0.895-5.177,3.495-5.451,6.74l-5.711,67.459c-0.36,4.255,2.797,7.996,7.052,8.354c4.252,0.361,7.994-2.795,8.354-7.049
				l0.064-0.761C748.839,481.825,747.861,481.942,746.851,481.857z"/>
			<path fill="#E58C91" d="M749.517,409.053c-0.066,0.759-0.732,1.322-1.491,1.257l0,0c-0.758-0.063-1.319-0.731-1.256-1.49
				l0.587-6.934c0.064-0.759,0.729-1.322,1.489-1.258l0,0c0.758,0.064,1.322,0.731,1.258,1.49L749.517,409.053z"/>
			<g opacity="0.4">
				<path opacity="0.6" fill="#E58C91" d="M751.142,416.742c-0.034,0.403-0.388,0.702-0.792,0.668l0,0
					c-0.402-0.034-0.701-0.389-0.668-0.792l0.229-2.7c0.035-0.402,0.389-0.701,0.792-0.667l0,0c0.403,0.034,0.702,0.389,0.667,0.792
					L751.142,416.742z"/>
				<path opacity="0.6" fill="#E58C91" d="M746.81,431.441c-0.028,0.362-0.349,0.632-0.711,0.601l0,0
					c-0.363-0.031-0.633-0.35-0.602-0.712l0.223-2.627c0.031-0.363,0.35-0.632,0.712-0.602l0,0c0.363,0.031,0.633,0.35,0.601,0.712
					L746.81,431.441z"/>
				<path opacity="0.6" fill="#E58C91" d="M750.252,441.138c-0.026,0.322-0.311,0.561-0.634,0.534l0,0
					c-0.32-0.026-0.561-0.31-0.533-0.632l0.174-2.044c0.026-0.321,0.312-0.561,0.632-0.534l0,0c0.322,0.028,0.562,0.311,0.534,0.632
					L750.252,441.138z"/>
				<path opacity="0.6" fill="#E58C91" d="M745.968,450.961c-0.032,0.378-0.365,0.66-0.744,0.627l0,0
					c-0.379-0.032-0.662-0.365-0.631-0.744l0.191-2.233c0.032-0.379,0.364-0.662,0.744-0.629l0,0
					c0.379,0.032,0.659,0.365,0.629,0.744L745.968,450.961z"/>
				<path opacity="0.6" fill="#E58C91" d="M747.633,458.187c-0.033,0.403-0.389,0.702-0.791,0.668l0,0
					c-0.402-0.034-0.702-0.388-0.667-0.792l0.075-0.875c0.033-0.404,0.387-0.703,0.791-0.668l0,0
					c0.402,0.034,0.699,0.388,0.665,0.791L747.633,458.187z"/>
				<path opacity="0.6" fill="#E58C91" d="M744.824,469.669c-0.028,0.343-0.33,0.597-0.672,0.568l0,0
					c-0.343-0.028-0.598-0.33-0.569-0.672l0.199-2.334c0.028-0.343,0.329-0.597,0.671-0.568l0,0c0.344,0.029,0.599,0.33,0.569,0.672
					L744.824,469.669z"/>
				<path opacity="0.6" fill="#E58C91" d="M747.814,476.021c-0.025,0.304-0.291,0.528-0.595,0.502l0,0
					c-0.301-0.025-0.526-0.291-0.501-0.594l0.031-0.364c0.025-0.302,0.292-0.526,0.595-0.5l0,0c0.303,0.025,0.525,0.291,0.501,0.594
					L747.814,476.021z"/>
				<path opacity="0.6" fill="#E58C91" d="M747.963,410.021c-0.03,0.355-0.343,0.619-0.697,0.588l0,0
					c-0.355-0.029-0.619-0.342-0.59-0.697l0.04-0.448c0.028-0.354,0.342-0.619,0.697-0.588l0,0c0.355,0.03,0.618,0.342,0.589,0.698
					L747.963,410.021z"/>
			</g>
		</g>
		<g>
			<path fill="#E58C91" d="M770.017,471.195c-1.97,3.788-6.638,5.259-10.424,3.29l0,0c-3.789-1.971-5.262-6.639-3.29-10.427
				l31.253-60.057c1.969-3.788,6.637-5.26,10.423-3.289l0,0c3.789,1.971,5.262,6.638,3.291,10.426L770.017,471.195z"/>
			<path opacity="0.6" fill="#E58C91" d="M767.57,469.688c-3.787-1.971-5.259-6.639-3.288-10.426l30.897-59.38
				c-3.051-0.305-6.122,1.232-7.624,4.12l-31.253,60.057c-1.972,3.788-0.499,8.456,3.29,10.427c3.786,1.969,8.454,0.498,10.424-3.29
				l0.353-0.676C769.419,470.424,768.47,470.156,767.57,469.688z"/>
			<path fill="#E58C91" d="M798.07,403.526c-0.353,0.676-1.184,0.938-1.857,0.586l0,0c-0.678-0.351-0.939-1.184-0.589-1.859
				l3.213-6.174c0.353-0.676,1.185-0.938,1.858-0.586l0,0c0.677,0.352,0.939,1.183,0.588,1.86L798.07,403.526z"/>
			<g opacity="0.4">
				<path opacity="0.6" fill="#E58C91" d="M796.609,411.249c-0.187,0.357-0.629,0.498-0.988,0.311l0,0
					c-0.358-0.187-0.498-0.629-0.313-0.987l1.253-2.403c0.186-0.358,0.627-0.499,0.985-0.313l0,0
					c0.36,0.187,0.499,0.629,0.313,0.988L796.609,411.249z"/>
				<path opacity="0.6" fill="#E58C91" d="M786.951,423.146c-0.168,0.322-0.565,0.448-0.888,0.28l0,0
					c-0.324-0.168-0.448-0.566-0.282-0.888l1.218-2.34c0.168-0.323,0.566-0.448,0.89-0.28l0,0c0.322,0.168,0.446,0.565,0.28,0.888
					L786.951,423.146z"/>
				<path opacity="0.6" fill="#E58C91" d="M786.393,433.419c-0.149,0.287-0.503,0.399-0.79,0.25l0,0
					c-0.288-0.15-0.398-0.503-0.249-0.789l0.946-1.82c0.149-0.287,0.503-0.398,0.79-0.248l0,0c0.286,0.148,0.397,0.502,0.25,0.79
					L786.393,433.419z"/>
				<path opacity="0.6" fill="#E58C91" d="M778.655,440.835c-0.177,0.337-0.593,0.468-0.929,0.293l0,0
					c-0.339-0.176-0.47-0.592-0.293-0.929l1.035-1.989c0.174-0.337,0.591-0.469,0.929-0.293l0,0
					c0.337,0.175,0.468,0.592,0.292,0.929L778.655,440.835z"/>
				<path opacity="0.6" fill="#E58C91" d="M777.409,448.144c-0.187,0.36-0.628,0.5-0.986,0.313l0,0
					c-0.358-0.187-0.498-0.629-0.312-0.987l0.405-0.781c0.188-0.359,0.629-0.498,0.988-0.311l0,0
					c0.358,0.186,0.498,0.628,0.31,0.986L777.409,448.144z"/>
				<path opacity="0.6" fill="#E58C91" d="M770.396,457.66c-0.159,0.306-0.534,0.424-0.84,0.265l0,0
					c-0.307-0.158-0.425-0.535-0.265-0.84l1.081-2.078c0.158-0.305,0.534-0.424,0.839-0.265l0,0c0.306,0.159,0.424,0.536,0.266,0.84
					L770.396,457.66z"/>
				<path opacity="0.6" fill="#E58C91" d="M770.706,464.674c-0.139,0.27-0.47,0.374-0.739,0.234l0,0
					c-0.269-0.14-0.376-0.471-0.233-0.742l0.167-0.324c0.141-0.269,0.473-0.374,0.741-0.233l0,0
					c0.271,0.139,0.376,0.471,0.234,0.741L770.706,464.674z"/>
				<path opacity="0.6" fill="#E58C91" d="M796.263,403.821c-0.164,0.317-0.553,0.44-0.87,0.275l0,0
					c-0.315-0.165-0.438-0.554-0.274-0.87l0.208-0.4c0.163-0.316,0.554-0.438,0.872-0.274l0,0c0.315,0.165,0.438,0.555,0.274,0.871
					L796.263,403.821z"/>
			</g>
		</g>
		<path fill="#D8EDE1" stroke="#8AA9D8" stroke-miterlimit="10" d="M733.925,610.837c0,0-10.757-90.445,62.62-113.41
			C796.545,497.427,744.465,546.932,733.925,610.837z"/>
		<path fill="#D8EDE1" stroke="#8AA9D8" stroke-miterlimit="10" d="M730.194,629.108c0,0-10.432-78.237-68.336-100.135
			C661.858,528.974,696.119,571.071,730.194,629.108z"/>
		<path fill="#D8EDE1" stroke="#8AA9D8" stroke-miterlimit="10" d="M733.372,641.48c0,0,1.672-72.994,90.241-86.701
			C823.613,554.779,755.76,590.762,733.372,641.48z"/>
		<path fill="#BCE1CC" stroke="#8AA9D8" stroke-miterlimit="10" d="M730.194,652.565c0,0-45.956-101.667-42.229-176.175
			c0,0,37.937,149.861,50.002,176.175H730.194z"/>
		<path fill="#BCE1CC" stroke="#8AA9D8" stroke-miterlimit="10" d="M712.814,648.56c0,0-12.396-64.913-65.682-93.78
			c0,0,59.552,16.35,83.062,97.786C730.194,652.565,719.697,655.45,712.814,648.56z"/>
		<path fill="#BCE1CC" stroke="#8AA9D8" stroke-miterlimit="10" d="M737.967,644.425c0,0-6.448-69.725,68.955-142.582
			c0,0-45.391,61.718-59.64,144.87C747.282,646.713,739.539,648.577,737.967,644.425z"/>
		<path fill="#D8EDE1" stroke="#8AA9D8" stroke-miterlimit="10" d="M734.256,652.565c0,0,4.005-56.008,87.062-75.254
			c0,0-57.938,22.736-72.882,73.865C748.436,651.177,745.585,654.732,734.256,652.565z"/>
		<path fill="#A4D7BA" stroke="#8AA9D8" stroke-miterlimit="10" d="M696.438,651.177c0,0-12.556-86.526-44.712-119.218
			c0,0,46.396,26.426,54.665,119.218C706.391,651.177,705.318,652.415,696.438,651.177z"/>
		<path fill="#A4D7BA" stroke="#8AA9D8" stroke-miterlimit="10" d="M760.594,651.177c0,0,24.348-88.968,68.905-110.562
			c0,0-48.54,49.787-53.439,110.562C776.06,651.177,767.943,653.335,760.594,651.177z"/>
		<g>
			<path fill="#D8EDE1" stroke="#8AA9D8" stroke-miterlimit="10" d="M671.181,652.496c0,0,9.52-80.039-55.414-100.361
				C615.767,552.135,661.855,595.943,671.181,652.496z"/>
			<path fill="#D8EDE1" stroke="#8AA9D8" stroke-miterlimit="10" d="M700.412,631.507c0,0-9.23-69.234-60.474-88.613
				C639.938,542.894,670.257,580.147,700.412,631.507z"/>
			<path fill="#D8EDE1" stroke="#8AA9D8" stroke-miterlimit="10" d="M670.132,651.129c0,0-1.48-64.596-79.859-76.728
				C590.273,574.401,650.321,606.245,670.132,651.129z"/>
			<path fill="#BCE1CC" stroke="#8AA9D8" stroke-miterlimit="10" d="M700.412,652.265c0,0-40.668-89.969-37.371-155.903
				c0,0,33.572,132.618,44.248,155.903H700.412z"/>
			<path fill="#BCE1CC" stroke="#8AA9D8" stroke-miterlimit="10" d="M685.032,648.72c0,0-10.97-57.443-58.125-82.99
				c0,0,52.7,14.47,73.505,86.535C700.412,652.265,691.123,654.817,685.032,648.72z"/>
			<path fill="#BCE1CC" stroke="#8AA9D8" stroke-miterlimit="10" d="M666.068,653.735c0,0,5.705-61.702-61.023-126.179
				c0,0,40.169,54.617,52.778,128.203C657.823,655.76,664.675,657.41,666.068,653.735z"/>
			<path fill="#A4D7BA" stroke="#8AA9D8" stroke-miterlimit="10" d="M670.539,651.036c0,0-11.111-76.571-39.567-105.5
				c0,0,41.058,23.386,48.375,105.5C679.347,651.036,678.399,652.133,670.539,651.036z"/>
		</g>
		<g>
			<path fill="#D8EDE1" stroke="#8AA9D8" stroke-miterlimit="10" d="M803.571,655.592c0,0-9.52-80.039,55.414-100.361
				C858.985,555.23,812.897,599.039,803.571,655.592z"/>
			<path fill="#D8EDE1" stroke="#8AA9D8" stroke-miterlimit="10" d="M774.341,634.603c0,0,9.23-69.234,60.473-88.613
				C834.813,545.989,804.495,583.243,774.341,634.603z"/>
			<path fill="#D8EDE1" stroke="#8AA9D8" stroke-miterlimit="10" d="M804.62,654.225c0,0,1.48-64.596,79.859-76.728
				C884.479,577.497,824.432,609.341,804.62,654.225z"/>
			<path fill="#BCE1CC" stroke="#8AA9D8" stroke-miterlimit="10" d="M774.341,655.36c0,0,40.668-89.969,37.37-155.903
				c0,0-33.571,132.618-44.247,155.903H774.341z"/>
			<path fill="#BCE1CC" stroke="#8AA9D8" stroke-miterlimit="10" d="M789.721,651.815c0,0,10.97-57.443,58.124-82.99
				c0,0-52.699,14.47-73.504,86.535C774.341,655.36,783.63,657.913,789.721,651.815z"/>
			<path fill="#BCE1CC" stroke="#8AA9D8" stroke-miterlimit="10" d="M808.685,656.831c0,0-5.705-61.702,61.023-126.179
				c0,0-40.169,54.617-52.778,128.203C816.93,658.855,810.077,660.506,808.685,656.831z"/>
			<path fill="#A4D7BA" stroke="#8AA9D8" stroke-miterlimit="10" d="M804.214,654.132c0,0,11.111-76.571,39.566-105.5
				c0,0-41.057,23.386-48.375,105.5C795.405,654.132,796.353,655.229,804.214,654.132z"/>
		</g>
	</g>
	<path fill="#D8EDE1" stroke="#8AA9D8" stroke-miterlimit="10" d="M958.815,572.645c0,4.966-4.025,8.992-8.992,8.992h-85.939
		c-4.966,0-8.992-4.026-8.992-8.992l0,0c0-4.966,4.026-8.992,8.992-8.992h85.939C954.79,563.652,958.815,567.679,958.815,572.645
		L958.815,572.645z"/>
	<path fill="#D8EDE1" stroke="#8AA9D8" stroke-miterlimit="10" d="M986.424,578.036c0,2.114-1.714,3.828-3.829,3.828h-5.688
		c-2.114,0-3.828-1.714-3.828-3.828l0,0c0-2.115,1.714-3.829,3.828-3.829h5.688C984.71,574.207,986.424,575.921,986.424,578.036
		L986.424,578.036z"/>
	<path fill="#D8EDE1" stroke="#8AA9D8" stroke-miterlimit="10" d="M1025.947,566.501c0,1.572-1.275,2.848-2.848,2.848h-15.806
		c-1.572,0-2.848-1.275-2.848-2.848l0,0c0-1.573,1.275-2.849,2.848-2.849h15.806
		C1024.672,563.652,1025.947,564.928,1025.947,566.501L1025.947,566.501z"/>
	<path fill="#FFFFFF" d="M1040.947,583.597c0,1.082-0.877,1.959-1.959,1.959h-11.082c-1.082,0-1.959-0.877-1.959-1.959l0,0
		c0-1.083,0.877-1.96,1.959-1.96h11.082C1040.07,581.637,1040.947,582.514,1040.947,583.597L1040.947,583.597z"/>
	<path fill="#FFFFFF" d="M958.815,587.515c0,1.083-0.877,1.96-1.959,1.96h-45.58c-1.083,0-1.96-0.877-1.96-1.96l0,0
		c0-1.082,0.877-1.959,1.96-1.959h45.58C957.938,585.556,958.815,586.433,958.815,587.515L958.815,587.515z"/>
	<path fill="#D8EDE1" stroke="#8AA9D8" stroke-miterlimit="10" d="M439.029,636.313c0,1.405-1.139,2.545-2.545,2.545h-7.492
		c-1.405,0-2.545-1.14-2.545-2.545l0,0c0-1.405,1.14-2.545,2.545-2.545h7.492C437.89,633.769,439.029,634.908,439.029,636.313
		L439.029,636.313z"/>
	<path fill="#FFFFFF" d="M601.66,648.032c0,1.754-1.421,3.175-3.174,3.175H528.56c-1.753,0-3.174-1.421-3.174-3.175l0,0
		c0-1.753,1.421-3.174,3.174-3.174h69.926C600.238,644.858,601.66,646.279,601.66,648.032L601.66,648.032z"/>
	<path fill="#D8EDE1" stroke="#8AA9D8" stroke-miterlimit="10" d="M845.09,650.831c0,7.011-4.911,12.694-10.971,12.694H640.632
		c-6.059,0-10.97-5.684-10.97-12.694l0,0c0-7.012,4.912-12.695,10.97-12.695h193.487C840.179,638.136,845.09,643.819,845.09,650.831
		L845.09,650.831z"/>
	<circle fill="#F8CCDD" cx="335.375" cy="323.984" r="7.646"/>
	<circle fill="#CDEAEB" cx="619.872" cy="366.812" r="4.105"/>
	<circle fill="#CDEAEB" cx="698.695" cy="299.999" r="16.11"/>
	<circle fill="#CDEAEB" cx="1049.455" cy="403.861" r="2.992"/>
	<circle fill="#F8CCDD" cx="1033.012" cy="317.192" r="9.348"/>
	<circle fill="#F8CCDD" cx="323.754" cy="447.753" r="3.975"/>
	<circle fill="#F8CCDD" cx="605.031" cy="224.594" r="10.736"/>
	<circle fill="#F8CCDD" cx="1098.78" cy="481.075" r="6.333"/>
	<circle fill="#F8CCDD" cx="468.453" cy="260.864" r="6.006"/>
	<circle fill="#CDEAEB" cx="240.947" cy="471.461" r="8.5"/>
	<circle fill="#CDEAEB" cx="1139.577" cy="328.654" r="8.203"/>
	<circle fill="#F8CCDD" cx="798.399" cy="330.133" r="3.745"/>
	<circle fill="#F8CCDD" cx="792.93" cy="219.383" r="5.524"/>
	<circle fill="#CDEAEB" cx="1143.446" cy="534.215" r="8.334"/>
	<g>
		<path fill="#8BB7B7" d="M963.522,313.412c0,0-2.637-5.896,2.498-10.129c5.135-4.233,13.004,0,13.004,0s10.25-9.821,21.935-15.917
			c11.684-6.096,19.112-4.402,19.038-3.387c-0.073,1.016-2.443,5.734-14.636,13.366c-12.192,7.632-24.489,9.985-24.489,9.985
			s-0.911,4.983-5.991,7.666C969.801,317.677,966.051,316.091,963.522,313.412z"/>
		<circle fill="#8BB7B7" cx="963.655" cy="317.161" r="2.75"/>
		<circle fill="#8BB7B7" cx="959.888" cy="311.662" r="2.75"/>
		<path opacity="0.7" fill="#F2D4E3" d="M981.93,307.329c0,0,43.784,68.911,58.708,85.196
			c14.924,16.285,25.334,19.453,26.541,12.362c1.208-7.092-30.025-55.509-39.683-68.116c-9.656-12.607-24.771-30.804-36.074-33.324
			L981.93,307.329z"/>
		<path opacity="0.7" fill="#F2D4E3" d="M998.116,301.319c0,0,46.279,46.987,71.778,61.774c25.5,14.787,27.311,11.689,27.159,6.297
			c-0.15-5.392-26.857-35.995-44.511-52.229c-17.653-16.233-33.153-24.694-43.66-22.123
			C998.375,297.608,998.116,301.319,998.116,301.319z"/>
		<path opacity="0.7" fill="#F2D4E3" d="M979.725,303.225c0,0-41.843-70.107-49.671-90.763c-7.829-20.654-5.975-31.377,0.9-29.265
			c6.878,2.113,36.064,51.791,42.978,66.087c6.914,14.295,16.365,35.981,13.529,47.209L979.725,303.225z"/>
		<path opacity="0.7" fill="#F2D4E3" d="M992.783,292.887c0,0-21.14-62.47-22.872-91.896c-1.732-29.426,1.85-29.649,6.597-27.088
			c4.747,2.561,20.062,40.182,26.616,63.25c6.555,23.07,7.137,40.719,0.113,48.945C996.215,294.326,992.783,292.887,992.783,292.887
			z"/>
		<g>
			<g>
				<path fill="#8BB7B7" d="M979.024,334.048c-0.021,0-0.043-0.002-0.063-0.006c-0.185-0.035-0.306-0.213-0.27-0.397l1.824-9.5
					l-10.188-8.273c-0.146-0.118-0.168-0.332-0.05-0.478c0.118-0.146,0.332-0.168,0.478-0.049l10.504,8.53l-1.901,9.899
					C979.327,333.935,979.185,334.048,979.024,334.048z"/>
			</g>
			<g>
				<path fill="#8BB7B7" d="M992.393,330.432c-0.122,0-0.239-0.066-0.301-0.182l-5.733-10.934l-12.745-4.585
					c-0.177-0.063-0.269-0.258-0.205-0.435s0.258-0.269,0.435-0.205l12.995,4.675l5.855,11.167c0.088,0.167,0.022,0.372-0.144,0.458
					C992.5,330.419,992.445,330.432,992.393,330.432z"/>
			</g>
			<g>
				<path fill="#8BB7B7" d="M966.94,303.448c-0.188,0-0.339-0.152-0.339-0.339v-12.672l-8.921-3.148
					c-0.177-0.063-0.27-0.256-0.207-0.434c0.063-0.176,0.256-0.271,0.434-0.207l9.373,3.308v13.152
					C967.28,303.296,967.128,303.448,966.94,303.448z"/>
			</g>
			<g>
				<path fill="#8BB7B7" d="M964.954,306.759c-0.128,0-0.25-0.073-0.308-0.197l-5.487-11.833l-10.671-3.966
					c-0.177-0.065-0.266-0.261-0.2-0.437c0.065-0.175,0.26-0.266,0.437-0.2l10.933,4.063l5.604,12.087
					c0.079,0.17,0.005,0.372-0.164,0.451C965.051,306.749,965.002,306.759,964.954,306.759z"/>
			</g>
		</g>
		
			<ellipse transform="matrix(0.5414 0.8408 -0.8408 0.5414 705.8281 -731.6724)" fill="#8BB7B7" cx="1023.63" cy="281.189" rx="2.687" ry="4.678"/>
		
			<ellipse transform="matrix(0.5387 0.8425 -0.8425 0.5387 708.5167 -741.8055)" fill="#8BB7B7" cx="1031.622" cy="276.064" rx="2.687" ry="4.678"/>
		
			<ellipse transform="matrix(0.5384 0.8427 -0.8427 0.5384 708.2047 -750.8998)" fill="#8BB7B7" cx="1039.52" cy="270.996" rx="2.533" ry="4.412"/>
		
			<ellipse transform="matrix(0.5385 0.8426 -0.8426 0.5385 707.5871 -759.8165)" fill="#8BB7B7" cx="1047.441" cy="266.059" rx="2.533" ry="4.412"/>
		
			<ellipse transform="matrix(0.7143 0.6998 -0.6998 0.7143 483.1019 -663.3769)" fill="#8BB7B7" cx="1054.118" cy="260.061" rx="2.533" ry="4.412"/>
		
			<ellipse transform="matrix(0.7144 0.6998 -0.6998 0.7144 480.4978 -669.2423)" fill="#8BB7B7" cx="1060.013" cy="253.947" rx="2.262" ry="3.941"/>
		
			<ellipse transform="matrix(0.7143 0.6998 -0.6998 0.7143 478.0923 -674.6428)" fill="#8BB7B7" cx="1065.41" cy="248.289" rx="1.863" ry="3.244"/>
		
			<ellipse transform="matrix(0.7144 0.6997 -0.6997 0.7144 475.9875 -679.3226)" fill="#8BB7B7" cx="1070.241" cy="243.477" rx="1.508" ry="2.627"/>
		
			<ellipse transform="matrix(0.7144 0.6997 -0.6997 0.7144 474.2576 -683.3796)" fill="#8BB7B7" cx="1074.36" cy="239.339" rx="1.391" ry="2.423"/>
	</g>
	<g>
		<path fill="#8BB7B7" d="M674.959,219.661c0,0,3.648-2.073,6.707,0.984c3.058,3.057,0.811,8.41,0.811,8.41
			s6.991,6.017,11.662,13.193c4.671,7.176,4.039,12.085,3.378,12.101c-0.663,0.016-3.861-1.223-9.557-8.632
			c-5.696-7.409-7.984-15.215-7.984-15.215s-3.279-0.278-5.331-3.396C672.593,223.987,673.385,221.463,674.959,219.661z"/>
		<circle fill="#8BB7B7" cx="672.543" cy="219.981" r="1.786"/>
		<circle fill="#8BB7B7" cx="675.865" cy="217.202" r="1.787"/>
		<path opacity="0.7" fill="#BEE6F1" d="M680.041,231.186c0,0-41.835,32.613-51.437,43.28c-9.601,10.667-11.001,17.597-6.34,17.936
			c4.661,0.339,34.026-22.879,41.578-29.911c7.552-7.031,18.377-17.94,19.302-25.407L680.041,231.186z"/>
		<path opacity="0.7" fill="#BEE6F1" d="M684.938,241.279c0,0-27.502,32.859-35.475,50.272c-7.973,17.414-5.858,18.391-2.38,17.957
			c3.479-0.433,21.604-19.613,31.002-32.042c9.397-12.429,13.903-22.981,11.584-29.615
			C687.353,241.215,684.938,241.279,684.938,241.279z"/>
		<path opacity="0.7" fill="#BEE6F1" d="M682.558,229.504c0,0,42.731-31.431,55.601-37.782c12.868-6.351,19.919-5.82,18.981-1.243
			c-0.937,4.58-31.245,26.553-40.06,31.915c-8.813,5.363-22.249,12.827-29.688,11.693L682.558,229.504z"/>
		<path opacity="0.7" fill="#BEE6F1" d="M690.058,237.305c0,0,39.083-17.566,58.005-20.521c18.923-2.955,19.289-0.652,17.931,2.577
			c-1.36,3.229-24.736,15.479-39.246,21.157c-14.512,5.677-25.89,7.154-31.647,3.125
			C689.341,239.614,690.058,237.305,690.058,237.305z"/>
		<g>
			<g>
				<path fill="#8BB7B7" d="M662.58,230.974c-0.001-0.014-0.001-0.028,0-0.042c0.011-0.122,0.119-0.211,0.24-0.199l6.258,0.587
					l4.716-7.105c0.067-0.102,0.204-0.129,0.306-0.062s0.129,0.205,0.062,0.306l-4.861,7.325l-6.521-0.612
					C662.673,231.162,662.59,231.077,662.58,230.974z"/>
			</g>
			<g>
				<path fill="#8BB7B7" d="M665.752,239.393c-0.008-0.079,0.028-0.159,0.099-0.206l6.713-4.39l2.171-8.528
					c0.03-0.119,0.15-0.19,0.268-0.16c0.118,0.03,0.19,0.15,0.16,0.269l-2.214,8.696l-6.856,4.483
					c-0.102,0.067-0.239,0.038-0.306-0.064C665.767,239.462,665.756,239.427,665.752,239.393z"/>
			</g>
			<g>
				<path fill="#8BB7B7" d="M681.616,221.25c-0.011-0.122,0.078-0.229,0.199-0.24l8.195-0.791l1.479-5.965
					c0.03-0.118,0.149-0.19,0.268-0.161c0.118,0.029,0.191,0.148,0.161,0.267l-1.555,6.268l-8.506,0.82
					C681.736,221.46,681.628,221.372,681.616,221.25z"/>
			</g>
			<g>
				<path fill="#8BB7B7" d="M679.352,220.172c-0.008-0.083,0.031-0.167,0.107-0.211l7.312-4.287l1.899-7.148
					c0.032-0.118,0.152-0.188,0.27-0.156c0.117,0.031,0.188,0.151,0.156,0.27l-1.945,7.324l-7.468,4.378
					c-0.105,0.062-0.24,0.026-0.302-0.078C679.364,220.234,679.354,220.203,679.352,220.172z"/>
			</g>
		</g>
		
			<ellipse transform="matrix(-0.7849 0.6196 -0.6196 -0.7849 1407.575 24.4382)" fill="#8BB7B7" cx="699.546" cy="256.525" rx="1.746" ry="3.039"/>
		
			<ellipse transform="matrix(-0.7871 0.6169 -0.6169 -0.7871 1418.1826 33.2107)" fill="#8BB7B7" cx="703.359" cy="261.374" rx="1.746" ry="3.04"/>
		
			<ellipse transform="matrix(-0.7872 0.6168 -0.6168 -0.7872 1427.9065 39.5489)" fill="#8BB7B7" cx="707.129" cy="266.165" rx="1.646" ry="2.866"/>
		
			<ellipse transform="matrix(-0.7872 0.6168 -0.6168 -0.7872 1437.4663 45.8796)" fill="#8BB7B7" cx="710.816" cy="270.98" rx="1.646" ry="2.867"/>
		
			<ellipse transform="matrix(-0.6279 0.7783 -0.7783 -0.6279 1378.089 -109.0396)" fill="#8BB7B7" cx="715.111" cy="274.924" rx="1.646" ry="2.866"/>
		
			<ellipse transform="matrix(-0.6281 0.7782 -0.7782 -0.6281 1387.8804 -106.666)" fill="#8BB7B7" cx="719.432" cy="278.355" rx="1.47" ry="2.56"/>
		
			<ellipse transform="matrix(-0.6276 0.7785 -0.7785 -0.6276 1396.6013 -105.062)" fill="#8BB7B7" cx="723.428" cy="281.493" rx="1.21" ry="2.108"/>
		
			<ellipse transform="matrix(-0.628 0.7782 -0.7782 -0.628 1404.5719 -102.7433)" fill="#8BB7B7" cx="726.841" cy="284.317" rx="0.98" ry="1.706"/>
		
			<ellipse transform="matrix(-0.6275 0.7786 -0.7786 -0.6275 1410.9685 -101.5512)" fill="#8BB7B7" cx="729.775" cy="286.723" rx="0.903" ry="1.575"/>
	</g>
	<g>
		<path opacity="0.4" fill="#F2D4E3" d="M403.091,347.492c0,0,49.9-39.056,60.704-52.41c10.804-13.353,11.285-22.715,4.917-23.843
			c-6.37-1.129-41.328,26.736-50.101,35.365c-8.773,8.628-21.183,22.143-20.913,32.313L403.091,347.492z"/>
		<path opacity="0.4" fill="#F2D4E3" d="M393.025,334.055c0,0,30.477-41.429,37.707-64.32c7.229-22.891,4.17-24.541-0.441-24.436
			c-4.611,0.106-25.204,23.994-35.373,39.807c-10.17,15.813-14.111,29.73-9.627,39.212
			C389.772,333.8,393.025,334.055,393.025,334.055z"/>
		<path fill="#8BB7B7" d="M429.539,357.292c0,0,2.637-5.896-2.498-10.129c-5.135-4.233-13.004,0-13.004,0
			s-10.25-9.821-21.935-15.917c-11.684-6.096-19.112-4.402-19.038-3.387c0.073,1.016,2.443,5.734,14.636,13.366
			c12.192,7.632,24.489,9.985,24.489,9.985s0.911,4.983,5.991,7.666C423.26,361.557,427.01,359.971,429.539,357.292z"/>
		<circle fill="#8BB7B7" cx="429.406" cy="361.041" r="2.75"/>
		<circle fill="#8BB7B7" cx="433.173" cy="355.542" r="2.75"/>
		<path opacity="0.7" fill="#F2D4E3" d="M407.119,350.872c0,0,28.419-43.463,32.626-56.931c4.208-13.467,0.913-21.33-5.142-20.847
			c-6.057,0.483-25.766,31.349-30.062,40.451c-4.297,9.101-9.855,23.059-5.576,31.424L407.119,350.872z"/>
		<path opacity="0.7" fill="#F2D4E3" d="M392.919,341.981c0,0,10.375-41.105,7.648-61.679c-2.728-20.573-6.077-21.258-10.095-20.145
			s-12.659,25.488-15.331,40.852c-2.673,15.364-0.614,27.771,7.1,34.627C389.954,342.494,392.919,341.981,392.919,341.981z"/>
		
			<ellipse transform="matrix(-0.5414 0.8408 -0.8408 -0.5414 842.75 190.4673)" fill="#8BB7B7" cx="369.431" cy="325.069" rx="2.687" ry="4.678"/>
		
			<ellipse transform="matrix(-0.5387 0.8425 -0.8425 -0.5387 825.6921 187.765)" fill="#8BB7B7" cx="361.439" cy="319.944" rx="2.687" ry="4.678"/>
		
			<ellipse transform="matrix(-0.5384 0.8427 -0.8427 -0.5384 809.2303 186.4809)" fill="#8BB7B7" cx="353.541" cy="314.876" rx="2.533" ry="4.412"/>
		
			<ellipse transform="matrix(-0.5385 0.8426 -0.8426 -0.5385 792.8972 185.6102)" fill="#8BB7B7" cx="345.62" cy="309.938" rx="2.533" ry="4.412"/>
		
			<ellipse transform="matrix(-0.7143 0.6998 -0.6998 -0.7143 793.7608 283.8696)" fill="#8BB7B7" cx="338.943" cy="303.941" rx="2.533" ry="4.412"/>
		
			<ellipse transform="matrix(-0.7144 0.6998 -0.6998 -0.7144 779.3774 277.5181)" fill="#8BB7B7" cx="333.048" cy="297.827" rx="2.262" ry="3.941"/>
		
			<ellipse transform="matrix(-0.7143 0.6998 -0.6998 -0.7143 766.1656 271.5898)" fill="#8BB7B7" cx="327.651" cy="292.169" rx="1.863" ry="3.244"/>
		
			<ellipse transform="matrix(-0.7144 0.6997 -0.6997 -0.7144 754.5187 266.7759)" fill="#8BB7B7" cx="322.82" cy="287.357" rx="1.508" ry="2.627"/>
		
			<ellipse transform="matrix(-0.7144 0.6997 -0.6997 -0.7144 744.5613 262.5679)" fill="#8BB7B7" cx="318.701" cy="283.219" rx="1.391" ry="2.423"/>
	</g>
	<path fill="#FFFFFF" d="M1016.446,636.493c0,2.755-2.232,4.987-4.987,4.987h-16.397c-2.754,0-4.986-2.232-4.986-4.987l0,0
		c0-2.754,2.232-4.986,4.986-4.986h16.397C1014.214,631.507,1016.446,633.739,1016.446,636.493L1016.446,636.493z"/>
	<path fill="#FFFFFF" d="M948.643,618.019c0,1.191-0.966,2.157-2.157,2.157h-7.179c-1.191,0-2.157-0.966-2.157-2.157l0,0
		c0-1.191,0.966-2.158,2.157-2.158h7.179C947.677,615.86,948.643,616.827,948.643,618.019L948.643,618.019z"/>
</g>
</svg>
