<?xml version="1.0" encoding="UTF-8" standalone="no"?><!DOCTYPE svg PUBLIC "-//W3C//DTD SVG 1.1//EN" "http://www.w3.org/Graphics/SVG/1.1/DTD/svg11.dtd"><svg width="100%" height="100%" viewBox="0 0 1844 1721" version="1.1" xmlns="http://www.w3.org/2000/svg" xmlns:xlink="http://www.w3.org/1999/xlink" xml:space="preserve" xmlns:serif="http://www.serif.com/" style="fill-rule:evenodd;clip-rule:evenodd;stroke-miterlimit:2;"><g><rect x="0.634" y="0.634" width="1842.16" height="1719.12" style="fill:none;stroke:#000;stroke-width:0.57px;"/><path d="M1037.62,902.905c7.22,-6.677 9.778,-20.843 12.131,-31.445c5.195,-23.409 -12.019,-37.915 -20.038,-24.63c-1.439,2.383 -3.13,4.389 -4.321,6.599c-4.889,9.075 6.537,43.213 12.228,49.476Z" style="fill:#fadb85;"/><path d="M1030.17,638.98c10.45,0.696 11.554,0.843 15.89,-7.054c4.539,-8.267 4.924,-6.318 2.403,-15.989c-1.86,-7.137 -5.732,-27.164 -9.722,-32.692c-0.559,-0.774 -0.267,-3.514 -3.919,-1.793c-3.176,1.497 0.132,-1.076 -1.611,1.876c-4.439,7.52 -7.115,16.359 -9.021,25.066c-4.284,19.579 -4.712,13.496 2.159,24.283l3.821,6.303Z" style="fill:#fadb85;"/><path d="M896.544,823.621c11.629,0.662 29.233,-2.643 39.041,-7.177c10.116,-4.676 6.714,-1.37 12.315,-10.564c11.093,-18.208 -5.121,-21.246 -19.094,-17.965l-5.89,3.114c-5.559,4.026 1.834,-1.937 -1.595,1.279l-1.38,1.514c-8.098,9.218 -21.977,21.077 -23.397,29.799Z" style="fill:#f4d682;"/><path d="M932.22,667.727c-10.152,-3.951 -25.173,-8.765 -37.271,-7.738c0.114,5.134 6.047,11.331 8.88,14.354l4.514,5.694c4.134,6.123 16.561,14.945 19.781,15.992c5.633,1.832 16.002,0.3 19.57,-2.333c6.246,-4.609 0.91,-12.717 -1.371,-16.885c-4.407,-8.049 -5.964,-5.915 -14.103,-9.084Z" style="fill:#f4d682;"/><path d="M1176.98,820.893c-0.593,-4.57 -1.065,-4.408 -3.777,-7.845c-4.011,-5.084 -23.389,-25.653 -27.979,-27.068c-5.951,-1.834 -30.592,-4.485 -18.593,18.589c4.019,7.73 3.713,6.529 8.329,8.6l8.311,2.646c10.929,3.147 8.744,1.35 13.842,2.642c8.665,2.194 6.106,3.054 19.867,2.436Z" style="fill:#f4d682;"/><path d="M1139.62,694.757c8.998,0.004 18.031,-11.741 23.941,-18.273l3.726,-4.377c4.153,-5.235 8.44,-7.333 8.6,-13.857c-9.708,0.146 -37.206,5.828 -43.705,9.871c-3.685,2.292 -4.372,3.563 -6.351,7.743c-7.58,16.015 -3.108,18.884 13.789,18.893Z" style="fill:#f4d682;"/><path d="M1456.62,1164.58c4.835,9.136 17.213,1.817 36.549,22.451l10.382,14.618c3.808,8.102 3.346,9.831 5.957,15.043c1.794,3.579 -0.697,2.487 4.112,2.887c0.646,-2.769 0.648,-1.84 1.672,-4.328c1.676,-4.076 2.803,-10.453 6.633,-16.367l11.606,-14.394c0.144,-0.146 0.35,-0.359 0.494,-0.505l25.032,-13.968c5.08,-1.073 7.117,-1.068 7.563,-6.437l-14.499,-4.501c-5.174,-2.292 -11.112,-5.25 -15.096,-8.905l-1.016,-0.983c-8.248,-7.743 -16.297,-16.556 -19.133,-27.868c-0.943,-3.762 0.1,-1.934 -1.628,-5.371c-1.594,-3.171 0.41,-2.294 -3.628,-3.372c-2.48,1.817 -3.295,3.723 -4.55,8.449l-7.489,15.511c-0.119,0.177 -0.282,0.422 -0.403,0.598l-18.484,17.515l-8.621,4.38c-4.281,1.635 -12.267,3.414 -15.453,5.547Z" style="fill:#f5c84c;"/><path d="M440.626,882.577c8.915,0 4.151,0.83 11.283,-2.717c14.327,-7.123 14.703,-24.42 5.861,-33.428c-0.144,-0.147 -0.35,-0.36 -0.498,-0.502l-4.075,-2.925c-0.192,-0.11 -0.446,-0.252 -0.641,-0.359c-9.1,-5.001 -20.317,-2.437 -26.951,5.91c-6.649,8.366 -5.41,25.106 7.427,31.614c1.805,0.915 5.587,2.407 7.594,2.407Z" style="fill:#f5c84c;"/><path d="M871.273,853.577c1.277,-3.179 1.045,-4.582 -0.867,-6.754c-12.095,-13.735 -4.767,-15.054 -12.156,-16.419c-7.65,-1.414 -30.389,-0.626 -37.591,-1.613c-5.962,-0.816 -14.854,-3.254 -22.047,-3.117c-10.201,0.195 -39.752,43.955 -40.848,61.856c-2.442,39.859 57.509,30.107 82.087,24.426l5.189,-1.981c3.261,-2.456 8.13,-18.959 11.625,-27.476l8.076,-17.898c4.664,-10.306 5.263,-7.868 6.532,-11.024Z" style="fill:#c4d4e2;"/><path d="M1203.2,844.577c-0.374,3.55 -0.825,3.577 0.831,6.634l8.388,14.632c3.658,5.78 3.793,7.979 6.791,14.068c1.334,2.711 3.339,5.977 3.997,8.817c4.804,20.765 6.778,18.693 17.334,21.752c8.241,2.389 38.515,5.445 47.657,2.544l2.35,-0.695c7.35,-1.691 17.637,-4.087 23.034,-11.8c2.056,-2.938 3.21,-5.463 3.455,-9.881c1.213,-21.844 -11.789,-36.611 -21.757,-50.632l-8.496,-10.621c-6.835,-7.806 -7.718,-10.161 -15.8,-7.331c-8.539,2.99 -55.655,6.615 -57.374,7.453c-4.461,2.178 -1.291,10.427 -10.41,15.06Z" style="fill:#c4d4e2;"/><path d="M1024.66,544.526c4.7,-0.962 4.937,-2.41 11.945,-1.929c10.705,0.735 7.389,4.903 16.413,-9.545c6.424,-10.285 6.916,-11.402 14.481,-20.544c0.131,-0.158 0.324,-0.383 0.452,-0.543l8.308,-11.731c7.33,-10.05 9.77,-8.772 1.03,-29.205c-2.801,-6.547 -4.406,-13.153 -7.928,-19.27l-12.372,-18.485c-10.455,-10.031 -20.051,-17.365 -35.101,-8.39c-11.241,6.704 -13.046,11.464 -19.406,22.594c-11.233,19.657 -3.903,7.171 -9.901,21.175l-1.081,2.971c-3.908,10.713 -9.144,17.428 -1.654,25.739c8.291,9.201 27.717,35.331 34.814,47.163Z" style="fill:#c4d4e2;"/><path d="M1006.5,969.437c-1.699,2.402 -3.104,4.822 -5.379,7.63c-12.079,14.907 -15.472,9.429 -4.834,34.682c6.6,15.669 3.838,10.415 12.775,26.339l11.809,14.276c26.945,24.137 47.314,-9.107 56.878,-31.775c1.981,-4.696 10.303,-25.266 9.637,-29.774l-16.775,-22.308c-0.301,-0.407 -1.346,-1.849 -1.687,-2.371l-19.537,-28.13l-21.637,-0.193l-21.25,31.624Z" style="fill:#c4d4e2;"/><path d="M1212.43,650.615c17.828,0.025 32.093,1.402 48.658,3.462c4.894,0.609 7.419,1.669 10.848,2.24c5.872,0.976 6.212,-0.016 9.124,-3.32c12.176,-13.816 22.724,-28.141 31.098,-44.697l1.837,-4.875c3.525,-19.946 0.212,-22.965 -5.323,-30.022c-1.691,-2.156 -0.487,-1.288 -3.052,-2.544l-5.185,-1.991c-2.439,-0.823 -2.314,-0.735 -4.49,-1.598c-6.736,-2.67 -27.591,-3.229 -35.744,-2.058c-3.946,0.566 -7.413,0.691 -11.454,1.331c-18.617,2.946 -22.279,2.713 -24.856,13.336c-1.757,7.246 -4.316,12.26 -7.342,18.606c-1.437,3.013 -2.537,6.032 -3.989,8.946l-7.893,17.225c-6.009,11.374 0.471,9.208 4.128,17.648c1.56,3.601 1.997,5.492 3.635,8.311Z" style="fill:#c4d4e2;"/><path d="M858.625,653.505c1.298,-1.573 2.883,-6.58 4.148,-8.88c1.65,-2.998 4.914,-6.365 5.503,-7.622c1.972,-4.209 -0.579,-6.522 -2.238,-9.721l-6.703,-13.37c-4.039,-6.768 -5.35,-15.655 -9.392,-22.7c-8.192,-14.277 -3.45,-18.653 -18.306,-19.494c-10.757,-0.609 -5.079,-2.581 -23.007,-3.01c-8.404,-0.201 -17.365,-0.424 -25.073,0.728c-8.773,1.312 -12.02,2.658 -18.522,6.629c-5.764,3.521 -9.418,10.676 -10.044,15.582c-0.963,7.544 2.648,15.944 4.547,21.203c6.274,17.376 19.476,31.865 31.938,44.89c5.252,5.49 12.969,1.183 19.814,-0.281c4.164,-0.891 8.045,-0.657 12.347,-0.962c4.549,-0.321 6.91,-1.402 11.052,-1.818c8.043,-0.808 15.523,-0.781 23.936,-1.174Z" style="fill:#c4d4e2;"/><path d="M1249.73,796.513c20.52,-4.471 52.045,-10.382 69.505,-20.318c0.188,-0.106 0.436,-0.262 0.621,-0.368l2.466,-1.365c13.86,-6.619 32.734,-17.409 32.99,-34.861c0.153,-10.503 -1.946,-11.857 -7.907,-19.678c-5.204,-6.828 -7.979,-8.094 -15.042,-12.146l-17.291,-9.444l-26.372,-7.913c-12.187,-4.32 -14.844,-3.687 -21.141,-5.522c-10.699,-3.117 -5.806,-1.491 -17.968,-2.216c-8.854,-0.529 -14.891,-2.54 -23.923,-2.724c-34.637,-0.705 -23.682,-2.418 -35.186,10.457c-1.451,1.623 -2.671,3.083 -4.226,4.771c-1.72,1.869 -3.059,2.42 -3.299,5.391c2.537,2.559 7.869,2.66 16.609,6.083c17.172,6.724 35.272,14.226 35.288,32.909c0.007,8.481 -2.44,12.333 -6.555,16.695c-10.286,10.903 -33.764,17.167 -37.113,18.885c-0.182,0.093 -0.408,0.268 -0.595,0.362c-4.132,2.088 -5.188,1.33 -7.579,2.449c2.174,6.689 12.372,14.957 16.615,21.936c12.474,1.317 38.576,-0.871 50.103,-3.383Z" style="fill:#eaf1f9;"/><path d="M890.552,780.698c-5.952,-1.583 -27.425,-9.546 -32.325,-12.692c-10.919,-7.012 -19.349,-7.364 -19.097,-26.447c0.372,-28.068 42.525,-32.079 50.39,-38.982c-1.004,-2.019 -2.074,-3.155 -4.062,-4.877c-4.466,-3.867 -3.101,-0.869 -5.794,-5.897c-0.112,-0.208 -0.226,-0.487 -0.343,-0.696l-5.35,-7.813c-19.634,-0.879 -34.372,0.904 -52.21,2.564c-5.178,0.481 -6.653,1.672 -10.913,2.652c-3.931,0.905 -7.561,0.549 -11.68,1.58c-7.689,1.926 -14.104,2.962 -20.999,5.202c-6.123,1.988 -12.778,5.653 -19.165,7.746c-4.452,1.458 -5.77,1.769 -9.258,3.754l-8.369,4.764c-4.087,2.025 -4.838,2.734 -8.181,5.592c-5.443,4.652 -8.817,6.874 -12.307,12.588c-10.811,17.703 1.959,32.928 16.295,42.206c10.589,6.854 23.153,13.16 36.551,16.65c7.325,1.908 12.699,5.302 20.877,6.002l22.247,3.909c14.01,2.884 34.392,3.528 49.766,3.528c5.728,0 6.425,0.363 9.828,-2.62c1.73,-1.517 13.186,-15.815 14.099,-18.713Z" style="fill:#eaf1f9;"/><path d="M998.626,889.163c-4.58,0.735 -3.323,1.421 -6.89,4.484c-2.26,1.942 -3.675,3.094 -6.112,4.902c-13.694,10.165 -27.927,23.112 -43.893,16.732c-18.633,-7.447 -16.3,-26.963 -14.639,-47.643c0.576,-7.176 3.302,-9.657 2.632,-18.201c-5.451,0.232 -24.248,2.583 -27.046,6.168c-2.685,3.438 -2.662,7.199 -6.699,13.303c-0.811,1.226 -0.948,1.399 -1.542,2.504c-1.151,2.142 -1.341,3.193 -2.466,5.668c-1.79,3.939 -3.832,5.793 -5.66,11.211c-1.148,3.407 -2.994,7.982 -4.616,11.396c-2.134,4.49 -2.963,6.166 -4.443,11.543l-8.238,24.363c-2.933,21.921 -4.209,16.93 -3.972,44.984c0.136,16.091 1.83,40.468 23.573,41.841c9.553,0.603 19.362,-3.545 25.935,-6.968l19.646,-12.353c6.054,-4.497 12.458,-9.712 17.704,-15.241c2.787,-2.936 5.093,-5.296 7.993,-8c10.607,-9.887 46.122,-56.385 46.99,-66.228c0.708,-8.036 -1.461,-7.716 -3.54,-12.554c-2.147,-4.995 -2.447,-9.162 -4.717,-11.911Z" style="fill:#eaf1f9;"/><path d="M1207.67,1006.42c15.123,-31.241 -4.82,-92.027 -19.532,-123.464c-2.321,-4.96 -13.402,-29.188 -17.195,-31.554c-1.279,-0.798 -22.262,-4.714 -26.697,-4.231c-0.591,7.778 2.388,10.067 2.823,17.396c0.805,13.562 5.366,24.71 -0.947,37.28c-4.198,8.357 -4.049,3.768 -7.985,8.131c-5.073,5.622 -13.682,5.993 -22.399,3.769c-3.489,-0.89 -11.15,-5.244 -13.885,-7.366l-18.391,-13.674c-3.835,-3.163 -1.974,-2.999 -5.836,-4.437l-1.426,1.918c-0.169,0.242 -0.671,0.943 -0.826,1.197l-2.174,5.737c-1.179,3.516 -5.022,12.675 -4.684,15.298c0.56,4.354 9.366,15.831 12.82,20.451l11.374,17.671l51.715,51.235c14.936,11.546 47.353,30.078 61.772,7.327c0.164,-0.259 0.621,-1.032 0.771,-1.306l0.702,-1.378Z" style="fill:#eaf1f9;"/><path d="M996.846,594.796c1.431,-4.393 1.975,-8.471 3.897,-13.305c1.682,-4.231 4.242,-5.337 3.124,-12.917c-0.707,-4.79 -23.035,-36.381 -27.594,-42.718c-0.119,-0.166 -0.3,-0.398 -0.422,-0.56c-0.123,-0.162 -0.31,-0.392 -0.436,-0.551c-6.765,-8.589 -24.93,-25.749 -33.063,-33.888l-23.434,-17.543c-9.637,-6.702 -26.857,-11.387 -38.285,-9.93c-8.461,1.079 -14.483,9.221 -17.11,16.191c-7.41,19.665 -1.588,45.423 2.566,65.262l22.112,58.981c4.656,10.102 0.056,2.553 8.361,16.766c2.152,3.683 2.877,8.349 5.666,10.285c0.941,0.653 3.866,1.854 5.505,2.07c2.225,0.292 5.557,0.172 7.93,0.292c6.367,0.324 8.294,2.244 13.577,1.96l-3.24,-18.11c-2.409,-6.598 -3.738,-28.925 1.803,-38.191c6.621,-11.07 18.591,-14.129 30.536,-10.152c4.471,1.489 2.271,1.699 6.803,4.134c3.137,1.685 4.445,1.49 7.241,3.069l9.778,7.206c1.148,0.884 1.567,1.241 2.75,2.185c3.961,3.163 7.449,7.29 11.935,9.464Z" style="fill:#eaf1f9;"/><path d="M1144.06,632.193c28.434,-2.078 25.71,-2.349 38.249,-28.956c6.728,-14.277 4.742,-12.356 9.253,-23.994l2.078,-3.587c5.872,-9.857 5.513,-22.41 10.188,-32.816c3.292,-7.326 5.124,-33.017 5.048,-43.263c-0.14,-19.023 -3.977,-39.292 -26.25,-39.253c-16.93,0.03 -35.35,12.762 -44.864,20.3c-3.44,2.726 -6.912,4.454 -10.134,7.032l-23.113,24.813c-5.736,6.62 -17.26,19.748 -21.66,27.214c-21.528,36.522 -19.215,21.879 -12.588,43.266l4.336,11.621c2.001,-1.184 16.008,-14.79 23.513,-19.438l13.446,-8.434c9.784,-4.083 22.624,-0.602 29.524,6.407c0.199,0.203 0.718,0.828 0.894,1.056l3.441,5.597c3.508,5.698 2.048,27.336 1.604,33.824c-0.511,7.465 -2.813,2.133 -2.965,18.611Z" style="fill:#eaf1f9;"/><path d="M237.631,1311.58c0.067,25.524 3.301,45.467 7.244,67.925c0.896,5.101 0.846,1.265 2.167,5.512c0.688,2.214 0.631,4.52 1.267,6.916c0.732,2.761 1.38,3.663 2.125,7.017l4.355,12.56c6.575,16.41 11.427,28.664 21.578,44.264c8.888,13.661 17.327,27.252 27.801,39.301l20.28,20.677c7.177,6.939 13.657,13.173 22.63,19.363l27.433,17.626c0.547,0.39 2.817,1.938 2.997,2.041l2.058,1.025c0.209,0.105 0.482,0.213 0.687,0.318c2.763,1.406 0.173,-0.024 2.481,1.419c23.901,14.944 51.29,22.354 78.957,28.918c15.519,3.683 37.242,7.734 50.569,-2.233c6.656,-4.978 7.684,-7.581 11.936,-14.165c0.156,-0.24 0.567,-0.773 1.126,-2.032c3.064,-6.892 3.685,-10.983 3.725,-19.452c0.043,-9.124 0.54,-17.727 0.76,-25.956c0.479,-17.909 0.488,-34.66 1.599,-51.169c0.969,-14.396 1.136,-38.644 0.231,-52.997c-7.308,0.065 -11.855,7.642 -18.153,10.886c-13.256,6.829 -26.293,18.658 -38.506,27.47c-1.196,0.863 -3.669,2.012 -5.192,2.91c-5.954,3.512 -10.976,8.501 -16.965,11.997c-3.507,2.048 -5.22,3.812 -9.007,6.098c-16.79,10.131 -46.035,40.893 -56.31,18.758c-3.181,-6.853 -0.35,-14.558 5.028,-18.17l54.338,-38.57c3.293,-2.732 4.638,-2.992 8.62,-5.454c9.41,-5.819 16.303,-12.022 26.069,-18.853c5.897,-4.126 10.505,-7.745 17.103,-11.903c4.505,-2.839 14.815,-7.818 16.372,-13.047c-4.172,-1.975 -8.025,-1.097 -13.222,-2.252l-26.153,-6.72c-8.555,-3.214 -18.455,-2.948 -27.172,-5.986c-6.494,-2.263 -14.05,-3.19 -20.673,-4.469c-3.612,-0.698 -3.044,-1.548 -6.372,-2.285l-94.63,-22.387c-8.904,-2.579 -11.267,-2.286 -15.489,-9.689c-0.143,-0.252 -0.608,-0.891 -0.748,-1.16c-5.374,-10.299 6.456,-22.1 18.284,-18.369l47.213,10.831c4.247,1.109 2.433,1.446 6.666,2.17l81.878,19.154c6.957,2.289 13.15,2.858 19.995,4.321c4.479,0.958 2.901,1.349 6.331,2.231c4.862,1.251 10.133,1.26 14.767,2.602c4.324,1.252 9.71,2.335 14.062,3.091c-0.318,-6.146 -8.227,-14.181 -11.498,-19.636c-6.53,-10.891 -15.652,-22.537 -21.175,-31.913l-12.645,-18.341c-1.563,-2.174 -2.765,-5.273 -3.959,-7.129l-25.863,-38.083c-10.813,-17.141 -22.871,-33.24 -33.487,-50.579c-2.522,-4.119 -5.406,-6.817 -8.768,-12.077c-6.321,-9.889 -12.703,-20.135 -0.844,-28.385c16.8,-11.688 25.827,13.938 33.479,23.729c3.629,4.644 4.984,7.942 8.292,12.684c17.072,24.466 34.769,50.373 50.788,76.265c2.57,4.154 5.5,7.292 8.65,12.207c3.071,4.792 5.617,8.688 8.684,13.401l25.442,37.516c1.996,3.045 4.581,9.054 7.567,11.03c2.172,1.438 -0.758,1.184 1.232,0.191c2.574,-1.489 4.027,-21.688 4.905,-25.726c2.956,-13.604 3.097,-27.357 5.127,-40.981l4.13,-26.788c1.671,-5.945 0.604,-8.442 1.477,-14.553c0.708,-4.957 2.498,-5.306 2.653,-11.849c0.225,-9.542 2.15,-34.3 4.598,-43.031c2.017,-7.195 1.587,-19.289 3.492,-27.733c1.589,-7.045 9.096,-14.385 18.973,-10.703c7.897,2.943 11.743,10.468 9.528,19.404c-1.248,5.037 -1.08,8.254 -1.365,14.018c-0.279,5.654 -1.529,8.321 -2.398,13.255c-0.828,4.7 -0.234,9.682 -0.944,14.354l-4.721,25.773c-0.778,5.141 -0.319,10.469 -1.001,15.41c-0.531,3.85 -1.979,7.216 -2.435,12.255c-0.445,4.909 -0.651,9.628 -1.864,14.101c-1.233,4.543 -1.154,8.41 -1.368,13.862c-0.516,13.156 -4.515,26.565 -5.805,40.903c-1.093,12.146 -3.336,11.87 -3.063,29.139c6.099,0.051 13.617,-7.112 17.732,-10.358l27.193,-18.813c7.77,-6.543 16.942,-10.313 25.035,-16.034l25.353,-17.621c9.497,-5.788 26.483,-21.469 36.685,-21.807c13.863,-0.458 20.646,15.964 10.278,24.821l-86.1,58.851c-6.462,4.877 -11.135,7.153 -17.453,11.636l-12.151,8.795c-2.324,1.512 -2.87,1.218 -5.067,2.457l0.133,4.002l14.794,7.253c0.209,0.098 0.484,0.201 0.699,0.297c7.526,3.363 15.811,5.715 22.747,9.651l17.267,9.581c3.153,1.535 4.654,2.316 7.817,4.264c7.797,4.804 15.672,8.083 24.738,11.325l36.413,17.716c7.067,3.277 19.89,3.951 27.15,1.068c20.547,-8.161 26.761,-31.227 32.202,-51.631c1.376,-5.161 1.849,-2.851 2.525,-9.498c0.967,-9.519 5.111,-19.661 5.82,-30.029c0.292,-4.274 0.091,-7.424 0.869,-11.235c3.545,-17.349 0.658,-37.371 -0.351,-54.65c-0.705,-12.056 -8.349,-41.995 -12.877,-55.479c-9.665,-28.776 -17.847,-44.145 -34.259,-69.843c-2.59,-4.057 -4.898,-5.673 -7.35,-9.55c-7.845,-12.404 -21.525,-26.42 -32.45,-36.595c-6.23,-5.802 -14.494,-10.183 -20.665,-16.275l-0.997,-1.001c-0.144,-0.146 -0.344,-0.36 -0.489,-0.506c-4.65,-4.708 -16.001,-12.526 -22.325,-15.095c-5.866,-2.384 -3.126,-2.957 -15.625,-9.966l-28.701,-13.266c-0.183,-0.093 -0.418,-0.252 -0.605,-0.34l-12.917,-4.03c-5.717,-1.777 -0.965,-1.398 -6.212,-2.561c-9.169,-2.032 -20.437,-5.06 -29.809,-5.907c-5.385,-0.486 -8.754,-2.114 -14.858,-2.856c-20.04,-2.437 -44.531,-4.555 -64.748,-1.209c-5.043,0.834 -9.393,1.208 -15.445,1.66c-4.387,0.327 -8.737,2.326 -13.954,3.515c-3.269,0.745 -11.09,1.953 -14.274,3.019c-8.295,2.779 -17.331,4.782 -25.338,8.581c-4.799,2.277 -7.605,3.317 -13.111,5.05l-16.005,7.787c-0.171,0.114 -0.401,0.298 -0.575,0.413c-9.248,6.099 -17.922,9.178 -27.337,16.682l-41.3,32.562c-7.158,9.85 -21.31,23.448 -29.217,35.945c-9.051,14.303 -18.55,28.74 -24.905,44.403l-3.109,6.554c-6.114,11.097 -12.117,31.342 -15.104,44.106c-4.893,20.915 -7.78,39.43 -7.721,62.088Z" style="fill:#86d047;"/><path d="M1349.62,1269.58c17.474,0 28.818,-20.09 18.053,-34.053c-11.932,-15.475 -39.638,-9.038 -37.532,14.519c1.06,11.85 11.408,19.534 19.479,19.534Z" style="fill:#86d047;"/><path d="M1027.75,937.813l21.637,0.193l19.537,28.13c0.341,0.522 1.386,1.964 1.687,2.371l16.775,22.308c0.666,4.508 -7.656,25.078 -9.637,29.774c-9.564,22.668 -29.933,55.912 -56.878,31.775l-11.809,-14.276c-8.937,-15.924 -6.175,-10.67 -12.775,-26.339c-10.638,-25.253 -7.245,-19.775 4.834,-34.682c2.275,-2.808 3.68,-5.228 5.379,-7.63l21.25,-31.624Zm9.873,-34.908c-5.691,-6.263 -17.117,-40.401 -12.228,-49.476c1.191,-2.21 2.882,-4.216 4.321,-6.599c8.019,-13.285 25.233,1.221 20.038,24.63c-2.353,10.602 -4.911,24.768 -12.131,31.445Zm-38.999,-13.742c2.27,2.749 2.57,6.916 4.717,11.911c2.079,4.838 4.248,4.518 3.54,12.554c-0.868,9.843 -36.383,56.341 -46.99,66.228c-2.9,2.704 -5.206,5.064 -7.993,8c-5.246,5.529 -11.65,10.744 -17.704,15.241l-19.646,12.353c-6.573,3.423 -16.382,7.571 -25.935,6.968c-21.743,-1.373 -23.437,-25.75 -23.573,-41.841c-0.237,-28.054 1.039,-23.063 3.972,-44.984l8.238,-24.363c1.48,-5.377 2.309,-7.053 4.443,-11.543c1.622,-3.414 3.468,-7.989 4.616,-11.396c1.828,-5.418 3.87,-7.272 5.66,-11.211c1.125,-2.475 1.315,-3.526 2.466,-5.668c0.594,-1.105 0.731,-1.278 1.542,-2.504c4.037,-6.104 4.014,-9.865 6.699,-13.303c2.798,-3.585 21.595,-5.936 27.046,-6.168c0.67,8.544 -2.056,11.025 -2.632,18.201c-1.661,20.68 -3.994,40.196 14.639,47.643c15.966,6.38 30.199,-6.567 43.893,-16.732c2.437,-1.808 3.852,-2.96 6.112,-4.902c3.567,-3.063 2.31,-3.749 6.89,-4.484Zm145.619,-41.997c4.435,-0.483 25.418,3.433 26.697,4.231c3.793,2.366 14.874,26.594 17.195,31.554c14.712,31.437 34.655,92.223 19.532,123.464l-0.702,1.378c-0.15,0.274 -0.607,1.047 -0.771,1.306c-14.419,22.751 -46.836,4.219 -61.772,-7.327l-51.715,-51.235l-11.374,-17.671c-3.454,-4.62 -12.26,-16.097 -12.82,-20.451c-0.338,-2.623 3.505,-11.782 4.684,-15.298l2.174,-5.737c0.155,-0.254 0.657,-0.955 0.826,-1.197l1.426,-1.918c3.862,1.438 2.001,1.274 5.836,4.437l18.391,13.674c2.735,2.122 10.396,6.476 13.885,7.366c8.717,2.224 17.326,1.853 22.399,-3.769c3.936,-4.363 3.787,0.226 7.985,-8.131c6.313,-12.57 1.752,-23.718 0.947,-37.28c-0.435,-7.329 -3.414,-9.618 -2.823,-17.396Zm-272.972,6.411c-1.269,3.156 -1.868,0.718 -6.532,11.024l-8.076,17.898c-3.495,8.517 -8.364,25.02 -11.625,27.476l-5.189,1.981c-24.578,5.681 -84.529,15.433 -82.087,-24.426c1.096,-17.901 30.647,-61.661 40.848,-61.856c7.193,-0.137 16.085,2.301 22.047,3.117c7.202,0.987 29.941,0.199 37.591,1.613c7.389,1.365 0.061,2.684 12.156,16.419c1.912,2.172 2.144,3.575 0.867,6.754Zm331.929,-9c9.119,-4.633 5.949,-12.882 10.41,-15.06c1.719,-0.838 48.835,-4.463 57.374,-7.453c8.082,-2.83 8.965,-0.475 15.8,7.331l8.496,10.621c9.968,14.021 22.97,28.788 21.757,50.632c-0.245,4.418 -1.399,6.943 -3.455,9.881c-5.397,7.713 -15.684,10.109 -23.034,11.8l-2.35,0.695c-9.142,2.901 -39.416,-0.155 -47.657,-2.544c-10.556,-3.059 -12.53,-0.987 -17.334,-21.752c-0.658,-2.84 -2.663,-6.106 -3.997,-8.817c-2.998,-6.089 -3.133,-8.288 -6.791,-14.068l-8.388,-14.632c-1.656,-3.057 -1.205,-3.084 -0.831,-6.634Zm-306.658,-20.956c1.42,-8.722 15.299,-20.581 23.397,-29.799l1.38,-1.514c3.429,-3.216 -3.964,2.747 1.595,-1.279l5.89,-3.114c13.973,-3.281 30.187,-0.243 19.094,17.965c-5.601,9.194 -2.199,5.888 -12.315,10.564c-9.808,4.534 -27.412,7.839 -39.041,7.177Zm280.435,-2.728c-13.761,0.618 -11.202,-0.242 -19.867,-2.436c-5.098,-1.292 -2.913,0.505 -13.842,-2.642l-8.311,-2.646c-4.616,-2.071 -4.31,-0.87 -8.329,-8.6c-11.999,-23.074 12.642,-20.423 18.593,-18.589c4.59,1.415 23.968,21.984 27.979,27.068c2.712,3.437 3.184,3.275 3.777,7.845Zm-286.427,-40.195c-0.913,2.898 -12.369,17.196 -14.099,18.713c-3.403,2.983 -4.1,2.62 -9.828,2.62c-15.374,0 -35.756,-0.644 -49.766,-3.528l-22.247,-3.909c-8.178,-0.7 -13.552,-4.094 -20.877,-6.002c-13.398,-3.49 -25.962,-9.796 -36.551,-16.65c-14.336,-9.278 -27.106,-24.503 -16.295,-42.206c3.49,-5.714 6.864,-7.936 12.307,-12.588c3.343,-2.858 4.094,-3.567 8.181,-5.592l8.369,-4.764c3.488,-1.985 4.806,-2.296 9.258,-3.754c6.387,-2.093 13.042,-5.758 19.165,-7.746c6.895,-2.24 13.31,-3.276 20.999,-5.202c4.119,-1.031 7.749,-0.675 11.68,-1.58c4.26,-0.98 5.735,-2.171 10.913,-2.652c17.838,-1.66 32.576,-3.443 52.21,-2.564l5.35,7.813c0.117,0.209 0.231,0.488 0.343,0.696c2.693,5.028 1.328,2.03 5.794,5.897c1.988,1.722 3.058,2.858 4.062,4.877c-7.865,6.903 -50.018,10.914 -50.39,38.982c-0.252,19.083 8.178,19.435 19.097,26.447c4.9,3.146 26.373,11.109 32.325,12.692Zm292.403,-80.121c0.24,-2.971 1.579,-3.522 3.299,-5.391c1.555,-1.688 2.775,-3.148 4.226,-4.771c11.504,-12.875 0.549,-11.162 35.186,-10.457c9.032,0.184 15.069,2.195 23.923,2.724c12.162,0.725 7.269,-0.901 17.968,2.216c6.297,1.835 8.954,1.202 21.141,5.522l26.372,7.913l17.291,9.444c7.063,4.052 9.838,5.318 15.042,12.146c5.961,7.821 8.06,9.175 7.907,19.678c-0.256,17.452 -19.13,28.242 -32.99,34.861l-2.466,1.365c-0.185,0.106 -0.433,0.262 -0.621,0.368c-17.46,9.936 -48.985,15.847 -69.505,20.318c-11.527,2.512 -37.629,4.7 -50.103,3.383c-4.243,-6.979 -14.441,-15.247 -16.615,-21.936c2.391,-1.119 3.447,-0.361 7.579,-2.449c0.187,-0.094 0.413,-0.269 0.595,-0.362c3.349,-1.718 26.827,-7.982 37.113,-18.885c4.115,-4.362 6.562,-8.214 6.555,-16.695c-0.016,-18.683 -18.116,-26.185 -35.288,-32.909c-8.74,-3.423 -14.072,-3.524 -16.609,-6.083Zm-43.33,-5.82c-16.897,-0.009 -21.369,-2.878 -13.789,-18.893c1.979,-4.18 2.666,-5.451 6.351,-7.743c6.499,-4.043 33.997,-9.725 43.705,-9.871c-0.16,6.524 -4.447,8.622 -8.6,13.857l-3.726,4.377c-5.91,6.532 -14.943,18.277 -23.941,18.273Zm-244.676,-34.768c12.098,-1.027 27.119,3.787 37.271,7.738c8.139,3.169 9.696,1.035 14.103,9.084c2.281,4.168 7.617,12.276 1.371,16.885c-3.568,2.633 -13.937,4.165 -19.57,2.333c-3.22,-1.047 -15.647,-9.869 -19.781,-15.992l-4.514,-5.694c-2.833,-3.023 -8.766,-9.22 -8.88,-14.354Zm135.221,-21.009l-3.821,-6.303c-6.871,-10.787 -6.443,-4.704 -2.159,-24.283c1.906,-8.707 4.582,-17.546 9.021,-25.066c1.743,-2.952 -1.565,-0.379 1.611,-1.876c3.652,-1.721 3.36,1.019 3.919,1.793c3.99,5.528 7.862,25.555 9.722,32.692c2.521,9.671 2.136,7.722 -2.403,15.989c-4.336,7.897 -5.44,7.75 -15.89,7.054Zm169.566,101.751c-3.615,1.704 -19.769,8.99 -24.16,9.693c-10.764,1.725 -18.98,4.46 -28.502,5.572c-16.439,1.922 -30.351,-2.928 -44.772,14.229c-4.25,5.056 -7.143,7.521 -8.321,17.504c-1.414,11.986 -0.124,18.541 5.304,28.287c5.083,9.128 13.099,25.468 15.558,35.355c1.508,6.062 2.553,6.601 3.019,14.216c0.419,6.845 2.102,9.319 1.962,16.158c-7.959,-3.186 -15.061,-10.006 -21.236,-16.134c-29.814,-29.588 -18.577,-24.492 -33.274,-41.746c-2.832,-3.324 -6.494,-6.419 -10.63,-8.216c-3.693,-1.605 -11.685,-3.446 -16.026,-3.498c-22.723,-0.275 -31.138,13.465 -41.139,29.161c-0.114,0.179 -0.256,0.44 -0.37,0.622l-1.585,2.517c-2.165,3.181 -4.569,7.107 -7.501,10.561l-13.733,14.314c-1.963,1.705 -3.469,3.388 -5.114,4.835c-2.57,2.259 -9.074,7.098 -12.243,7.969c-0.861,-19.736 4.576,-37.157 13.054,-53.956c1.393,-2.76 0.935,-3.174 2.005,-6.126c1.493,-4.118 6.369,-10.515 7.655,-17.594c3.383,-18.613 -6.736,-37.572 -23.079,-43.758c-8.824,-3.34 -22.945,-0.144 -31.901,-2.464c-15.302,-3.964 -15.244,0.1 -39.809,-9.941c-3.567,-1.459 -8.563,-2.961 -11.901,-4.714c3.775,-9.648 40.575,-16.087 51.658,-16.913c9.22,-0.687 8.442,-1.965 23.026,-2.52c5.627,-0.215 15.776,-4.92 18.828,-7.698c9.826,-8.941 17.295,-21.958 12.909,-36.785c-2.79,-9.433 -6.998,-16.064 -11.034,-23.957c-5.212,-10.191 -6.429,-15.635 -9.529,-25.572c-2.894,-9.279 -6.56,-16.172 -5.013,-29.335c6.551,0.204 26.96,19.563 31.301,25.221c15.949,20.792 25.641,44.879 50.463,44.474c2.345,-0.038 14.519,-2.071 17.272,-3.769l4.191,-2.825c2.185,-1.381 3.612,-2.435 5.359,-4.451c6.762,-7.806 9.978,-13.024 15.413,-22.532c6.008,-10.512 26.395,-32.378 39.234,-37.829c0.751,16.676 -4.699,29.711 -8.432,43.34c-0.83,3.03 -0.975,2.719 -2.326,5.76l-8.238,17.809c-6.724,13.086 -8.646,28.409 0.321,39.888c14.304,18.311 21.789,17.748 50.254,18.156c9.608,0.138 7.773,1.666 14.016,2.614c5.78,0.878 4.906,-0.681 10.359,1.65c7.233,3.093 22.33,5.239 26.707,12.428Zm-341.111,-87.226c-8.413,0.393 -15.893,0.366 -23.936,1.174c-4.142,0.416 -6.503,1.497 -11.052,1.818c-4.302,0.305 -8.183,0.071 -12.347,0.962c-6.845,1.464 -14.562,5.771 -19.814,0.281c-12.462,-13.025 -25.664,-27.514 -31.938,-44.89c-1.899,-5.259 -5.51,-13.659 -4.547,-21.203c0.626,-4.906 4.28,-12.061 10.044,-15.582c6.502,-3.971 9.749,-5.317 18.522,-6.629c7.708,-1.152 16.669,-0.929 25.073,-0.728c17.928,0.429 12.25,2.401 23.007,3.01c14.856,0.841 10.114,5.217 18.306,19.494c4.042,7.045 5.353,15.932 9.392,22.7l6.703,13.37c1.659,3.199 4.21,5.512 2.238,9.721c-0.589,1.257 -3.853,4.624 -5.503,7.622c-1.265,2.3 -2.85,7.307 -4.148,8.88Zm353.805,-2.89c-1.638,-2.819 -2.075,-4.71 -3.635,-8.311c-3.657,-8.44 -10.137,-6.274 -4.128,-17.648l7.893,-17.225c1.452,-2.914 2.552,-5.933 3.989,-8.946c3.026,-6.346 5.585,-11.36 7.342,-18.606c2.577,-10.623 6.239,-10.39 24.856,-13.336c4.041,-0.64 7.508,-0.765 11.454,-1.331c8.153,-1.171 29.008,-0.612 35.744,2.058c2.176,0.863 2.051,0.775 4.49,1.598l5.185,1.991c2.565,1.256 1.361,0.388 3.052,2.544c5.535,7.057 8.848,10.076 5.323,30.022l-1.837,4.875c-8.374,16.556 -18.922,30.881 -31.098,44.697c-2.912,3.304 -3.252,4.296 -9.124,3.32c-3.429,-0.571 -5.954,-1.631 -10.848,-2.24c-16.565,-2.06 -30.83,-3.437 -48.658,-3.462Zm-68.367,-18.422c0.152,-16.478 2.454,-11.146 2.965,-18.611c0.444,-6.488 1.904,-28.126 -1.604,-33.824l-3.441,-5.597c-0.176,-0.228 -0.695,-0.853 -0.894,-1.056c-6.9,-7.009 -19.74,-10.49 -29.524,-6.407l-13.446,8.434c-7.505,4.648 -21.512,18.254 -23.513,19.438l-4.336,-11.621c-6.627,-21.387 -8.94,-6.744 12.588,-43.266c4.4,-7.466 15.924,-20.594 21.66,-27.214l23.113,-24.813c3.222,-2.578 6.694,-4.306 10.134,-7.032c9.514,-7.538 27.934,-20.27 44.864,-20.3c22.273,-0.039 26.11,20.23 26.25,39.253c0.076,10.246 -1.756,35.937 -5.048,43.263c-4.675,10.406 -4.316,22.959 -10.188,32.816l-2.078,3.587c-4.511,11.638 -2.525,9.717 -9.253,23.994c-12.539,26.607 -9.815,26.878 -38.249,28.956Zm-147.217,-37.397c-4.486,-2.174 -7.974,-6.301 -11.935,-9.464c-1.183,-0.944 -1.602,-1.301 -2.75,-2.185l-9.778,-7.206c-2.796,-1.579 -4.104,-1.384 -7.241,-3.069c-4.532,-2.435 -2.332,-2.645 -6.803,-4.134c-11.945,-3.977 -23.915,-0.918 -30.536,10.152c-5.541,9.266 -4.212,31.593 -1.803,38.191l3.24,18.11c-5.283,0.284 -7.21,-1.636 -13.577,-1.96c-2.373,-0.12 -5.705,0 -7.93,-0.292c-1.639,-0.216 -4.564,-1.417 -5.505,-2.07c-2.789,-1.936 -3.514,-6.602 -5.666,-10.285c-8.305,-14.213 -3.705,-6.664 -8.361,-16.766l-22.112,-58.981c-4.154,-19.839 -9.976,-45.597 -2.566,-65.262c2.627,-6.97 8.649,-15.112 17.11,-16.191c11.428,-1.457 28.648,3.228 38.285,9.93l23.434,17.543c8.133,8.139 26.298,25.299 33.063,33.888c0.126,0.159 0.313,0.389 0.436,0.551c0.122,0.162 0.303,0.394 0.422,0.56c4.559,6.337 26.887,37.928 27.594,42.718c1.118,7.58 -1.442,8.686 -3.124,12.917c-1.922,4.834 -2.466,8.912 -3.897,13.305Zm27.817,-50.27c-7.097,-11.832 -26.523,-37.962 -34.814,-47.163c-7.49,-8.311 -2.254,-15.026 1.654,-25.739l1.081,-2.971c5.998,-14.004 -1.332,-1.518 9.901,-21.175c6.36,-11.13 8.165,-15.89 19.406,-22.594c15.05,-8.975 24.646,-1.641 35.101,8.39l12.372,18.485c3.522,6.117 5.127,12.723 7.928,19.27c8.74,20.433 6.3,19.155 -1.03,29.205l-8.308,11.731c-0.128,0.16 -0.321,0.385 -0.452,0.543c-7.565,9.142 -8.057,10.259 -14.481,20.544c-9.024,14.448 -5.708,10.28 -16.413,9.545c-7.008,-0.481 -7.245,0.967 -11.945,1.929Zm283.142,393.726c1.259,-1.507 0.405,-1.94 4.75,-3.494c6.431,-2.301 12.02,-5.692 17.025,-10.178c16.626,-14.904 19.363,-37.194 12.817,-58.713c-0.553,-1.818 -1.529,-3.846 -2.484,-6.395l-0.951,-2.242c-0.1,-0.203 -0.261,-0.438 -0.362,-0.633c-1.1,-2.118 -3.532,-6.299 -3.558,-9.708c6.781,-1.196 24.193,3.162 31.265,5.006l48.299,9.387c6.341,0.505 8.611,4.487 15.819,2.314c11.045,-3.329 13.71,-18.154 4.45,-24.193c-5.475,-3.571 -49.342,-11.023 -60.678,-14.093l-24.473,-4.316c-4.064,-0.584 -2.946,-1.384 -7.324,-2.272l-15.767,-3.187c-5.961,-0.686 -11.273,-0.453 -13.645,-4.958c1.427,-1.495 8.942,-4.036 11.937,-4.88c4.271,0.076 20.608,-10.294 24.814,-12.892l13.671,-10.432c12.408,-11.775 19.825,-21.886 22.678,-40.137c0.835,-5.336 -0.517,-8.782 -0.976,-13.695c-0.615,-6.578 -1.52,-7.135 -3.984,-11.558c-7.489,-13.447 -17.747,-23.758 -30.637,-32.316c-1.633,-1.084 -19.45,-10.167 -17.919,-12.144l90.521,-31.228c0.248,-0.1 0.499,-0.227 0.734,-0.337c0.223,-0.104 0.463,-0.259 0.673,-0.369l2.375,-1.422c4.686,-1.927 35.807,-8.223 41.18,-14.252l2.818,-4.087c4.485,-7.819 -0.209,-18.384 -9.166,-19.703c-11.937,-1.757 -27.072,7.334 -38.428,10.83l-56.412,17.847c-6.63,2.56 -34.62,11.961 -38.363,11.868c0.716,-7.906 14.122,-23.378 14.719,-42.079c0.735,-23.037 -0.933,-33.319 -13.754,-46.896c-5.309,-5.622 -28.841,-15.286 -37.796,-15.793c-23.664,-1.34 -41.598,1.899 -56.05,1.7c0.022,-6.035 1.815,-9.418 2.106,-15.984c0.279,-6.309 0.297,-12.723 0.298,-19.041c0.004,-18.646 -2.156,-31.95 -10.28,-47.068c-1.956,-3.642 -7.146,-7.308 -5.874,-12.464c1.461,-5.926 13.092,-23.664 16.573,-30.848c0.963,-1.986 2.582,-3.768 3.744,-6.251c3.992,-8.527 9.719,-15.11 13.881,-23.923c7.891,-16.705 19.378,-31.539 27.681,-48.318l12.83,-24.469c3.328,-6.979 9.545,-14.167 1.943,-21.613l-3.799,-4.019c-4.109,-2.986 -12.259,-1.449 -15.839,1.227c-4.817,3.6 -8.117,12.437 -10.753,17.354c-9.291,17.337 -21.445,35.019 -31.36,54.483l-41.149,72.847c-10.456,1.546 -19.656,-1.337 -29.022,2.101c-9.192,3.375 -8.981,1.341 -22.331,8.606c-6.038,3.286 -13.574,7.499 -19.404,11.658c-4.322,3.083 -13.316,12.722 -17.922,13.356c-1.566,-3.362 -2.472,-7.689 -4.434,-11.512c-5.868,-11.437 -5.447,-17.045 -16.8,-31.264c-4.601,-5.763 -9.298,-12.536 -15.103,-16.91c-1.867,-1.407 -3.388,-1.97 -4.933,-3.073c-4.564,-3.261 -9.072,-6.922 -14.799,-9.002c-11.306,-4.105 -29.212,-3.964 -40.24,2.256l-8.982,6.859c-10.921,8.351 -18.898,18.503 -25.641,30.338c-1.734,3.042 -0.737,3.166 -3.389,4.945c-0.19,-0.189 -0.452,-0.768 -0.527,-0.605l-7.139,-27.286c-3.438,-15.683 -8.018,-30.224 -11.406,-48.31c-0.744,-3.972 -1.777,-4.718 -2.462,-8.317c-0.745,-3.915 -0.891,-6.289 -1.83,-10.361c-1.824,-7.907 -5.488,-32.261 -9.73,-38.31c-3.786,-5.398 -11.708,-6.79 -17.716,-4.142c-13.059,5.756 -7.081,14.326 -6.25,25.023l10.962,49.111c5.155,17.243 7.789,42.513 13.602,58.21c1.915,5.172 1.525,3.361 1.987,9.697c0.422,5.79 1.549,5.572 2.162,9.717c-6.7,0.095 -13.771,-6.856 -19.007,-9.423c-4.135,-2.028 -6.686,-2.831 -10.484,-4.532c-4.674,-2.094 -5.599,-1.908 -11.408,-3.596c-23.638,-6.872 -51.34,1.599 -63.102,24.444c-8.299,16.117 -9.835,31.889 -9.621,50.384c0.115,9.912 2.591,21.828 2.088,28.102l-4.965,-5.286c-2.374,-2.551 -3.035,-3.045 -5.553,-5.411c-14.282,-13.424 -47.056,-51.865 -63.181,-68.826c-3.039,-3.198 -7.436,-9.463 -11.478,-10.384c-14.468,-3.295 -25.777,9.531 -18.384,21.324c0.13,0.208 1.928,2.42 2.21,2.728l24.304,25.686c2.317,2.343 3.02,3.81 4.979,6.041c4.107,4.679 30.461,30.963 30.64,34.635c-8.863,0.884 -16.651,0.691 -25.009,4.142l-19.107,9.794c-8.238,5.579 -8.828,7.854 -13.628,15.512c-1.489,2.376 -1.102,1.271 -2.624,4.251c-12.126,23.739 0.933,54.072 13.286,71.967l12.297,17.727c2.031,2.827 5.444,5.195 6.38,7.998c-7.557,2.954 -15.345,5.172 -22.695,8.687l-14.949,8.955c-0.227,0.179 -0.876,0.701 -1.1,0.883l-21.347,17.662c-2.595,2.865 -4.183,6.395 -8.027,7.847c-4.373,1.651 -11.202,0.666 -16.208,0.785c-8.78,0.209 -35.651,-0.31 -41.124,7.057c-4.531,6.1 -3.973,18.587 5.085,22.189c11.828,4.704 30.269,-2.382 41.877,0.134c5.308,1.151 3.005,15.141 11.726,27.293c14.145,19.709 30.989,29.213 52.208,38.766l14.029,4.742l-18.342,28.473c-4.211,5.386 -2.906,3.833 -5.624,10.331c-3.142,7.514 -6.318,14.168 -7.646,23.661c-0.742,5.297 -1.713,8.959 -1.67,14.526c0.047,6.231 1.594,8.912 1.105,14.631c-8.706,4.995 -8.982,4.726 -19.414,8.67c-4.344,1.642 -6.431,0.847 -13.403,3.565c-1.935,0.754 -1.508,0.563 -3.645,0.758l-21.154,-0.007c-6.726,-0.237 -6.989,-1.37 -12.102,-2.365c-7.682,-1.494 -13.955,-5.677 -20.104,-8.878c-9.38,-4.882 -16.617,-13.128 -22.663,-21.598c-0.127,-0.177 -0.291,-0.422 -0.414,-0.601l-19.158,-38.596c-0.104,-0.197 -0.281,-0.429 -0.385,-0.619l-9.383,-27.473c-1.506,-3.357 -1.124,-7.314 -2.468,-11.816c-1.201,-4.024 -2.455,-7.085 -3.467,-10.306c-2.104,-6.693 -2.781,-16.193 -5.402,-22.69c-1.132,-2.805 -3.743,-20.605 -4.233,-24.859c-0.651,-5.661 -1.957,-6.772 -2.558,-11.11c-5.2,-37.511 -6.346,-84.438 -2.7,-121.84c0.806,-8.267 1.966,-16.109 3.095,-24.793l4.023,-24.235c1.833,-7.74 0.12,-7.173 3.099,-17.999c0.876,-3.185 0.276,-4.777 0.858,-7.461c0.758,-3.497 1.003,-1.05 2.144,-4.472c1.471,-4.413 0.682,-4.91 3.053,-10.707c1.084,-2.65 0.648,-3 1.379,-5.823l22.816,-63.227c1.128,-3.618 2.614,-6.437 4.105,-9.873l18.635,-36.283c0.113,-0.194 0.257,-0.45 0.37,-0.646c1.894,-3.323 2.635,-5.346 5.054,-8.833l22.495,-34.567c1.061,-1.474 2.065,-2.295 3.099,-3.875l28.456,-35.475c2.611,-3.495 4.244,-4.728 7.254,-7.738c4.59,-4.591 7.962,-10.127 13.127,-14.814c4.829,-4.382 9.072,-8.656 14.233,-13.792c12.282,-12.225 25.367,-22.168 38.068,-33.028l2.608,-2.37c0.071,-0.069 0.255,-0.273 0.327,-0.341l28.777,-20.415c3.271,-2.005 5.846,-3.036 9.168,-5.059c3.055,-1.861 5.196,-3.619 8.423,-5.534l13.969,-7.895c16.216,-11.979 73.927,-36.645 92.06,-41.773l22.387,-6.728c24.352,-8.125 69.197,-14.479 95.351,-17.499c22.279,-2.572 57.974,-4.212 80.986,-0.814c15.86,2.342 49.042,4.544 62.835,8.233c6.547,1.751 11.538,0.895 17.812,3.867c0.617,0.292 -0.141,0.215 2.164,0.885l14.608,3.572c12.871,2.936 22.491,8.205 30.826,10.707l60.29,23.36l40.985,22.786c0.188,0.117 0.434,0.275 0.625,0.392l22.538,14.378c3.449,2.923 3.826,3.479 7.969,6.037l31.81,24.184c1.537,1.319 2.024,1.949 3.617,3.369l33.067,30.942c9.21,9.306 19.014,19.317 27.159,29.872l12.428,15.577c4.554,5.605 8.317,9.984 12.026,16.036c7.435,12.128 11.804,15.641 22.511,34.454c1.737,3.051 3.611,5.575 5.257,8.643c1.697,3.161 3.249,5.824 4.885,9.292c6.096,12.923 13.104,23.584 19.114,37.669c6.805,15.948 19.468,45.43 22.774,62.079c0.853,4.295 1.934,6.855 3.865,10.344c2.815,5.084 0.898,6.465 2.636,11.202c2.988,8.149 1.724,8.857 3.945,17.024c0.669,2.458 0.578,4.507 1.093,6.928c0.917,4.314 2.771,5.402 3.013,10.388l1.869,12.522c3.337,14.319 2.562,37.721 4.441,52.872c2.179,17.582 0.989,67.292 -2.659,81.252c-1.053,4.029 -0.705,9.041 -0.927,13.391l-11.696,59.122c-1.506,7.422 -4.11,15.144 -6.183,22.939c-2.982,11.215 -7.135,20.414 -10.947,30.904c-1.581,4.351 -2.518,6.423 -4.185,10.787l-5.899,15.373c-0.681,1.418 -1.578,2.39 -2.556,4.167l-29.229,55.919c-14.375,23.597 -30.707,44.948 -48.031,65.953c-15.743,19.086 -32.594,37.613 -51.901,53.061c-11.937,9.551 -23.079,20.591 -36.062,28.938l-34.18,22.829c-17.391,11.347 -35.734,20.709 -54.753,29.2c-1.758,0.785 -3.137,1.327 -4.833,2.243c-16.4,8.862 -11.689,4.603 -25.29,10.549l-77.241,22.785l-23.907,4.114c-9.217,0.792 -15.038,2.881 -25.025,3.055c-23.703,0.413 -38.734,-3.931 -54.409,-16.581c-9.164,-7.396 -17.09,-16.499 -22.329,-27.657l-5.548,-15.558c-2.688,-7.213 -2.448,-18.028 -2.057,-27.534c5.879,-2.04 10.685,-4.475 15.657,-8.315c2.04,-1.575 3.248,-2.068 5.324,-3.648c3.657,-2.781 5.068,-4.714 8.148,-7.949l8.029,-11.031c0.125,-0.183 0.297,-0.422 0.421,-0.608l8.33,-14.573c5.367,-7.912 8.372,-20.376 13.426,-27.238c3.228,1.05 11.682,8.556 15.625,11.18c0.604,0.402 5.044,3.225 5.057,3.236c1.829,1.663 -1.185,0.644 4.059,3.367c11.055,5.738 12.101,7.225 23.829,12.13c3.735,1.563 2.729,0.868 7.383,1.706c7.344,1.323 4.727,2.622 15.035,2.744c20.869,0.247 22.337,-5.277 30.301,-5.908l5.408,10.525c6.368,9.367 8.703,24.312 20.452,28.577c15.223,5.526 23.258,-12.505 15.962,-23.94c-5.379,-8.432 -9.485,-17.835 -14.531,-26.488c-1.35,-2.315 -2.249,-3.367 -2.945,-4.969c-2.08,-4.781 -3.81,-7.761 -1.987,-12.674c5.152,-13.884 6.677,-28.452 6.366,-43.822c-0.193,-9.57 -3.352,-20.83 -3.019,-29.925c12.391,-0.406 23.14,1.616 35.006,1.57c6.78,-0.026 11.175,-0.82 17.013,-1.135c8.144,-0.438 8.445,-3.227 16.166,-2.79Zm-773.18,-286.675c0,13.972 -0.464,28.834 1.613,42.387c1.508,9.847 -0.065,20.267 1.651,30.349l6.216,40.784c1.352,3.881 1.141,9.924 2.362,13.638l4.859,18.141c0.809,3.898 -0.056,3.213 1.308,6.692c1.309,3.34 1.268,1.527 1.946,6.054c0.765,5.108 -0.066,2.086 1.706,6.294c1.609,3.824 0.655,2.3 1.632,6.368l22.413,60.587c0.581,1.451 0.437,1.481 1.06,2.94c4.69,10.968 11.791,22.541 20.137,30.863l3.503,3.497c0.147,0.144 0.357,0.353 0.505,0.495c8.037,7.73 16.579,13.124 26.153,18.847c5.822,3.48 14.176,6.977 20.871,8.129c4.903,0.844 1.844,0.532 6.059,1.941c1.295,0.432 23.258,2.691 28.078,2.092c6.467,-0.803 14.095,-0.024 20.51,-2.517l36.906,-15.093c0.257,-0.15 1.038,-0.612 1.259,-0.742l27.952,11.555c3.629,0.745 4.987,2.699 10.301,2.699c11.359,0 32.555,1.637 42.94,-1.061c3.384,-0.879 4.468,-1.939 9.06,-1.939c0,15.936 -0.809,9.427 -1.881,17.118c-1.272,9.134 -1.655,25.733 0.88,33.882c1.377,4.424 0.473,4.04 1.118,8.883l5.298,14.702c0.096,0.22 0.198,0.487 0.289,0.711c2.229,5.512 -1.702,-4.35 0.52,1.48l5.462,9.538c2.84,4.013 5.477,6.868 9.157,9.843c5.233,4.231 11.69,7.839 18.354,9.646c11.77,3.193 11.113,2.196 23.803,2.196l16.58,-4.42c1.12,-0.412 1.774,-0.587 3.004,-0.996l27.881,-15.118c1.607,-0.96 2.549,-1.696 4.116,-2.885c2.781,-2.107 4.895,-3.693 7.428,-5.572l6.991,-6.008c0.369,0.695 1.533,2.623 1.806,3.194l11.489,25.511c0.146,0.264 0.609,0.98 0.761,1.239l12.182,17.818c5.245,5.677 10.095,11.04 16.473,15.527c1.605,1.129 1.297,0.888 3.004,1.996c14.829,9.631 9.293,2.247 12.74,25.26c0.51,3.4 0.219,7.121 0.807,10.193l17.636,40.364c4.17,6.231 9.359,12.021 14.935,17.065l3.084,2.916c0.542,0.524 1.873,1.762 2.607,2.393c0.976,0.839 1.839,1.537 2.75,2.249l7.183,4.818c0.187,0.113 0.44,0.26 0.624,0.376c1.428,0.894 0.326,0.238 1.785,1.216c1.308,0.876 2.071,1.383 3.698,2.301l7.199,3.801c1.483,0.631 2.133,0.69 3.652,1.347l11.324,4.677c14.078,5.182 44.247,5.359 57.301,2.778c4.524,-0.894 3.731,-1.619 7.996,-2.004c4.081,-0.367 7.085,-0.201 10.097,-0.902c4.834,-1.126 3.505,-1.707 8.875,-2.126c6.008,-0.469 4.433,-0.399 8.963,-2.037c4.136,-1.495 4.401,-0.368 8.769,-1.231l16.966,-5.034c4.089,-1.379 5.224,0.002 9.242,-1.758l102.734,-41.265c0.684,-0.401 0.823,-0.54 1.92,-1.08l33.845,-19.156c0.18,-0.117 0.422,-0.281 0.603,-0.396l5.013,-2.987c0.183,-0.116 0.43,-0.273 0.611,-0.389c0.25,-0.161 0.962,-0.629 1.209,-0.792l79.121,-61.879l24.889,-25.11c0.14,-0.152 0.335,-0.374 0.474,-0.527l7.089,-7.911c0.133,-0.158 0.325,-0.383 0.459,-0.54l51.759,-68.241c0.117,-0.182 0.274,-0.429 0.39,-0.611c9.945,-15.755 20.396,-32.103 27.931,-49.069l2.052,-3.948c0.104,-0.201 0.237,-0.457 0.338,-0.662l3.914,-8.086c0.096,-0.217 0.2,-0.486 0.298,-0.702c0.128,-0.283 0.513,-1.076 0.644,-1.356l5.522,-12.478c0.295,-0.626 1.005,-1.949 1.019,-1.981l1.947,-5.053c0.092,-0.217 0.221,-0.469 0.317,-0.683l19.442,-55.558c0.751,-2.602 1.011,-1.957 1.781,-4.219l2.407,-8.593c2.007,-4.727 0.603,-4.478 1.791,-9.209c0.763,-3.035 1.914,-3.889 2.387,-7.613c0.83,-6.548 0.212,-4.08 2.024,-8.976c1.69,-4.567 0.582,-4.761 1.247,-9.753c0.449,-3.367 2.115,-5.046 2.652,-8.348c0.541,-3.335 -0.081,-5.969 0.63,-9.369c0.581,-2.78 1.994,-6.059 2.366,-8.634c0.517,-3.575 -0.097,-7.195 0.335,-10.666c1.54,-12.385 2.844,-8.571 2.858,-29.142c0.006,-8.146 2.034,-11.749 2.034,-19.965l0,-40c0,-6.363 -1.56,-8.783 -1.96,-14.04c-0.928,-12.199 0.495,-17.477 -2.568,-29.432c-1.125,-4.391 -0.074,-10.041 -0.994,-15.006c-1.288,-6.955 -2.324,-5.089 -2.472,-13.529c-0.131,-7.531 -2.373,-7.176 -2.953,-13.046c-0.402,-4.067 0.087,-3.829 -0.889,-7.111l-2.869,-13.131c-1.027,-3.02 -1.589,-2.121 -2.151,-5.849c-1.317,-8.729 -4.483,-17.078 -6.448,-25.552c-3.042,-13.125 -8.713,-25.835 -13.4,-38.6l-2.867,-7.133c-0.089,-0.235 -0.171,-0.506 -0.255,-0.745l-28.527,-60.472c-1.209,-2.233 -1.62,-3.148 -2.824,-5.177c-6.094,-10.282 -12.003,-21.289 -18.963,-31.037c-0.123,-0.171 -0.296,-0.409 -0.421,-0.579l-7.846,-11.154c-0.119,-0.179 -0.272,-0.431 -0.388,-0.612c-10.547,-16.492 -21.171,-27.055 -31.78,-41.22l-22.841,-25.159c-0.95,-0.949 -1.05,-1.049 -2,-2l-9.844,-10.156c-1.064,-1.064 -1.034,-0.936 -2.097,-1.903l-97.444,-74.556c-1.721,-1.048 -3.293,-2.005 -5.003,-2.997l-39.131,-20.869c-0.199,-0.106 -0.455,-0.24 -0.66,-0.34l-13.006,-5.994c-1.482,-0.569 -1.685,-0.427 -3.051,-0.949c-0.23,-0.087 -0.498,-0.185 -0.72,-0.28l-1.321,-0.679c-0.2,-0.101 -0.431,-0.269 -0.63,-0.37c-0.272,-0.139 -1.029,-0.561 -1.311,-0.689c-0.217,-0.098 -0.485,-0.201 -0.707,-0.294l-17.799,-7.2c-1.887,-0.781 0.173,-0.123 -2.778,-1.221l-5.906,-2.095c-11.342,-4.819 -24.174,-8.413 -35.75,-12.25l-65.113,-14.887c-4.215,-0.878 -10.156,-0.369 -14.453,-1.547c-6.758,-1.853 -14.562,-1.641 -21.908,-2.092c-6.594,-0.406 -3.318,-2.048 -6.952,-2.048l-86,0c-3.799,0 -0.121,1.351 -6.012,1.988c-6.921,0.747 -15.715,0.144 -22.102,1.898c-5.429,1.491 -8.998,0.456 -14.346,1.653c-6.281,1.405 -6.969,2.214 -13.545,2.456l-45.003,10.996c-3.62,1.42 -13.096,2.836 -19.497,5.503c-7.362,3.067 -16.395,4.756 -23.976,8.024l-32.115,12.886c-0.215,0.098 -0.484,0.201 -0.701,0.298c-0.283,0.127 -1.13,0.459 -1.409,0.591l-22.378,10.622c-3.735,1.89 -6.948,3.238 -10.718,5.282c-1.733,0.941 -3.344,2.052 -4.992,3.008l-40.13,23.87c-0.188,0.112 -0.441,0.259 -0.63,0.37c-13.8,8.125 -28.581,20.769 -41.595,30.405l-43.442,38.559c-0.151,0.139 -0.363,0.345 -0.512,0.487l-17.485,18.515c-0.146,0.145 -0.36,0.35 -0.505,0.495l-1,1c-0.143,0.148 -0.35,0.36 -0.491,0.509c-0.142,0.15 -0.346,0.364 -0.485,0.515l-46.811,60.189c-0.117,0.181 -0.273,0.429 -0.39,0.61l-31.128,51.872c-0.639,1.292 -0.582,1.488 -1.218,2.783l-3.337,6.662c-0.103,0.198 -0.257,0.441 -0.363,0.638l-22.341,51.658c-0.925,2.887 -1.418,3.703 -2.103,5.897l-3.127,8.873c-0.414,1.479 -0.253,1.574 -0.772,3.228l-7.865,24.135c-0.818,3.011 -0.183,3.804 -1.193,6.807c-2.104,6.255 -4.59,13.117 -5.273,19.727l-3.973,20.027c-2.268,6.826 -1.108,6.201 -2.162,13.838c-0.626,4.536 -2.668,9.222 -2.876,14.125c-0.104,2.477 0.236,5.498 -0.113,7.886c-1.092,7.468 -2.903,7.959 -2.92,21.081c-0.018,14.548 -1.966,21.141 -1.966,31.034Z" style="fill:#010200;"/><path d="M237.631,1311.58c-0.059,-22.658 2.828,-41.173 7.721,-62.088c2.987,-12.764 8.99,-33.009 15.104,-44.106l3.109,-6.554c6.355,-15.663 15.854,-30.1 24.905,-44.403c7.907,-12.497 22.059,-26.095 29.217,-35.945l41.3,-32.562c9.415,-7.504 18.089,-10.583 27.337,-16.682c0.174,-0.115 0.404,-0.299 0.575,-0.413l16.005,-7.787c5.506,-1.733 8.312,-2.773 13.111,-5.05c8.007,-3.799 17.043,-5.802 25.338,-8.581c3.184,-1.066 11.005,-2.274 14.274,-3.019c5.217,-1.189 9.567,-3.188 13.954,-3.515c6.052,-0.452 10.402,-0.826 15.445,-1.66c20.217,-3.346 44.708,-1.228 64.748,1.209c6.104,0.742 9.473,2.37 14.858,2.856c9.372,0.847 20.64,3.875 29.809,5.907c5.247,1.163 0.495,0.784 6.212,2.561l12.917,4.03c0.187,0.088 0.422,0.247 0.605,0.34l28.701,13.266c12.499,7.009 9.759,7.582 15.625,9.966c6.324,2.569 17.675,10.387 22.325,15.095c0.145,0.146 0.345,0.36 0.489,0.506l0.997,1.001c6.171,6.092 14.435,10.473 20.665,16.275c10.925,10.175 24.605,24.191 32.45,36.595c2.452,3.877 4.76,5.493 7.35,9.55c16.412,25.698 24.594,41.067 34.259,69.843c4.528,13.484 12.172,43.423 12.877,55.479c1.009,17.279 3.896,37.301 0.351,54.65c-0.778,3.811 -0.577,6.961 -0.869,11.235c-0.709,10.368 -4.853,20.51 -5.82,30.029c-0.676,6.647 -1.149,4.337 -2.525,9.498c-5.441,20.404 -11.655,43.47 -32.202,51.631c-7.26,2.883 -20.083,2.209 -27.15,-1.068l-36.413,-17.716c-9.066,-3.242 -16.941,-6.521 -24.738,-11.325c-3.163,-1.948 -4.664,-2.729 -7.817,-4.264l-17.267,-9.581c-6.936,-3.936 -15.221,-6.288 -22.747,-9.651c-0.215,-0.096 -0.49,-0.199 -0.699,-0.297l-14.794,-7.253l-0.133,-4.002c2.197,-1.239 2.743,-0.945 5.067,-2.457l12.151,-8.795c6.318,-4.483 10.991,-6.759 17.453,-11.636l86.1,-58.851c10.368,-8.857 3.585,-25.279 -10.278,-24.821c-10.202,0.338 -27.188,16.019 -36.685,21.807l-25.353,17.621c-8.093,5.721 -17.265,9.491 -25.035,16.034l-27.193,18.813c-4.115,3.246 -11.633,10.409 -17.732,10.358c-0.273,-17.269 1.97,-16.993 3.063,-29.139c1.29,-14.338 5.289,-27.747 5.805,-40.903c0.214,-5.452 0.135,-9.319 1.368,-13.862c1.213,-4.473 1.419,-9.192 1.864,-14.101c0.456,-5.039 1.904,-8.405 2.435,-12.255c0.682,-4.941 0.223,-10.269 1.001,-15.41l4.721,-25.773c0.71,-4.672 0.116,-9.654 0.944,-14.354c0.869,-4.934 2.119,-7.601 2.398,-13.255c0.285,-5.764 0.117,-8.981 1.365,-14.018c2.215,-8.936 -1.631,-16.461 -9.528,-19.404c-9.877,-3.682 -17.384,3.658 -18.973,10.703c-1.905,8.444 -1.475,20.538 -3.492,27.733c-2.448,8.731 -4.373,33.489 -4.598,43.031c-0.155,6.543 -1.945,6.892 -2.653,11.849c-0.873,6.111 0.194,8.608 -1.477,14.553l-4.13,26.788c-2.03,13.624 -2.171,27.377 -5.127,40.981c-0.878,4.038 -2.331,24.237 -4.905,25.726c-1.99,0.993 0.94,1.247 -1.232,-0.191c-2.986,-1.976 -5.571,-7.985 -7.567,-11.03l-25.442,-37.516c-3.067,-4.713 -5.613,-8.609 -8.684,-13.401c-3.15,-4.915 -6.08,-8.053 -8.65,-12.207c-16.019,-25.892 -33.716,-51.799 -50.788,-76.265c-3.308,-4.742 -4.663,-8.04 -8.292,-12.684c-7.652,-9.791 -16.679,-35.417 -33.479,-23.729c-11.859,8.25 -5.477,18.496 0.844,28.385c3.362,5.26 6.246,7.958 8.768,12.077c10.616,17.339 22.674,33.438 33.487,50.579l25.863,38.083c1.194,1.856 2.396,4.955 3.959,7.129l12.645,18.341c5.523,9.376 14.645,21.022 21.175,31.913c3.271,5.455 11.18,13.49 11.498,19.636c-4.352,-0.756 -9.738,-1.839 -14.062,-3.091c-4.634,-1.342 -9.905,-1.351 -14.767,-2.602c-3.43,-0.882 -1.852,-1.273 -6.331,-2.231c-6.845,-1.463 -13.038,-2.032 -19.995,-4.321l-81.878,-19.154c-4.233,-0.724 -2.419,-1.061 -6.666,-2.17l-47.213,-10.831c-11.828,-3.731 -23.658,8.07 -18.284,18.369c0.14,0.269 0.605,0.908 0.748,1.16c4.222,7.403 6.585,7.11 15.489,9.689l94.63,22.387c3.328,0.737 2.76,1.587 6.372,2.285c6.623,1.279 14.179,2.206 20.673,4.469c8.717,3.038 18.617,2.772 27.172,5.986l26.153,6.72c5.197,1.155 9.05,0.277 13.222,2.252c-1.557,5.229 -11.867,10.208 -16.372,13.047c-6.598,4.158 -11.206,7.777 -17.103,11.903c-9.766,6.831 -16.659,13.034 -26.069,18.853c-3.982,2.462 -5.327,2.722 -8.62,5.454l-54.338,38.57c-5.378,3.612 -8.209,11.317 -5.028,18.17c10.275,22.135 39.52,-8.627 56.31,-18.758c3.787,-2.286 5.5,-4.05 9.007,-6.098c5.989,-3.496 11.011,-8.485 16.965,-11.997c1.523,-0.898 3.996,-2.047 5.192,-2.91c12.213,-8.812 25.25,-20.641 38.506,-27.47c6.298,-3.244 10.845,-10.821 18.153,-10.886c0.905,14.353 0.738,38.601 -0.231,52.997c-1.111,16.509 -1.12,33.26 -1.599,51.169c-0.22,8.229 -0.717,16.832 -0.76,25.956c-0.04,8.469 -0.661,12.56 -3.725,19.452c-0.559,1.259 -0.97,1.792 -1.126,2.032c-4.252,6.584 -5.28,9.187 -11.936,14.165c-13.327,9.967 -35.05,5.916 -50.569,2.233c-27.667,-6.564 -55.056,-13.974 -78.957,-28.918c-2.308,-1.443 0.282,-0.013 -2.481,-1.419c-0.205,-0.105 -0.478,-0.213 -0.687,-0.318l-2.058,-1.025c-0.18,-0.103 -2.45,-1.651 -2.997,-2.041l-27.433,-17.626c-8.973,-6.19 -15.453,-12.424 -22.63,-19.363l-20.28,-20.677c-10.474,-12.049 -18.913,-25.64 -27.801,-39.301c-10.151,-15.6 -15.003,-27.854 -21.578,-44.264l-4.355,-12.56c-0.745,-3.354 -1.393,-4.256 -2.125,-7.017c-0.636,-2.396 -0.579,-4.702 -1.267,-6.916c-1.321,-4.247 -1.271,-0.411 -2.167,-5.512c-3.943,-22.458 -7.177,-42.401 -7.244,-67.925Zm266.109,309l-25.855,0c-1.03,-0.059 -0.928,-0.146 -2.565,-0.695l-19.402,-3.598c-3.558,-1.018 -4.458,-0.339 -8.06,-0.94c-2.43,-0.406 -4.577,-1.958 -6.565,-2.435c-3.936,-0.943 -3.847,0.157 -7.668,-1.332l-14.307,-4.693c-8.891,-2.189 -17.746,-5.876 -26.171,-9.828c-4.483,-2.103 -8.29,-3.443 -12.441,-5.56l-68.627,-45.373c-0.222,-0.188 -0.857,-0.732 -1.079,-0.921l-4.783,-4.217c-0.939,-0.893 -0.908,-0.929 -2.02,-1.98c-1.858,-1.754 -3.022,-2.7 -4.665,-4.335l-21.445,-23.554c-0.135,-0.158 -0.327,-0.382 -0.461,-0.54l-6.903,-8.097c-0.038,-0.041 -1.815,-2.107 -1.848,-2.152c-1.672,-2.235 -1.848,-3.383 -3.454,-5.546l-26.265,-42.735c-4.493,-8.98 -9.452,-18.921 -12.414,-28.586l-2.526,-6.474c-0.656,-1.709 -0.525,-2.124 -1.099,-3.902c-1.774,-5.498 -4.633,-12.118 -5.446,-17.553c-0.834,-5.564 -0.392,-2.806 -2.049,-6.951c-1.648,-4.127 -0.412,-4.214 -1.268,-8.732c-0.449,-2.369 -1.668,-3.58 -2.342,-6.657c-0.692,-3.153 -0.093,-5.428 -0.512,-8.489c-0.458,-3.339 -1.098,-2.955 -1.914,-7.086c-1.025,-5.182 -0.763,-10.676 -0.925,-17.075c-0.165,-6.512 -2.036,-9.029 -2.036,-15.964l0,-21c0,-7.265 1.985,-9.728 2.04,-16.961c0.05,-6.44 -0.091,-11.348 1.261,-16.738l2.915,-16.086c2.212,-6.766 3.217,-15.914 5.267,-22.733c1.371,-4.564 1.368,-0.74 2.463,-6.537l0.637,-3.363c0.08,-0.236 0.2,-0.485 0.291,-0.709l2.285,-6.715c0.868,-3.494 0.002,-0.598 1.053,-2.947c0.848,-1.894 0.865,-1.477 1.502,-3.498l3.585,-9.415c4.361,-11.364 10.255,-22.363 15.972,-33.028l19.364,-30.636c0.17,-0.24 0.655,-0.934 0.822,-1.178l35.446,-40.553c7.004,-7.01 15.102,-12.929 22.635,-19.366c10.274,-8.78 26.396,-19.584 38.231,-25.769l23.849,-12.151c0.207,-0.098 0.451,-0.243 0.662,-0.338l6.518,-2.482c18.675,-9.035 24.803,-8.633 39.769,-14.231l14.88,-4.119c4.032,-1.029 2.107,0.589 15.15,-2.851c4.843,-1.277 10.621,-0.486 16.196,-1.804c15.626,-3.693 35.97,-1.793 52.208,-1.793c8.561,0 15.12,2.69 22.995,3.005l28.134,4.866c3.484,1.261 2.875,0.623 6.723,1.277c3.657,0.621 3.081,1.206 6.786,2.214l19.263,5.737c1.123,0.379 2.354,0.645 3.82,1.18l26.052,10.948c8.901,3.39 17.805,8.723 25.536,13.464c0.185,0.114 0.429,0.272 0.615,0.385c0.186,0.113 0.439,0.261 0.626,0.374l3.144,1.856c0.185,0.112 0.426,0.276 0.612,0.388l13.27,8.73c13.157,9.473 25.662,19.515 37.538,30.462c0.768,0.707 1.23,1.031 2.118,1.882c1.166,1.118 1.307,1.374 2.408,2.592l19.444,21.556c7.519,8.074 13.859,17.671 20.2,26.8l4.165,6.834c0.113,0.189 0.256,0.445 0.367,0.634c0.112,0.189 0.254,0.444 0.366,0.634c0.112,0.189 0.255,0.444 0.367,0.633l5.268,8.732c0.112,0.188 0.255,0.444 0.367,0.633l11.583,22.417c0.121,0.29 0.418,1.171 0.538,1.462l2.994,7.006c0.671,1.757 1.314,3.168 2.333,5.667l8.792,24.208c0.002,0.006 0.784,2.927 0.858,3.142l7.593,29.407c0.404,3.575 -0.144,4.746 0.735,8.266c3.237,12.964 1.176,11.901 2.628,22.371c0.788,5.68 1.685,7.355 1.735,15.265c0.037,5.964 1.311,8.282 1.072,14.993l-1.088,15.938c-0.4,5.576 -2.025,7.977 -1.986,15.015c0.052,9.137 -0.063,8.006 -2.138,14.861c-1.487,4.913 -0.023,8.588 -2.104,13.896c-1.628,4.148 -1.778,9.673 -3.301,13.699l-12.266,37.734c-5.821,15.613 -16.015,26.613 -29.591,35.409l-12.336,5.664c-3.74,1.52 -1.359,1.161 -7.043,1.957c-2.348,0.329 -3.868,0.617 -6.778,1.224c-8.903,1.859 -18.647,0.928 -27.855,-1.976l-6.539,-2.461c-6.845,-2.374 -13.726,-6.46 -20.094,-9.906l-18.665,-9.335c-0.82,-0.439 -1.046,-0.519 -1.988,-1.012l-6.658,-3.342c-2.166,-1.068 -0.952,-0.596 -2.569,-1.432l-7.336,-3.662c-0.281,-0.13 -1.131,-0.459 -1.417,-0.584l-66.009,-32.991c-0.643,-0.387 -1.34,-1.083 -2.285,-1.715c0.117,5.231 1.438,5.365 3.516,9.484c6.646,13.174 15.562,24.479 23.019,36.98l10.187,13.814c0.772,0.965 0.566,0.665 1.365,1.635l2.622,3.378c0.126,0.168 0.296,0.41 0.423,0.577l17.781,20.219c0.533,0.528 0.802,0.796 1.504,1.496c0.736,0.734 0.923,0.923 1.5,1.5l31.804,28.196c0.47,0.369 1.112,0.904 1.65,1.35l23.461,15.539c1.808,1.038 0.223,0.159 1.851,1.15c0.665,0.404 1.045,0.633 1.874,1.125l45.733,20.267c3.131,0.966 5.296,1.446 8.12,3.88l4.581,7.489c2.501,8.889 -2.735,19.92 -13.991,19.92c-12.503,0 -36.48,-11.313 -47.868,-17.131l-18.26,-9.74c-5.981,-2.94 -11.224,-7.694 -16.926,-11.074l-33.839,-27.162c-0.151,-0.139 -0.368,-0.34 -0.518,-0.481c-0.15,-0.141 -0.364,-0.346 -0.512,-0.488l-35.648,-39.352c-1.544,-2.07 -2.251,-3.119 -3.904,-5.096l-28.396,-42.808c-1.963,-2.554 2.009,-1.488 -1.039,-0.835c-1.856,0.397 -1.149,5.022 -1.137,7.098c0.08,14.187 0.301,97.102 -1.361,108.661c-1.56,10.845 -2.337,19.877 -7.316,29.684c-1.931,3.802 -4.452,7.734 -6.968,11.033l-11.522,11.478l-24.552,12.447c-0.257,0.072 -0.515,0.156 -0.765,0.235c-0.242,0.077 -0.489,0.193 -0.726,0.274c-0.305,0.106 -1.103,0.487 -1.413,0.587c-1.192,0.387 -2.202,0.58 -3.215,0.671Z" style="fill:#010200;"/><path d="M1324.92,805.697c-2.354,4.595 1.175,-0.392 -1.592,2.42c-1.935,1.968 -3.311,1.437 -5.543,2.46l23.067,5.974c3.256,0.845 5.282,0.45 8.369,0.951c4.403,0.713 3.161,1.624 7.378,2.39c2.805,0.509 5.777,0.069 8.524,0.71c4.441,1.035 1.189,1.61 7.403,2.469l38.421,8.163c3.434,0.977 6.012,0.555 9.313,1.158c3.412,0.622 3.423,1.489 6.478,2.124c6.638,1.379 5.807,-0.909 10.154,3.693l5.787,7.062c0.079,0.201 0.174,0.466 0.237,0.688c0.683,2.407 0.513,5.732 -0.128,7.988c-4.908,17.261 -26.028,11.564 -41.293,7.114l-63.399,-13.034c0.694,4.671 3.581,9.102 5.043,12.923c1.001,2.616 3.344,10.998 3.72,13.637c1.918,13.478 1.075,27.339 -5.075,38.272c-4.472,7.948 -13.415,16.486 -21.34,20.821c-3.158,1.728 -7.589,4.892 -12.644,4.572c-7.721,-0.437 -8.022,2.352 -16.166,2.79c-5.838,0.315 -10.233,1.109 -17.013,1.135c-11.866,0.046 -22.615,-1.976 -35.006,-1.57c-0.333,9.095 2.826,20.355 3.019,29.925c0.311,15.37 -1.214,29.938 -6.366,43.822c-1.823,4.913 -0.093,7.893 1.987,12.674c0.696,1.602 1.595,2.654 2.945,4.969c5.046,8.653 9.152,18.056 14.531,26.488c7.296,11.435 -0.739,29.466 -15.962,23.94c-11.749,-4.265 -14.084,-19.21 -20.452,-28.577l-5.408,-10.525c-7.964,0.631 -9.432,6.155 -30.301,5.908c-10.308,-0.122 -7.691,-1.421 -15.035,-2.744c-4.654,-0.838 -3.648,-0.143 -7.383,-1.706c-11.728,-4.905 -12.774,-6.392 -23.829,-12.13c-5.244,-2.723 -2.23,-1.704 -4.059,-3.367c-0.013,-0.011 -4.453,-2.834 -5.057,-3.236c-3.943,-2.624 -12.397,-10.13 -15.625,-11.18c-5.054,6.862 -8.059,19.326 -13.426,27.238l-8.33,14.573c-0.124,0.186 -0.296,0.425 -0.421,0.608l-8.029,11.031c-3.08,3.235 -4.491,5.168 -8.148,7.949c-2.076,1.58 -3.284,2.073 -5.324,3.648c-4.972,3.84 -9.778,6.275 -15.657,8.315c-0.391,9.506 -0.631,20.321 2.057,27.534l5.548,15.558c5.239,11.158 13.165,20.261 22.329,27.657c15.675,12.65 30.706,16.994 54.409,16.581c9.987,-0.174 15.808,-2.263 25.025,-3.055l23.907,-4.114l77.241,-22.785c13.601,-5.946 8.89,-1.687 25.29,-10.549c1.696,-0.916 3.075,-1.458 4.833,-2.243c19.019,-8.491 37.362,-17.853 54.753,-29.2l34.18,-22.829c12.983,-8.347 24.125,-19.387 36.062,-28.938c19.307,-15.448 36.158,-33.975 51.901,-53.061c17.324,-21.005 33.656,-42.356 48.031,-65.953l29.229,-55.919c0.978,-1.777 1.875,-2.749 2.556,-4.167l5.899,-15.373c1.667,-4.364 2.604,-6.436 4.185,-10.787c3.812,-10.49 7.965,-19.689 10.947,-30.904c2.073,-7.795 4.677,-15.517 6.183,-22.939l11.696,-59.122c0.222,-4.35 -0.126,-9.362 0.927,-13.391c3.648,-13.96 4.838,-63.67 2.659,-81.252c-1.879,-15.151 -1.104,-38.553 -4.441,-52.872l-1.869,-12.522c-0.242,-4.986 -2.096,-6.074 -3.013,-10.388c-0.515,-2.421 -0.424,-4.47 -1.093,-6.928c-2.221,-8.167 -0.957,-8.875 -3.945,-17.024c-1.738,-4.737 0.179,-6.118 -2.636,-11.202c-1.931,-3.489 -3.012,-6.049 -3.865,-10.344c-3.306,-16.649 -15.969,-46.131 -22.774,-62.079c-6.01,-14.085 -13.018,-24.746 -19.114,-37.669c-1.636,-3.468 -3.188,-6.131 -4.885,-9.292c-1.646,-3.068 -3.52,-5.592 -5.257,-8.643c-10.707,-18.813 -15.076,-22.326 -22.511,-34.454c-3.709,-6.052 -7.472,-10.431 -12.026,-16.036l-12.428,-15.577c-8.145,-10.555 -17.949,-20.566 -27.159,-29.872l-33.067,-30.942c-1.593,-1.42 -2.08,-2.05 -3.617,-3.369l-31.81,-24.184c-4.143,-2.558 -4.52,-3.114 -7.969,-6.037l-22.538,-14.378c-0.191,-0.117 -0.437,-0.275 -0.625,-0.392l-40.985,-22.786l-60.29,-23.36c-8.335,-2.502 -17.955,-7.771 -30.826,-10.707l-14.608,-3.572c-2.305,-0.67 -1.547,-0.593 -2.164,-0.885c-6.274,-2.972 -11.265,-2.116 -17.812,-3.867c-13.793,-3.689 -46.975,-5.891 -62.835,-8.233c-23.012,-3.398 -58.707,-1.758 -80.986,0.814c-26.154,3.02 -70.999,9.374 -95.351,17.499l-22.387,6.728c-18.133,5.128 -75.844,29.794 -92.06,41.773l-13.969,7.895c-3.227,1.915 -5.368,3.673 -8.423,5.534c-3.322,2.023 -5.897,3.054 -9.168,5.059l-28.777,20.415c-0.072,0.068 -0.256,0.272 -0.327,0.341l-2.608,2.37c-12.701,10.86 -25.786,20.803 -38.068,33.028c-5.161,5.136 -9.404,9.41 -14.233,13.792c-5.165,4.687 -8.537,10.223 -13.127,14.814c-3.01,3.01 -4.643,4.243 -7.254,7.738l-28.456,35.475c-1.034,1.58 -2.038,2.401 -3.099,3.875l-22.495,34.567c-2.419,3.487 -3.16,5.51 -5.054,8.833c-0.113,0.196 -0.257,0.452 -0.37,0.646l-18.635,36.283c-1.491,3.436 -2.977,6.255 -4.105,9.873l-22.816,63.227c-0.731,2.823 -0.295,3.173 -1.379,5.823c-2.371,5.797 -1.582,6.294 -3.053,10.707c-1.141,3.422 -1.386,0.975 -2.144,4.472c-0.582,2.684 0.018,4.276 -0.858,7.461c-2.979,10.826 -1.266,10.259 -3.099,17.999l-4.023,24.235c-1.129,8.684 -2.289,16.526 -3.095,24.793c-3.646,37.402 -2.5,84.329 2.7,121.84c0.601,4.338 1.907,5.449 2.558,11.11c0.49,4.254 3.101,22.054 4.233,24.859c2.621,6.497 3.298,15.997 5.402,22.69c1.012,3.221 2.266,6.282 3.467,10.306c1.344,4.502 0.962,8.459 2.468,11.816l9.383,27.473c0.104,0.19 0.281,0.422 0.385,0.619l19.158,38.596c0.123,0.179 0.287,0.424 0.414,0.601c6.046,8.47 13.283,16.716 22.663,21.598c6.149,3.201 12.422,7.384 20.104,8.878c5.113,0.995 5.376,2.128 12.102,2.365l21.154,0.007c2.137,-0.195 1.71,-0.004 3.645,-0.758c6.972,-2.718 9.059,-1.923 13.403,-3.565c10.432,-3.944 10.708,-3.675 19.414,-8.67c0.489,-5.719 -1.058,-8.4 -1.105,-14.631c-0.043,-5.567 0.928,-9.229 1.67,-14.526c1.328,-9.493 4.504,-16.147 7.646,-23.661c2.718,-6.498 1.413,-4.945 5.624,-10.331l18.342,-28.473l-14.029,-4.742c-21.219,-9.553 -38.063,-19.057 -52.208,-38.766c-8.721,-12.152 -6.418,-26.142 -11.726,-27.293c-11.608,-2.516 -30.049,4.57 -41.877,-0.134c-9.058,-3.602 -9.616,-16.089 -5.085,-22.189c5.473,-7.367 32.344,-6.848 41.124,-7.057c5.006,-0.119 11.835,0.866 16.208,-0.785c3.844,-1.452 5.432,-4.982 8.027,-7.847l21.347,-17.662c0.224,-0.182 0.873,-0.704 1.1,-0.883l14.949,-8.955c7.35,-3.515 15.138,-5.733 22.695,-8.687c-0.936,-2.803 -4.349,-5.171 -6.38,-7.998l-12.297,-17.727c-12.353,-17.895 -25.412,-48.228 -13.286,-71.967c1.522,-2.98 1.135,-1.875 2.624,-4.251c4.8,-7.658 5.39,-9.933 13.628,-15.512l19.107,-9.794c8.358,-3.451 16.146,-3.258 25.009,-4.142c-0.179,-3.672 -26.533,-29.956 -30.64,-34.635c-1.959,-2.231 -2.662,-3.698 -4.979,-6.041l-24.304,-25.686c-0.282,-0.308 -2.08,-2.52 -2.21,-2.728c-7.393,-11.793 3.916,-24.619 18.384,-21.324c4.042,0.921 8.439,7.186 11.478,10.384c16.125,16.961 48.899,55.402 63.181,68.826c2.518,2.366 3.179,2.86 5.553,5.411l4.965,5.286c0.503,-6.274 -1.973,-18.19 -2.088,-28.102c-0.214,-18.495 1.322,-34.267 9.621,-50.384c11.762,-22.845 39.464,-31.316 63.102,-24.444c5.809,1.688 6.734,1.502 11.408,3.596c3.798,1.701 6.349,2.504 10.484,4.532c5.236,2.567 12.307,9.518 19.007,9.423c-0.613,-4.145 -1.74,-3.927 -2.162,-9.717c-0.462,-6.336 -0.072,-4.525 -1.987,-9.697c-5.813,-15.697 -8.447,-40.967 -13.602,-58.21l-10.962,-49.111c-0.831,-10.697 -6.809,-19.267 6.25,-25.023c6.008,-2.648 13.93,-1.256 17.716,4.142c4.242,6.049 7.906,30.403 9.73,38.31c0.939,4.072 1.085,6.446 1.83,10.361c0.685,3.599 1.718,4.345 2.462,8.317c3.388,18.086 7.968,32.627 11.406,48.31l7.139,27.286c0.075,-0.163 0.337,0.416 0.527,0.605c2.652,-1.779 1.655,-1.903 3.389,-4.945c6.743,-11.835 14.72,-21.987 25.641,-30.338l8.982,-6.859c11.028,-6.22 28.934,-6.361 40.24,-2.256c5.727,2.08 10.235,5.741 14.799,9.002c1.545,1.103 3.066,1.666 4.933,3.073c5.805,4.374 10.502,11.147 15.103,16.91c11.353,14.219 10.932,19.827 16.8,31.264c1.962,3.823 2.868,8.15 4.434,11.512c4.606,-0.634 13.6,-10.273 17.922,-13.356c5.83,-4.159 13.366,-8.372 19.404,-11.658c13.35,-7.265 13.139,-5.231 22.331,-8.606c9.366,-3.438 18.566,-0.555 29.022,-2.101l41.149,-72.847c9.915,-19.464 22.069,-37.146 31.36,-54.483c2.636,-4.917 5.936,-13.754 10.753,-17.354c3.58,-2.676 11.73,-4.213 15.839,-1.227l3.799,4.019c7.602,7.446 1.385,14.634 -1.943,21.613l-12.83,24.469c-8.303,16.779 -19.79,31.613 -27.681,48.318c-4.162,8.813 -9.889,15.396 -13.881,23.923c-1.162,2.483 -2.781,4.265 -3.744,6.251c-3.481,7.184 -15.112,24.922 -16.573,30.848c-1.272,5.156 3.918,8.822 5.874,12.464c8.124,15.118 10.284,28.422 10.28,47.068c-0.001,6.318 -0.019,12.732 -0.298,19.041c-0.291,6.566 -2.084,9.949 -2.106,15.984c14.452,0.199 32.386,-3.04 56.05,-1.7c8.955,0.507 32.487,10.171 37.796,15.793c12.821,13.577 14.489,23.859 13.754,46.896c-0.597,18.701 -14.003,34.173 -14.719,42.079c3.743,0.093 31.733,-9.308 38.363,-11.868l56.412,-17.847c11.356,-3.496 26.491,-12.587 38.428,-10.83c8.957,1.319 13.651,11.884 9.166,19.703l-2.818,4.087c-5.373,6.029 -36.494,12.325 -41.18,14.252l-2.375,1.422c-0.21,0.11 -0.45,0.265 -0.673,0.369c-0.235,0.11 -0.486,0.237 -0.734,0.337l-90.521,31.228c-1.531,1.977 16.286,11.06 17.919,12.144c12.89,8.558 23.148,18.869 30.637,32.316c2.464,4.423 3.369,4.98 3.984,11.558c0.459,4.913 1.811,8.359 0.976,13.695c-2.853,18.251 -10.27,28.362 -22.678,40.137l-13.671,10.432c-4.206,2.598 -20.543,12.968 -24.814,12.892Z" style="fill:#56ad12;"/><path d="M977.486,748.577c-1.566,-9.55 0.651,-18.793 2.544,-26.785c1.723,-7.277 5.922,-13.562 10.883,-18.926c16.631,-17.983 39.67,-26.992 63.478,-18.963c20.586,6.942 29.592,19.442 38.098,36.845c2.66,5.442 1.706,6.047 2.664,12.486c4.504,30.296 -12.876,53.194 -39.045,63.893c-14.197,5.805 -24.743,3.428 -37.656,0.548c-4.956,-1.106 -7.061,-2.138 -10.62,-4.345c-17.859,-11.074 -26.882,-23.629 -30.346,-44.753Zm222.25,-7.846c-4.377,-7.189 -19.474,-9.335 -26.707,-12.428c-5.453,-2.331 -4.579,-0.772 -10.359,-1.65c-6.243,-0.948 -4.408,-2.476 -14.016,-2.614c-28.465,-0.408 -35.95,0.155 -50.254,-18.156c-8.967,-11.479 -7.045,-26.802 -0.321,-39.888l8.238,-17.809c1.351,-3.041 1.496,-2.73 2.326,-5.76c3.733,-13.629 9.183,-26.664 8.432,-43.34c-12.839,5.451 -33.226,27.317 -39.234,37.829c-5.435,9.508 -8.651,14.726 -15.413,22.532c-1.747,2.016 -3.174,3.07 -5.359,4.451l-4.191,2.825c-2.753,1.698 -14.927,3.731 -17.272,3.769c-24.822,0.405 -34.514,-23.682 -50.463,-44.474c-4.341,-5.658 -24.75,-25.017 -31.301,-25.221c-1.547,13.163 2.119,20.056 5.013,29.335c3.1,9.937 4.317,15.381 9.529,25.572c4.036,7.893 8.244,14.524 11.034,23.957c4.386,14.827 -3.083,27.844 -12.909,36.785c-3.052,2.778 -13.201,7.483 -18.828,7.698c-14.584,0.555 -13.806,1.833 -23.026,2.52c-11.083,0.826 -47.883,7.265 -51.658,16.913c3.338,1.753 8.334,3.255 11.901,4.714c24.565,10.041 24.507,5.977 39.809,9.941c8.956,2.32 23.077,-0.876 31.901,2.464c16.343,6.186 26.462,25.145 23.079,43.758c-1.286,7.079 -6.162,13.476 -7.655,17.594c-1.07,2.952 -0.612,3.366 -2.005,6.126c-8.478,16.799 -13.915,34.22 -13.054,53.956c3.169,-0.871 9.673,-5.71 12.243,-7.969c1.645,-1.447 3.151,-3.13 5.114,-4.835l13.733,-14.314c2.932,-3.454 5.336,-7.38 7.501,-10.561l1.585,-2.517c0.114,-0.182 0.256,-0.443 0.37,-0.622c10.001,-15.696 18.416,-29.436 41.139,-29.161c4.341,0.052 12.333,1.893 16.026,3.498c4.136,1.797 7.798,4.892 10.63,8.216c14.697,17.254 3.46,12.158 33.274,41.746c6.175,6.128 13.277,12.948 21.236,16.134c0.14,-6.839 -1.543,-9.313 -1.962,-16.158c-0.466,-7.615 -1.511,-8.154 -3.019,-14.216c-2.459,-9.887 -10.475,-26.227 -15.558,-35.355c-5.428,-9.746 -6.718,-16.301 -5.304,-28.287c1.178,-9.983 4.071,-12.448 8.321,-17.504c14.421,-17.157 28.333,-12.307 44.772,-14.229c9.522,-1.112 17.738,-3.847 28.502,-5.572c4.391,-0.703 20.545,-7.989 24.16,-9.693Z" style="fill:#edc24a;"/><path d="M1065.71,747.577c-1.46,6.083 -1.001,5.281 -4.118,9.919c-7.241,10.773 -9.981,8.912 -17.74,12.303c-0.412,0.18 -0.108,0.347 -2.252,0.819l-11.532,-0.311c-35.612,-8.726 -30.993,-63.319 13.609,-58.106c13.717,1.604 26.005,18.834 22.033,35.376Zm-88.225,1c3.464,21.124 12.487,33.679 30.346,44.753c3.559,2.207 5.664,3.239 10.62,4.345c12.913,2.88 23.459,5.257 37.656,-0.548c26.169,-10.699 43.549,-33.597 39.045,-63.893c-0.958,-6.439 -0.004,-7.044 -2.664,-12.486c-8.506,-17.403 -17.512,-29.903 -38.098,-36.845c-23.808,-8.029 -46.847,0.98 -63.478,18.963c-4.961,5.364 -9.16,11.649 -10.883,18.926c-1.893,7.992 -4.11,17.235 -2.544,26.785Z" style="fill:#040302;"/><path d="M244.625,952.577c0,12.93 -0.42,4.893 1.405,9.595c5.261,13.563 15.325,12.405 29.596,12.405c1.934,8.305 0.297,12.513 1.283,16.716c0.103,0.441 1.452,3.637 2.087,4.913c5.683,11.412 20.559,12.965 28.672,7.414l5.545,-5.456c0.12,-0.175 0.286,-0.418 0.402,-0.597c2.657,-4.087 1.795,-3.322 2.62,-9.381c0.571,-4.2 0.39,-8.252 0.39,-12.609c4.959,-1.156 6.102,-0.763 12.007,-0.994c14.677,-0.576 22.047,-11.16 19.5,-24.512l-7.356,-11.645c-1.457,-0.941 -7.454,-3.512 -9.239,-3.761c-2.684,-0.373 -11.07,0.357 -12.745,-0.254c-3.682,-1.344 -1.895,-5.609 -2.22,-10.781c-0.492,-7.84 -2.023,-12.87 -8.619,-17.381c-15.291,-10.457 -30.818,2.849 -31.372,15.283c-0.67,15.016 3.509,12.66 -12.022,12.978l-9.887,3.113c-5.056,2.867 -10.047,9.348 -10.047,14.954Z" style="fill:#70d6f9;"/><path d="M1065.71,747.577c3.972,-16.542 -8.316,-33.772 -22.033,-35.376c-44.602,-5.213 -49.221,49.38 -13.609,58.106l11.532,0.311c2.144,-0.472 1.84,-0.639 2.252,-0.819c7.759,-3.391 10.499,-1.53 17.74,-12.303c3.117,-4.638 2.658,-3.836 4.118,-9.919Z" style="fill:#faa164;"/><path d="M680.625,157.577c3.38,4.613 22.735,6.192 31.42,23.58c0.104,0.208 0.204,0.484 0.304,0.696l2.368,4.632c0.098,0.211 0.232,0.459 0.319,0.681c0.09,0.231 0.187,0.491 0.265,0.735l1.324,6.676l5,0c1.735,-3.615 1.371,-13.509 14.982,-25.018c10.462,-8.846 17.075,-7.328 19.652,-10.349c2.011,-2.357 0.933,1.568 1.366,-3.633c-1.483,-0.124 -5.233,-0.796 -6.714,-1.286c-2.042,-0.677 -3.597,-1.683 -6.095,-2.905l-12.619,-9.381c-6.243,-6.632 -8.626,-13.075 -10.572,-21.428l-5,0c-0.531,6.387 -2.894,11.1 -6.058,15.942l-1.629,2.371c-4.973,6.607 -14.171,13.109 -21.656,15.343c-4.449,1.327 -4.165,-0.057 -6.657,3.344Z" style="fill:#fc657e;"/><path d="M1307.81,938.252c5.055,0.32 9.486,-2.844 12.644,-4.572c7.925,-4.335 16.868,-12.873 21.34,-20.821c6.15,-10.933 6.993,-24.794 5.075,-38.272c-0.376,-2.639 -2.719,-11.021 -3.72,-13.637c-1.462,-3.821 -4.349,-8.252 -5.043,-12.923l63.399,13.034c15.265,4.45 36.385,10.147 41.293,-7.114c0.641,-2.256 0.811,-5.581 0.128,-7.988c-0.063,-0.222 -0.158,-0.487 -0.237,-0.688l-5.787,-7.062c-4.347,-4.602 -3.516,-2.314 -10.154,-3.693c-3.055,-0.635 -3.066,-1.502 -6.478,-2.124c-3.301,-0.603 -5.879,-0.181 -9.313,-1.158l-38.421,-8.163c-6.214,-0.859 -2.962,-1.434 -7.403,-2.469c-2.747,-0.641 -5.719,-0.201 -8.524,-0.71c-4.217,-0.766 -2.975,-1.677 -7.378,-2.39c-3.087,-0.501 -5.113,-0.106 -8.369,-0.951l-23.067,-5.974c2.232,-1.023 3.608,-0.492 5.543,-2.46c2.767,-2.812 -0.762,2.175 1.592,-2.42c-2.995,0.844 -10.51,3.385 -11.937,4.88c2.372,4.505 7.684,4.272 13.645,4.958l15.767,3.187c4.378,0.888 3.26,1.688 7.324,2.272l24.473,4.316c11.336,3.07 55.203,10.522 60.678,14.093c9.26,6.039 6.595,20.864 -4.45,24.193c-7.208,2.173 -9.478,-1.809 -15.819,-2.314l-48.299,-9.387c-7.072,-1.844 -24.484,-6.202 -31.265,-5.006c0.026,3.409 2.458,7.59 3.558,9.708c0.101,0.195 0.262,0.43 0.362,0.633l0.951,2.242c0.955,2.549 1.931,4.577 2.484,6.395c6.546,21.519 3.809,43.809 -12.817,58.713c-5.005,4.486 -10.594,7.877 -17.025,10.178c-4.345,1.554 -3.491,1.987 -4.75,3.494Z" style="fill:#2d5b09;"/></g></svg>